<?xml version="1.0" standalone="no"?>
<!DOCTYPE svg PUBLIC "-//W3C//DTD SVG 1.1//EN" "http://www.w3.org/Graphics/SVG/1.1/DTD/svg11.dtd" >
<svg xmlns="http://www.w3.org/2000/svg" xmlns:xlink="http://www.w3.org/1999/xlink" version="1.1">
<metadata>
Created by FontForge 20170731 at Tue Jul 10 13:45:39 2018
 By Aleksey,,,
Copyright (c) 2010 Berton Hasebe, under exclusive license to Schwartzco Inc. d/b/a Commercial Type.
</metadata>
<defs>
<font id="iCielPlatform-Regular" horiz-adv-x="621" >
  <font-face 
    font-family="iCiel Platform Regular"
    font-weight="400"
    font-stretch="normal"
    units-per-em="1000"
    panose-1="2 11 5 4 3 2 2 2 2 4"
    ascent="825"
    descent="-175"
    x-height="535"
    cap-height="692"
    bbox="-541.157 -252 1135 1067"
    underline-thickness="50"
    underline-position="-150"
    unicode-range="U+000D-FB02"
  />
<missing-glyph horiz-adv-x="154" 
 />
    <glyph glyph-name="f_f" unicode="ff" horiz-adv-x="502" 
d="M301 569q0 37 8 67t26 51t47 32.5t72 11.5h36v-81h-26q-22 0 -35 -6.5t-20.5 -17.5t-10 -25.5t-2.5 -31.5v-34h92v-81h-92v-454h-95v454h-141v-454h-95v454h-54v81h54v34q0 37 8 67t26 51t47.5 32.5t72.5 11.5h35v-81h-26q-43 0 -55.5 -23.5t-12.5 -57.5v-34h141v34z" />
    <glyph glyph-name=".notdef" horiz-adv-x="154" 
 />
    <glyph glyph-name=".null" horiz-adv-x="0" 
 />
    <glyph glyph-name=".null" horiz-adv-x="0" 
 />
    <glyph glyph-name="nonmarkingreturn" unicode="&#xd;" horiz-adv-x="250" 
 />
    <glyph glyph-name="space" unicode=" " horiz-adv-x="154" 
 />
    <glyph glyph-name="exclam" unicode="!" horiz-adv-x="212" 
d="M58 172v520h97v-520h-97zM107 -8q-28 0 -47.5 19t-19.5 47t19.5 47t47.5 19q27 0 46.5 -19t19.5 -47t-19.5 -47t-46.5 -19z" />
    <glyph glyph-name="quotedbl" unicode="&#x22;" horiz-adv-x="295" 
d="M119 462h-88v230h88v-230zM264 462h-88v230h88v-230z" />
    <glyph glyph-name="numbersign" unicode="#" horiz-adv-x="581" 
d="M350 0h-88l45 187h-116l-45 -187h-88l45 187h-86v80h106l45 183h-88v80h107l40 162h88l-40 -162h115l39 162h88l-39 -162h87v-80h-107l-44 -183h88v-80h-107zM326 267l44 183h-114l-45 -183h115z" />
    <glyph glyph-name="dollar" unicode="$" horiz-adv-x="483" 
d="M277 702q43 -6 73 -24t48 -44t26 -58t7 -66h-82q-2 42 -19.5 71.5t-52.5 41.5v-224q14 -5 30.5 -12.5t26.5 -12.5q56 -29 88.5 -72t32.5 -116q0 -39 -12.5 -72.5t-36 -59t-56 -42t-73.5 -21.5v-59h-72v58q-49 6 -83 25.5t-55 49t-30.5 66.5t-8.5 76h88q1 -51 21 -88.5
t68 -48.5v256q-14 5 -30 12.5t-24 12.5q-51 26 -80.5 67.5t-29.5 109.5q0 33 11.5 62.5t32.5 53t51.5 39t68.5 20.5v59h72v-60zM131 529q0 -38 19.5 -61t54.5 -40v198q-36 -8 -55 -34t-19 -63zM281 293q-2 0 -4 2v-225q38 9 61.5 37t23.5 73t-21.5 69t-59.5 44z" />
    <glyph glyph-name="percent" unicode="%" horiz-adv-x="780" 
d="M24 532q0 35 12.5 65.5t34.5 53t52.5 35.5t67.5 13q39 0 71 -13t54.5 -35.5t34.5 -53t12 -65.5q0 -34 -12 -64.5t-34.5 -52.5t-54 -35t-69.5 -13q-37 0 -68.5 12.5t-53.5 34.5t-34.5 52.5t-12.5 65.5zM87 0l525 691h86l-525 -691h-86zM103 533q0 -41 24.5 -68t66.5 -27
q45 0 68 27.5t23 67.5q0 41 -24.5 67.5t-68.5 26.5q-42 0 -65.5 -27t-23.5 -67zM417 160q0 35 12 65t34 52.5t53 35.5t68 13q39 0 71 -12.5t54.5 -35t34.5 -53t12 -65.5t-12.5 -65t-35 -52.5t-53.5 -35.5t-69 -13t-69 12.5t-53.5 35t-34.5 53t-12 65.5zM496 160
q0 -40 24.5 -67t66.5 -27q44 0 67 27t23 67q0 41 -24.5 68t-67.5 27q-42 0 -65.5 -27.5t-23.5 -67.5z" />
    <glyph glyph-name="ampersand" unicode="&#x26;" horiz-adv-x="639" 
d="M471 57q-35 -31 -81.5 -49t-108.5 -18q-58 0 -105 15.5t-79 43.5t-49.5 65.5t-17.5 82.5q0 63 30.5 111t83.5 76q-32 23 -51 58t-19 81q0 35 12.5 67t36.5 57.5t60 40.5t83 15q46 0 82.5 -13.5t61.5 -37.5t38.5 -56.5t13.5 -71.5q0 -37 -12 -67.5t-33 -52.5t-49 -35.5
t-60 -16.5l156 -161q19 38 25 85t4 95h90q4 -65 -8.5 -129.5t-45.5 -118.5l119 -123h-120zM167 522q0 -45 29 -73t74 -28t73 28.5t28 74.5q-1 44 -29.5 72t-74.5 28t-73 -28.5t-27 -73.5zM283 76q41 0 72 11.5t54 32.5l-205 208q-35 -18 -53.5 -49.5t-18.5 -73.5
q0 -27 11 -51t31 -41t47.5 -27t61.5 -10z" />
    <glyph glyph-name="quotesingle" unicode="'" horiz-adv-x="149" 
d="M119 462h-88v230h88v-230z" />
    <glyph glyph-name="parenleft" unicode="(" horiz-adv-x="248" 
d="M51 610q0 84 38.5 124.5t123.5 40.5h21v-82h-18q-24 0 -38.5 -6t-23 -17.5t-11 -27t-2.5 -34.5v-616q0 -19 2.5 -34.5t11 -27t23 -17.5t38.5 -6h18v-82h-21q-85 0 -123.5 40.5t-38.5 124.5v620z" />
    <glyph glyph-name="parenright" unicode=")" horiz-adv-x="248" 
d="M197 -10q0 -84 -38.5 -124.5t-123.5 -40.5h-21v82h18q24 0 38.5 6t22.5 17.5t10.5 27t2.5 34.5v616q0 19 -2.5 34.5t-10.5 27t-22.5 17.5t-38.5 6h-18v82h21q85 0 123.5 -40.5t38.5 -124.5v-620z" />
    <glyph glyph-name="asterisk" unicode="*" horiz-adv-x="392" 
d="M162 578v114h68v-115l97 59l33 -57l-99 -58l99 -57l-33 -58l-97 58v-114h-68v114l-97 -58l-33 57l99 57l-100 58l34 58z" />
    <glyph glyph-name="plus" unicode="+" horiz-adv-x="462" 
d="M188 377v169h87v-169h164v-80h-164v-170h-87v170h-164v80h164z" />
    <glyph glyph-name="comma" unicode="," horiz-adv-x="183" 
d="M74 -4q-23 6 -36 23t-13 40q-1 29 18 47.5t49 18.5q29 0 47 -19t18 -48q0 -17 -5 -32.5t-13 -33.5l-44 -101h-69z" />
    <glyph glyph-name="hyphen" unicode="-" horiz-adv-x="282" 
d="M247 331v-90h-211v90h211z" />
    <glyph glyph-name="period" unicode="." horiz-adv-x="183" 
d="M91 -9q-28 0 -47 19t-19 48t18.5 48t47.5 19t48 -19t19 -48t-19 -48t-48 -19z" />
    <glyph glyph-name="slash" unicode="/" horiz-adv-x="453" 
d="M4 -175l356 906h89l-356 -906h-89z" />
    <glyph glyph-name="zero" unicode="0" horiz-adv-x="517" 
d="M471 208q0 -49 -14.5 -90t-42 -70t-67 -45t-89.5 -16q-109 0 -160.5 60t-51.5 161v277q0 100 53 160.5t160 60.5q51 0 90.5 -16t66.5 -45.5t41 -70t14 -89.5v-277zM373 485q0 57 -28.5 93.5t-85.5 36.5q-60 0 -87 -36t-27 -94v-279q0 -57 27 -92.5t87 -35.5q57 0 85.5 36
t28.5 92v279z" />
    <glyph glyph-name="one" unicode="1" horiz-adv-x="232" 
d="M82 0v592l-69 -27v93l76 34h91v-692h-98z" />
    <glyph glyph-name="two" unicode="2" horiz-adv-x="468" 
d="M29 88l233 261q35 39 53.5 74.5t18.5 78.5q0 50 -26 81.5t-78 31.5q-31 0 -51 -11t-31 -28t-15.5 -37.5t-4.5 -39.5h-97q0 36 9.5 72.5t32.5 66.5t61.5 49t95.5 19q51 0 89.5 -15.5t64.5 -42.5t39 -63.5t13 -78.5q0 -65 -25.5 -113t-71.5 -97l-186 -207h291v-89h-415v88z
" />
    <glyph glyph-name="three" unicode="3" horiz-adv-x="476" 
d="M307 603h-263v89h378v-88l-161 -199q39 -3 74 -15.5t61 -37.5t41.5 -62t15.5 -89q0 -47 -16.5 -86t-45.5 -67.5t-69 -44.5t-87 -16q-60 0 -101 18t-66.5 47.5t-37 66.5t-11.5 75h98q1 -52 30.5 -84.5t86.5 -32.5t88 34.5t31 88.5q0 57 -34 89t-97 32h-75v76z" />
    <glyph glyph-name="four" unicode="4" horiz-adv-x="504" 
d="M409 0h-96v219h-301v84l301 389h96v-386h81v-87h-81v-219zM313 306v253l-196 -253h196z" />
    <glyph glyph-name="five" unicode="5" horiz-adv-x="485" 
d="M132 194q3 -51 28.5 -83.5t83.5 -32.5q57 0 85.5 35.5t28.5 95.5v25q0 57 -26 92t-85 35q-45 0 -68 -17t-33 -37h-96v385h367v-89h-272v-192q16 17 46 29t72 12q99 0 145.5 -57t46.5 -160v-25q0 -47 -13.5 -88t-40 -71t-66 -47t-91.5 -17q-56 0 -95.5 16t-64.5 44
t-36.5 66t-12.5 81h97z" />
    <glyph glyph-name="six" unicode="6" horiz-adv-x="503" 
d="M383 559q-17 23 -44.5 39.5t-69.5 16.5q-69 0 -97.5 -39.5t-27.5 -100.5v-70q14 20 47.5 38t82.5 18q100 0 148 -56.5t48 -160.5v-37q0 -47 -14 -87.5t-41 -70t-66.5 -46t-90.5 -16.5q-109 0 -160.5 60t-51.5 160v266q0 48 12.5 90.5t39.5 74t68.5 50t99.5 18.5
q39 0 69.5 -8t53 -21t37.5 -29t25 -31zM260 370q-58 0 -86.5 -33.5t-29.5 -86.5v-44q0 -57 27 -92.5t87 -35.5q58 0 86.5 36.5t28.5 91.5v39q0 57 -26.5 91t-86.5 34z" />
    <glyph glyph-name="seven" unicode="7" horiz-adv-x="446" 
d="M72 0l238 603h-295v89h406v-72l-242 -620h-107z" />
    <glyph glyph-name="eight" unicode="8" horiz-adv-x="490" 
d="M37 513q0 39 13.5 74t40 61.5t65.5 42t89 15.5t88.5 -15t65 -41.5t40 -61.5t13.5 -75q0 -54 -24 -92.5t-60 -60.5q45 -23 71 -65t26 -104q0 -42 -15.5 -79t-44 -64.5t-69.5 -44t-92 -16.5q-52 0 -93 16t-69.5 43.5t-43 64.5t-14.5 80q0 61 26.5 103t68.5 65
q-35 23 -58.5 61.5t-23.5 92.5zM136 510q0 -48 30 -79t79 -31t79 31t30 79t-30 78.5t-79 30.5q-50 0 -79.5 -30.5t-29.5 -78.5zM125 194q0 -52 32.5 -86t86.5 -34t87.5 33.5t33.5 86.5q0 54 -33.5 87.5t-87.5 33.5q-57 0 -88 -34t-31 -87z" />
    <glyph glyph-name="nine" unicode="9" horiz-adv-x="503" 
d="M120 134q18 -23 44.5 -39.5t72.5 -16.5q68 0 95 39.5t27 100.5v69q-15 -22 -47 -38.5t-77 -16.5q-102 0 -152 56.5t-50 160.5v37q0 47 14 87.5t40.5 70t66 46t90.5 16.5q108 0 160.5 -59.5t52.5 -159.5v-267q0 -49 -12.5 -92t-38.5 -74t-67.5 -49t-99.5 -18q-39 0 -69 8
t-52.5 21t-38 28.5t-26.5 31.5zM246 323q57 0 84.5 33t29.5 87v44q0 58 -28 93t-88 35q-58 0 -85.5 -36t-27.5 -92v-40q0 -57 27.5 -90.5t87.5 -33.5z" />
    <glyph glyph-name="colon" unicode=":" horiz-adv-x="183" 
d="M91 340q-28 0 -47 19t-19 48t18.5 48t47.5 19t48 -19t19 -48t-19 -48t-48 -19zM91 -9q-28 0 -47 19t-19 48t18.5 48t47.5 19t48 -19t19 -48t-19 -48t-48 -19z" />
    <glyph glyph-name="semicolon" unicode=";" horiz-adv-x="183" 
d="M91 340q-28 0 -47 19t-19 48t18.5 48t47.5 19t48 -19t19 -48t-19 -48t-48 -19zM74 -4q-23 6 -36 23t-13 40q-1 29 18 47.5t49 18.5q29 0 47 -19t18 -48q0 -17 -5 -32.5t-13 -33.5l-44 -101h-69z" />
    <glyph glyph-name="less" unicode="&#x3c;" horiz-adv-x="413" 
d="M387 545v-86l-271 -120l271 -123v-85l-362 164v85z" />
    <glyph glyph-name="equal" unicode="=" horiz-adv-x="474" 
d="M444 449v-77h-415v77h415zM444 292v-77h-415v77h415z" />
    <glyph glyph-name="greater" unicode="&#x3e;" horiz-adv-x="409" 
d="M26 131v85l267 123l-267 120v86l359 -165v-85z" />
    <glyph glyph-name="question" unicode="?" horiz-adv-x="462" 
d="M170 172v224h53q51 0 84.5 27t33.5 83q0 51 -30 82t-81 31q-35 0 -57 -13t-34 -32t-16 -41t-4 -39h-95q-1 26 6 61.5t29 68.5t63 56t108 23q50 0 89 -15.5t65.5 -42t40.5 -62t14 -76.5q0 -39 -12.5 -71.5t-35.5 -56.5t-55 -38.5t-71 -16.5v-152h-95zM218 -8
q-28 0 -47.5 19t-19.5 47t19.5 47t47.5 19q27 0 46.5 -19t19.5 -47t-19.5 -47t-46.5 -19z" />
    <glyph glyph-name="at" unicode="@" horiz-adv-x="955" 
d="M622 145q-18 -26 -58 -49.5t-97 -23.5q-48 0 -87 15.5t-67 43.5t-43.5 67t-15.5 85q0 45 15.5 84t43.5 68t66.5 45.5t83.5 16.5q46 0 81.5 -15.5t52.5 -37.5v46h87v-267q0 -35 14 -55t49 -20q42 0 70 50.5t28 137.5q0 76 -25.5 136.5t-72 102.5t-113 64.5t-149.5 22.5
q-87 0 -156 -30t-117 -81t-73 -119.5t-25 -145.5q0 -85 28.5 -154t80.5 -117.5t125 -74.5t161 -26q83 0 148.5 27t113.5 69l46 -56q-22 -22 -53.5 -43t-71.5 -37t-86.5 -26t-98.5 -10q-113 0 -202.5 34t-151.5 94.5t-94.5 142t-32.5 175.5q0 98 34 181t95 143.5t146 94.5
t187 34q105 0 187 -31t138.5 -84.5t86 -126t29.5 -155.5q0 -64 -14.5 -114t-40 -84t-60.5 -51.5t-76 -17.5q-51 0 -78.5 21.5t-37.5 50.5zM345 284q0 -57 34 -93.5t89 -36.5t92 35t37 95q0 30 -10 54t-27.5 41.5t-41.5 26.5t-51 9q-55 0 -88.5 -36.5t-33.5 -94.5z" />
    <glyph glyph-name="A" unicode="A" horiz-adv-x="631" 
d="M181 228l-86 -228h-97l260 692h103l272 -692h-103l-89 228h-260zM408 312l-99 255l-97 -255h196z" />
    <glyph glyph-name="B" unicode="B" horiz-adv-x="478" 
d="M452 200q0 -47 -15.5 -84.5t-43 -63t-65.5 -39t-84 -13.5h-190v692h178q97 0 149 -46t52 -136q0 -50 -21 -87.5t-58 -57.5q46 -20 72 -60.5t26 -104.5zM151 398h76q51 0 78 27.5t27 77.5t-26 76.5t-79 26.5h-76v-208zM151 86h82q58 0 87.5 32t29.5 85q0 51 -29 81.5
t-88 30.5h-82v-229z" />
    <glyph glyph-name="C" unicode="C" horiz-adv-x="624" 
d="M611 78q-17 -17 -40 -33.5t-51.5 -29t-63 -20.5t-73.5 -8q-80 0 -146 27t-113 74.5t-72.5 113.5t-25.5 144t26 144t73 114t112 75t144 27q68 0 124.5 -21t98.5 -59l-58 -72q-30 26 -72 43.5t-93 17.5q-58 0 -104.5 -20t-79.5 -56t-50.5 -85t-17.5 -108q0 -58 19 -107.5
t52.5 -85t80.5 -55.5t103 -20q60 0 101.5 22t68.5 46z" />
    <glyph glyph-name="D" unicode="D" horiz-adv-x="550" 
d="M169 692q84 0 149.5 -24.5t111.5 -69.5t70 -108.5t24 -142.5q0 -78 -24 -142t-70 -109.5t-112 -70.5t-149 -25h-115v692h115zM173 88q119 -1 183.5 67.5t64.5 190.5t-64 190.5t-184 67.5h-21v-516h21z" />
    <glyph glyph-name="E" unicode="E" horiz-adv-x="393" 
d="M54 692h301v-91h-203v-200h198v-90h-198v-220h206v-91h-304v692z" />
    <glyph glyph-name="F" unicode="F" horiz-adv-x="390" 
d="M152 0h-98v692h303v-91h-205v-200h199v-90h-199v-311z" />
    <glyph glyph-name="G" unicode="G" horiz-adv-x="716" 
d="M572 0v51q-29 -25 -78 -44.5t-115 -19.5q-77 0 -142 26t-112 73.5t-73 113.5t-26 146q0 77 26 143t73 114t112 75.5t143 27.5q52 0 94.5 -10.5t75.5 -27.5t57.5 -39t40.5 -45l-73 -60q-13 17 -31.5 33t-42.5 29t-54 21t-68 8q-55 0 -101 -20t-79 -55.5t-51.5 -85
t-18.5 -108.5q0 -60 19 -109.5t52.5 -84.5t80.5 -54.5t102 -19.5q63 0 110.5 20.5t77.5 51.5v122h-126v84h223v-356h-96z" />
    <glyph glyph-name="H" unicode="H" horiz-adv-x="635" 
d="M483 0v312h-331v-312h-98v692h98v-287h331v287h98v-692h-98z" />
    <glyph glyph-name="I" unicode="I" horiz-adv-x="206" 
d="M54 0v692h98v-692h-98z" />
    <glyph glyph-name="J" unicode="J" horiz-adv-x="262" 
d="M209 142q0 -33 -6 -59t-22 -45t-43.5 -29t-70.5 -10q-14 0 -28 0.5t-20 0.5v89h39q33 0 43 17.5t10 43.5v542h98v-550z" />
    <glyph glyph-name="K" unicode="K" horiz-adv-x="525" 
d="M403 692h117l-282 -330l291 -362h-117l-260 316v-316h-98v692h98v-299z" />
    <glyph glyph-name="L" unicode="L" horiz-adv-x="374" 
d="M54 692h98v-601h201v-91h-299v692z" />
    <glyph glyph-name="M" unicode="M" horiz-adv-x="847" 
d="M375 0l-229 563v-563h-92v692h142l229 -574l229 574h139v-692h-96v563l-227 -563h-95z" />
    <glyph glyph-name="N" unicode="N" horiz-adv-x="657" 
d="M150 0h-96v692h101l352 -531v531h96v-692h-99l-354 525v-525z" />
    <glyph glyph-name="O" unicode="O" horiz-adv-x="761" 
d="M26 346q0 78 26.5 144t73.5 114t112 75t141 27q79 0 144.5 -27t112.5 -75t73 -114t26 -143t-26 -143t-73 -114t-112.5 -75.5t-143.5 -27.5t-143.5 26.5t-112 74.5t-72.5 114t-26 144zM129 346q0 -59 18.5 -108t51.5 -84.5t79.5 -55.5t101.5 -20q57 0 103.5 20t79.5 55.5
t51 85t18 107.5q0 59 -18.5 108t-51.5 85t-79.5 56t-102.5 20q-57 0 -103 -20t-79 -56t-51 -85t-18 -108z" />
    <glyph glyph-name="P" unicode="P" horiz-adv-x="456" 
d="M436 504q0 -46 -15 -82t-41.5 -61t-64 -38t-82.5 -13h-81v-310h-98v692h179q97 0 150 -47t53 -141zM152 396h76q53 0 79.5 29t26.5 78q0 48 -26.5 75.5t-79.5 27.5h-76v-210z" />
    <glyph glyph-name="Q" unicode="Q" horiz-adv-x="761" 
d="M26 346q0 78 26.5 144t73.5 114t112 75t141 27q79 0 144.5 -27t112.5 -75t73 -114t26 -143q0 -68 -20.5 -126.5t-58.5 -105.5l60 -54l-63 -71l-66 60q-43 -30 -95 -46.5t-112 -16.5q-78 0 -143.5 26.5t-112 74.5t-72.5 114t-26 144zM128 346q0 -59 18.5 -108.5t51.5 -85
t79.5 -55.5t102.5 -20q78 0 137 37l-65 59l62 70l71 -64q48 68 48 167q0 59 -18.5 108.5t-51.5 85.5t-79.5 56t-103.5 20t-103.5 -20t-79.5 -56t-51 -85.5t-18 -108.5z" />
    <glyph glyph-name="R" unicode="R" horiz-adv-x="495" 
d="M436 504q0 -64 -28.5 -108t-79.5 -65l174 -331h-105l-163 313h-82v-313h-98v692h179q97 0 150 -47t53 -141zM152 396h76q53 0 79.5 29t26.5 78q0 48 -26.5 75.5t-79.5 27.5h-76v-210z" />
    <glyph glyph-name="S" unicode="S" horiz-adv-x="482" 
d="M141 527q0 -35 17.5 -57.5t49.5 -38.5q31 -14 63 -26.5t65 -29.5q56 -27 87 -71t31 -113q0 -45 -15.5 -82.5t-43 -64t-67 -41.5t-87.5 -15q-60 0 -101.5 18t-66.5 48.5t-35.5 70t-9.5 82.5h95q0 -28 6.5 -52.5t20.5 -42.5t36.5 -28.5t54.5 -10.5q49 0 81 27.5t32 81.5
q0 42 -20 66.5t-54 41.5q-34 18 -68.5 30.5t-69.5 31.5q-47 26 -72.5 68t-25.5 104q0 38 13.5 71t39 57.5t61.5 38.5t81 14q55 0 92.5 -16.5t60.5 -43.5t32.5 -62t8.5 -73h-90q-2 48 -27.5 79.5t-76.5 31.5q-48 0 -73 -26.5t-25 -67.5z" />
    <glyph glyph-name="T" unicode="T" horiz-adv-x="416" 
d="M257 0h-98v601h-142v91h382v-91h-142v-601z" />
    <glyph glyph-name="U" unicode="U" horiz-adv-x="624" 
d="M312 -13q-67 0 -116 19.5t-81.5 55.5t-48.5 86.5t-16 112.5v431h98v-431q0 -82 39.5 -132.5t125.5 -50.5q81 0 122.5 51.5t41.5 132.5v430h97v-431q0 -60 -17.5 -110t-50.5 -86.5t-82 -57t-112 -20.5z" />
    <glyph glyph-name="V" unicode="V" horiz-adv-x="641" 
d="M109 692l214 -570l215 570h104l-269 -692h-105l-269 692h110z" />
    <glyph glyph-name="W" unicode="W" horiz-adv-x="981" 
d="M322 0h-107l-214 692h106l166 -558l168 558h106l168 -558l165 558h100l-211 -692h-108l-169 547z" />
    <glyph glyph-name="X" unicode="X" horiz-adv-x="614" 
d="M14 692h120l175 -249l173 249h116l-232 -333l249 -359h-113l-197 277l-196 -277h-110l249 360z" />
    <glyph glyph-name="Y" unicode="Y" horiz-adv-x="481" 
d="M106 692l137 -241l137 241h105l-196 -336v-356h-98v355l-195 337h110z" />
    <glyph glyph-name="Z" unicode="Z" horiz-adv-x="588" 
d="M28 73l396 529h-390v90h525v-73l-400 -529h401v-90h-532v73z" />
    <glyph glyph-name="bracketleft" unicode="[" horiz-adv-x="248" 
d="M234 775v-83h-93v-784h92v-83h-182v950h183z" />
    <glyph glyph-name="backslash" unicode="\" horiz-adv-x="453" 
d="M93 731l356 -906h-89l-356 906h89z" />
    <glyph glyph-name="bracketright" unicode="]" horiz-adv-x="248" 
d="M14 -175v83h92v784h-92v83h183v-950h-183z" />
    <glyph glyph-name="asciicircum" unicode="^" horiz-adv-x="452" 
d="M343 385l-117 217l-117 -217h-97l166 307h97l165 -307h-97z" />
    <glyph glyph-name="underscore" unicode="_" horiz-adv-x="625" 
d="M592 -45v-78h-559v78h559z" />
    <glyph glyph-name="grave" unicode="`" horiz-adv-x="476" 
d="M292 579h-91l-79 135h94z" />
    <glyph glyph-name="a" unicode="a" 
d="M482 79q-9 -13 -25 -28.5t-39 -29t-53.5 -22t-67.5 -8.5q-60 0 -110.5 20t-86.5 56t-56 87t-20 113q0 60 20 110.5t56.5 87.5t86.5 58t110 21t109 -23.5t75 -58.5v73h91v-535h-90v79zM120 267q0 -42 13 -77t37 -60.5t57.5 -39.5t73.5 -14t73 14t57 39.5t37 60.5t13 77
t-13.5 77t-37.5 60.5t-57 40t-73 14.5t-73 -14.5t-57 -40t-37 -60.5t-13 -77z" />
    <glyph glyph-name="b" unicode="b" 
d="M49 0v731h95v-270q12 15 29.5 30t41 26.5t52.5 19t62 7.5q60 0 109 -20t84.5 -56t55 -87t19.5 -113q0 -59 -19.5 -110t-55 -88t-86 -58t-112.5 -21q-35 0 -64 8t-52.5 20t-40 26t-27.5 27v-72h-91zM140 267q0 -42 13 -77t37 -60.5t57.5 -39.5t73.5 -14q41 0 74 14
t56.5 39.5t36.5 60.5t13 77t-13 77.5t-37 61t-57 39.5t-73 14t-73.5 -14t-57.5 -39.5t-37 -61t-13 -77.5z" />
    <glyph glyph-name="c" unicode="c" horiz-adv-x="509" 
d="M299 77q27 0 48.5 6t38.5 15t30.5 19.5t23.5 20.5l56 -59q-12 -14 -30 -29.5t-42.5 -28.5t-56 -21.5t-69.5 -8.5q-62 0 -112.5 21t-86.5 58t-55.5 87.5t-19.5 109.5t20.5 109.5t57 88t86.5 58.5t109 21q39 0 71 -8t56.5 -20.5t42.5 -28t29 -29.5l-59 -60
q-21 23 -54.5 41.5t-84.5 18.5q-40 0 -72.5 -14.5t-55.5 -40t-36 -60.5t-13 -76q0 -43 14 -78t38 -60t56.5 -38.5t69.5 -13.5z" />
    <glyph glyph-name="d" unicode="d" 
d="M482 79q-10 -15 -27.5 -31t-41 -28.5t-53 -20.5t-63.5 -8q-60 0 -110.5 20t-86.5 56.5t-56 87.5t-20 112q0 59 20 109.5t56 88t86 58.5t109 21q64 0 110 -23t72 -54v264h95v-731h-90v79zM120 267q0 -42 13.5 -77t37.5 -60.5t57 -39.5t72 -14q40 0 73.5 14t57.5 39.5
t37 60.5t13 77t-13.5 77t-37.5 60.5t-57 40t-73 14.5t-73 -14.5t-57 -40t-37 -60.5t-13 -77z" />
    <glyph glyph-name="e" unicode="e" horiz-adv-x="566" 
d="M122 239q5 -76 51 -119.5t122 -43.5q64 0 102.5 29t64.5 77l73 -38q-13 -31 -34.5 -58.5t-51.5 -48.5t-68.5 -33.5t-85.5 -12.5q-60 0 -110 19.5t-86 55.5t-55.5 86.5t-19.5 113.5q0 61 19.5 112t54 88t82.5 57.5t105 20.5q59 0 107 -18.5t82 -52.5t53 -82.5t20 -108.5
v-19.5t-2 -23.5h-423zM284 462q-66 0 -108 -39t-51 -107h323q-5 66 -49.5 106t-114.5 40z" />
    <glyph glyph-name="f" unicode="f" horiz-adv-x="266" 
d="M252 535v-81h-92v-454h-95v454h-54v81h54v34q0 37 8 67t26 51t47.5 32.5t72.5 11.5h35v-81h-26q-43 0 -55.5 -23.5t-12.5 -57.5v-34h92z" />
    <glyph glyph-name="g" unicode="g" horiz-adv-x="620" 
d="M572 535v-444q0 -75 -21.5 -127.5t-59.5 -85t-89 -47t-110 -14.5q-69 0 -123 18.5t-86 39.5l37 75q26 -17 70 -33.5t103 -16.5q38 0 71 9t58.5 28.5t40 50t14.5 73.5v15q-9 -14 -24.5 -29t-38 -27.5t-51.5 -20.5t-65 -8q-60 0 -110.5 20t-87 56t-56.5 87t-20 113
q0 59 20.5 109.5t56.5 88t86 58.5t109 21q62 0 110 -23t74 -58v72h92zM120 267q0 -42 13.5 -77t37.5 -60.5t57 -39.5t72 -14q40 0 73.5 14t57.5 39.5t37 60.5t13 77t-13.5 77t-37.5 60.5t-57 40t-73 14.5t-73 -14.5t-57 -40t-37 -60.5t-13 -77z" />
    <glyph glyph-name="h" unicode="h" horiz-adv-x="479" 
d="M337 343q0 54 -23 83.5t-72 29.5q-48 0 -73 -31.5t-25 -84.5v-340h-95v731h95v-246q12 18 41 37t80 19q46 0 77.5 -14.5t51.5 -40t29 -60t9 -73.5v-353h-95v343z" />
    <glyph glyph-name="i" unicode="i" horiz-adv-x="193" 
d="M96 587q-26 0 -44.5 18.5t-18.5 44.5q0 27 18.5 45t44.5 18t45 -18t19 -45q0 -26 -19 -44.5t-45 -18.5zM49 0v535h95v-535h-95z" />
    <glyph glyph-name="j" unicode="j" horiz-adv-x="193" 
d="M96 587q-26 0 -44.5 18.5t-18.5 44.5q0 27 18.5 45t44.5 18t45 -18t19 -45q0 -26 -19 -44.5t-45 -18.5zM144 -11q0 -37 -7.5 -67.5t-25.5 -52t-47 -33t-73 -11.5h-31v82h22q22 0 35 6.5t20 17.5t9.5 25.5t2.5 31.5v547h95v-546z" />
    <glyph glyph-name="k" unicode="k" horiz-adv-x="463" 
d="M463 0h-117l-202 251v-251h-95v731h95v-422l196 226h115l-219 -249z" />
    <glyph glyph-name="l" unicode="l" horiz-adv-x="193" 
d="M49 0v731h95v-731h-95z" />
    <glyph glyph-name="m" unicode="m" horiz-adv-x="750" 
d="M328 0v343q0 52 -22 82.5t-68 30.5q-48 0 -71 -32.5t-23 -86.5v-337h-95v535h95v-48q13 17 40.5 35.5t78.5 18.5q53 0 84.5 -20.5t47.5 -50.5q18 29 51 50t86 21q47 0 79.5 -14.5t52.5 -40t29.5 -59t9.5 -72.5v-355h-95v344q0 52 -22 82t-69 30q-46 0 -69.5 -31
t-24.5 -81v-344h-95z" />
    <glyph glyph-name="n" unicode="n" horiz-adv-x="479" 
d="M337 343q0 54 -23 83.5t-72 29.5q-48 0 -73 -31.5t-25 -84.5v-340h-95v535h95v-48q11 17 40.5 35.5t80.5 18.5q46 0 77.5 -14.5t51.5 -40t29 -60t9 -73.5v-353h-95v343z" />
    <glyph glyph-name="o" unicode="o" horiz-adv-x="600" 
d="M24 267q0 61 21 112t58 87.5t87.5 57t109.5 20.5q60 0 111 -20.5t87.5 -57.5t57 -87.5t20.5 -110.5t-21 -111t-58 -87.5t-88 -57.5t-110 -21q-60 0 -110.5 20t-87 56.5t-57 87.5t-20.5 112zM120 267q0 -42 13.5 -76.5t37.5 -60t57 -39.5t72 -14q40 0 73 14t57 39.5t37 60
t13 76.5q0 41 -13.5 76t-37.5 60.5t-57 40t-72 14.5q-40 0 -73 -14t-57 -39.5t-37 -60.5t-13 -77z" />
    <glyph glyph-name="p" unicode="p" 
d="M49 -175v710h91v-77q12 16 29.5 31.5t41 27.5t53 19.5t64.5 7.5q60 0 109.5 -20t85 -56.5t55 -87t19.5 -112.5q0 -58 -19 -109t-54.5 -88t-86 -58.5t-113.5 -21.5q-35 0 -64 7.5t-51.5 19t-39 24.5t-25.5 24v-241h-95zM140 267q0 -42 13 -77t37 -60.5t57.5 -39.5
t73.5 -14q41 0 74 14t56.5 39.5t36.5 60.5t13 77t-13 77t-37 60.5t-57 40t-73 14.5t-73.5 -14.5t-57.5 -40t-37 -60.5t-13 -77z" />
    <glyph glyph-name="q" unicode="q" 
d="M477 73q-9 -13 -25.5 -27.5t-39.5 -26.5t-52 -20t-63 -8q-60 0 -110.5 20t-86.5 56t-56 87t-20 113q0 60 20 110.5t56.5 87.5t86.5 58t110 21t109 -23.5t75 -58.5v73h91v-710h-95v248zM120 267q0 -42 13 -77t37 -60.5t57.5 -39.5t73.5 -14t73 14t57 39.5t37 60.5t13 77
t-13.5 77t-37.5 60.5t-57 40t-73 14.5t-73 -14.5t-57 -40t-37 -60.5t-13 -77z" />
    <glyph glyph-name="r" unicode="r" horiz-adv-x="281" 
d="M237 439q-49 0 -71 -27t-22 -76v-336h-95v535h95v-52q14 23 42 38.5t77 14.5v-97h-26z" />
    <glyph glyph-name="s" unicode="s" horiz-adv-x="399" 
d="M124 401q0 -48 54 -68q21 -8 42 -13t43 -13q56 -20 86 -54.5t30 -99.5q0 -39 -14.5 -69t-39 -50t-57.5 -30t-70 -10q-51 0 -85.5 14.5t-55.5 38.5t-30 55.5t-8 65.5h92q0 -19 4.5 -37t15 -31t27.5 -21t42 -8q35 -1 60.5 18t25.5 55q0 33 -16 50t-46 28q-23 8 -46 14
t-49 17q-53 23 -75 58.5t-22 83.5q0 33 12.5 60t35 46t53 29.5t67.5 10.5q85 0 125 -44.5t41 -117.5h-88q-2 41 -21.5 64.5t-58.5 23.5q-34 0 -54 -17.5t-20 -48.5z" />
    <glyph glyph-name="t" unicode="t" horiz-adv-x="277" 
d="M259 535v-81h-99v-301q0 -35 11 -53t49 -18h38v-82q-6 0 -22.5 -2.5t-39.5 -2.5q-74 0 -102.5 35t-28.5 99v325h-54v81h54v82h95v-82h99z" />
    <glyph glyph-name="u" unicode="u" horiz-adv-x="475" 
d="M141 193q0 -54 22.5 -83.5t70.5 -29.5t72.5 31.5t24.5 84.5v339h96v-535h-95v49q-12 -19 -41 -37t-79 -18q-45 0 -76.5 14.5t-51.5 40t-29 59.5t-9 74v353h95v-342z" />
    <glyph glyph-name="v" unicode="v" horiz-adv-x="511" 
d="M414 535h99l-204 -535h-104l-207 535h105l156 -420z" />
    <glyph glyph-name="w" unicode="w" horiz-adv-x="830" 
d="M732 535h98l-174 -535h-105l-134 402l-135 -402h-105l-177 535h105l130 -415l132 415h103l131 -415z" />
    <glyph glyph-name="x" unicode="x" horiz-adv-x="519" 
d="M105 0h-106l206 275l-194 260h113l138 -183l138 183h108l-194 -258l206 -277h-109l-153 201z" />
    <glyph glyph-name="y" unicode="y" horiz-adv-x="512" 
d="M214 10l-216 525h105l160 -398l152 398h99l-278 -710h-93z" />
    <glyph glyph-name="z" unicode="z" horiz-adv-x="441" 
d="M418 80v-80h-395v73l279 382h-273v80h389v-73l-285 -382h285z" />
    <glyph glyph-name="braceleft" unicode="{" horiz-adv-x="279" 
d="M172 -8q0 -38 13.5 -61t61.5 -23h18v-83h-21q-85 0 -123.5 40.5t-38.5 124.5v201q0 32 -9.5 49.5t-47.5 17.5h-4v86h4q38 0 47.5 17.5t9.5 49.5v199q0 84 38.5 124.5t123.5 40.5h21v-83h-18q-48 0 -61.5 -23t-13.5 -61v-204q0 -52 -15 -74t-40 -29q25 -7 40 -28.5
t15 -75.5v-205z" />
    <glyph glyph-name="bar" unicode="|" horiz-adv-x="225" 
d="M71 -175v906h83v-906h-83z" />
    <glyph glyph-name="braceright" unicode="}" horiz-adv-x="279" 
d="M106 197q0 54 15.5 75.5t40.5 28.5q-26 7 -41 29t-15 74v204q0 38 -13.5 61t-60.5 23h-18v83h21q85 0 123.5 -40.5t38.5 -124.5v-199q0 -32 9.5 -49.5t47.5 -17.5h4v-86h-4q-38 0 -47.5 -17.5t-9.5 -49.5v-201q0 -84 -38.5 -124.5t-123.5 -40.5h-21v83h18q47 0 60.5 23
t13.5 61v205z" />
    <glyph glyph-name="asciitilde" unicode="~" horiz-adv-x="474" 
d="M228 260q-21 14 -37 23t-36 9q-29 0 -40.5 -20t-13.5 -43h-81q0 29 8 56.5t24 48.5t40.5 33.5t58.5 12.5q27 0 48.5 -8t47.5 -25q20 -14 37 -23t37 -9q29 0 39.5 20t12.5 44h81q0 -30 -8 -57.5t-23.5 -48.5t-40 -33.5t-57.5 -12.5q-27 0 -49 8.5t-48 24.5z" />
    <glyph glyph-name="uni00A0" unicode="&#xa0;" horiz-adv-x="154" 
 />
    <glyph glyph-name="exclamdown" unicode="&#xa1;" horiz-adv-x="212" 
d="M106 599q28 0 47.5 -19.5t19.5 -47.5t-19.5 -47t-47.5 -19t-47 19t-19 47t19 47.5t47 19.5zM58 -103v523h97v-523h-97z" />
    <glyph glyph-name="cent" unicode="&#xa2;" horiz-adv-x="511" 
d="M326 540q66 -6 108 -32t62 -52l-57 -60q-19 21 -47 38t-66 22v-377q40 5 68 21.5t49 39.5l54 -59q-11 -13 -27 -27t-37.5 -26.5t-48 -21t-58.5 -11.5v-63h-70v64q-53 7 -96 30t-73 58.5t-46.5 82t-16.5 100.5q0 53 17 99.5t48 82.5t73.5 59.5t93.5 30.5v65h70v-64z
M119 267q0 -73 38.5 -122t98.5 -63v372q-63 -14 -100 -64.5t-37 -122.5z" />
    <glyph glyph-name="sterling" unicode="&#xa3;" horiz-adv-x="525" 
d="M335 379v-85h-144v-206h306v-88h-473v88h69v206h-69v85h69v123q0 44 13 81.5t38.5 64.5t63 42.5t87.5 15.5q57 0 96 -19t62.5 -48.5t33.5 -66.5t9 -73h-97q0 19 -4.5 39.5t-16 37.5t-31.5 28t-52 11q-54 0 -79 -33t-25 -85v-118h144z" />
    <glyph glyph-name="yen" unicode="&#xa5;" horiz-adv-x="492" 
d="M4 692h113l132 -202l131 202h106l-185 -280h144v-73h-151v-86h151v-73h-151v-180h-98v180h-151v73h151v86h-151v73h143z" />
    <glyph glyph-name="brokenbar" unicode="&#xa6;" horiz-adv-x="225" 
d="M71 312v419h83v-419h-83zM71 -175v430h83v-430h-83z" />
    <glyph glyph-name="section" unicode="&#xa7;" horiz-adv-x="568" 
d="M378 -7q0 33 -19 57.5t-67 41.5l-132 48q-62 23 -96 61t-34 103q0 57 30.5 92t78.5 47q-23 25 -33 55.5t-10 62.5q0 35 12.5 67t36.5 56t60.5 38.5t84.5 14.5q57 0 94 -18t58.5 -46.5t29.5 -63.5t7 -68h-94q0 17 -4.5 36t-15.5 35.5t-29.5 27.5t-45.5 11
q-52 0 -74.5 -25.5t-22.5 -60.5q0 -32 19 -57t64 -40l127 -46q70 -23 102 -63t32 -103q0 -29 -9 -52.5t-23 -41.5t-32.5 -29.5t-38.5 -17.5q23 -23 32.5 -55t9.5 -64q0 -36 -13.5 -68.5t-39 -56.5t-62.5 -38.5t-85 -14.5q-54 0 -91.5 16t-60.5 43.5t-33 64t-9 76.5h96
q0 -22 5 -42.5t16.5 -36.5t30.5 -25.5t47 -9.5q50 0 75.5 24.5t25.5 64.5zM250 374q-28 10 -50.5 9t-39 -10.5t-25.5 -25.5t-9 -36q0 -34 19.5 -52t48.5 -29l132 -47q21 -8 41.5 -7t37 9.5t26.5 24.5t10 38q0 35 -19.5 52.5t-48.5 28.5z" />
    <glyph glyph-name="dieresis" unicode="&#xa8;" horiz-adv-x="476" 
d="M158 590q-25 0 -42 17t-17 42t17 42t42 17q26 0 43.5 -17t17.5 -42t-18 -42t-43 -17zM329 590q-26 0 -43 17t-17 42t17 42t43 17q25 0 42.5 -17t17.5 -42t-18 -42t-42 -17z" />
    <glyph glyph-name="copyright" unicode="&#xa9;" horiz-adv-x="778" 
d="M26 346q0 75 26.5 141t73.5 114.5t113.5 76.5t145.5 28q84 0 152 -27.5t116 -75.5t73.5 -113t25.5 -141t-25.5 -142t-72.5 -115t-114 -77t-150 -28t-150 27.5t-114.5 76t-73.5 114t-26 141.5zM97 346q0 -63 20.5 -117.5t58.5 -94t92 -62.5t122 -23t122 22.5t91.5 62
t57.5 94.5t20 120t-20 119t-58.5 93t-93.5 61t-124 22q-65 0 -118 -22.5t-91 -62t-58.5 -94t-20.5 -118.5zM486 436q-11 11 -32 21.5t-53 10.5q-53 0 -82.5 -35t-29.5 -87q0 -51 30.5 -86t84.5 -35q26 0 48 9t36 22l45 -54q-24 -26 -57 -38.5t-72 -12.5q-46 0 -83 15
t-62.5 41.5t-39 62t-13.5 76.5t14 77t40 62.5t62 41.5t80 15t76 -12.5t55 -32.5z" />
    <glyph glyph-name="ordfeminine" unicode="&#xaa;" horiz-adv-x="352" 
d="M25 417q0 58 37 94.5t99 36.5q31 0 49.5 -7.5t29.5 -16.5v34q0 35 -15.5 55.5t-49.5 20.5q-35 0 -48 -17.5t-14 -40.5h-73q0 53 33 87.5t102 34.5q77 0 109 -40.5t32 -106.5v-262h-68v25q-14 -14 -35 -22.5t-51 -8.5q-59 0 -97.5 35.5t-39.5 98.5zM100 417
q0 -31 19 -50.5t51 -19.5q31 0 51 19t20 51t-20 51.5t-51 19.5q-32 0 -51 -19.5t-19 -51.5z" />
    <glyph glyph-name="guillemotleft" unicode="&#xab;" horiz-adv-x="348" 
d="M16 268l83 164h85l-84 -164l83 -163h-84zM164 268l83 164h85l-84 -164l83 -163h-84z" />
    <glyph glyph-name="registered" unicode="&#xae;" horiz-adv-x="450" 
d="M20 535q0 42 14.5 79t41 64.5t64 43.5t83.5 16q48 0 86.5 -15.5t65.5 -43t41.5 -64.5t14.5 -79t-14.5 -78.5t-41.5 -64.5t-65 -44t-85 -16t-85 15.5t-64.5 42.5t-41 64t-14.5 80zM67 535q0 -34 11 -63t31 -50.5t49.5 -33.5t66.5 -12q75 0 116.5 45t41.5 115q0 71 -42 115
t-118 44q-36 0 -65 -12t-49.5 -33t-31 -50.5t-10.5 -64.5zM206 429h-50v220h76q37 0 55.5 -17.5t18.5 -48.5q0 -20 -9 -34t-22 -21l40 -99h-52l-36 88h-21v-88zM206 559h25q23 0 23 24q0 22 -23 22h-25v-46z" />
    <glyph glyph-name="macron" unicode="&#xaf;" horiz-adv-x="400" 
d="M315 670v-73h-230v73h230z" />
    <glyph glyph-name="degree" unicode="&#xb0;" horiz-adv-x="349" 
d="M22 552q0 32 11 59.5t31 47.5t48 32t62 12q35 0 63.5 -11.5t48.5 -32t30.5 -47.5t10.5 -58q0 -32 -11 -59.5t-30.5 -48t-47.5 -32t-63 -11.5t-63.5 11.5t-48.5 32t-30.5 47.5t-10.5 58zM94 552q0 -35 21.5 -59t59.5 -24t59 24.5t21 59.5q0 36 -21.5 60t-59.5 24
q-37 0 -58.5 -24.5t-21.5 -60.5z" />
    <glyph glyph-name="uni00B2" unicode="&#xb2;" horiz-adv-x="306" 
d="M31 394l125 118q20 19 30.5 34.5t10.5 35.5t-11.5 33t-33.5 13q-28 0 -37 -16.5t-8 -32.5h-74q-1 19 4.5 40t19 38.5t37 29t58.5 11.5q60 0 91.5 -31.5t31.5 -80.5q0 -35 -15 -59t-42 -48l-77 -77h138v-67h-248v59z" />
    <glyph glyph-name="uni00B3" unicode="&#xb3;" horiz-adv-x="311" 
d="M175 627h-130v65h218v-63l-77 -77q17 -1 34 -8t30 -20t21 -31.5t8 -44.5q0 -53 -35 -86t-93 -33q-33 0 -56.5 9.5t-39 25.5t-23 37.5t-7.5 45.5h75q0 -25 13.5 -39t38.5 -14q23 0 36.5 13.5t13.5 38.5t-15 37.5t-42 12.5h-46v53z" />
    <glyph glyph-name="acute" unicode="&#xb4;" horiz-adv-x="476" 
d="M290 579h-92l78 135h94z" />
    <glyph glyph-name="paragraph" unicode="&#xb6;" horiz-adv-x="441" 
d="M164 418q-30 1 -56 11t-45.5 28t-30.5 43t-11 56q0 63 41.5 99.5t109.5 36.5h71v-692h-79v418zM309 0v692h78v-692h-78z" />
    <glyph glyph-name="periodcentered" unicode="&#xb7;" horiz-adv-x="190" 
d="M94 261q-28 0 -47 19t-19 48t18.5 48t47.5 19t48 -19t19 -48t-19 -48t-48 -19z" />
    <glyph glyph-name="cedilla" unicode="&#xb8;" horiz-adv-x="400" 
d="M129 -191h21q23 0 39 11t16 37q0 25 -14.5 36.5t-40.5 11.5h-21v112h60v-56q46 -9 66 -37t20 -67q0 -54 -35.5 -81.5t-90.5 -27.5h-20v61z" />
    <glyph glyph-name="uni00B9" unicode="&#xb9;" horiz-adv-x="181" 
d="M57 335v288l-41 -17v65l47 21h70v-357h-76z" />
    <glyph glyph-name="ordmasculine" unicode="&#xba;" horiz-adv-x="446" 
d="M16 491q0 46 16 84t43.5 65.5t65.5 42.5t82 15q45 0 83 -15.5t65 -42.5t42.5 -65t15.5 -83t-15.5 -83t-43.5 -65.5t-65.5 -43t-81.5 -15.5q-45 0 -83 15t-65.5 42t-43 65t-15.5 84zM95 491q0 -60 36 -97t92 -37q57 0 92 37t35 97q0 29 -9.5 54t-26.5 43t-40.5 28
t-50.5 10q-57 0 -92.5 -37.5t-35.5 -97.5z" />
    <glyph glyph-name="guillemotright" unicode="&#xbb;" horiz-adv-x="348" 
d="M184 269l-84 -164h-84l84 164l-84 163h84zM332 269l-84 -164h-84l84 164l-84 163h84z" />
    <glyph glyph-name="onequarter" unicode="&#xbc;" horiz-adv-x="654" 
d="M5 0l516 692h82l-516 -692h-82zM92 335v288l-41 -17v65l47 21h70v-357h-76zM578 0h-74v93h-169v65l168 200h75v-198h40v-67h-40v-93zM504 160v109l-93 -109h93z" />
    <glyph glyph-name="onehalf" unicode="&#xbd;" horiz-adv-x="674" 
d="M5 0l516 692h82l-516 -692h-82zM92 335v288l-41 -17v65l47 21h70v-357h-76zM390 59l125 118q20 19 30 34.5t10 35.5t-11.5 33t-33.5 13q-28 0 -36.5 -16.5t-8.5 -32.5h-74q-1 19 4.5 40t19.5 38.5t37.5 29t57.5 11.5q60 0 91.5 -31.5t31.5 -80.5q0 -35 -15 -59.5
t-41 -48.5l-78 -76h138v-67h-247v59z" />
    <glyph glyph-name="threequarters" unicode="&#xbe;" horiz-adv-x="727" 
d="M185 627h-130v65h218v-63l-77 -77q17 -1 34 -8t30 -20t21 -31.5t8 -44.5q0 -53 -35 -86t-93 -33q-33 0 -56.5 9.5t-39 25.5t-23 37.5t-7.5 45.5h75q0 -25 13.5 -39t38.5 -14q23 0 36.5 13.5t13.5 38.5t-15 37.5t-42 12.5h-46v53zM78 0l516 692h82l-516 -692h-82zM652 0
h-75v93h-169v65l169 200h75v-198h39v-67h-39v-93zM577 160v109l-93 -109h93z" />
    <glyph glyph-name="questiondown" unicode="&#xbf;" horiz-adv-x="462" 
d="M245 599q27 0 46.5 -19t19.5 -47q0 -29 -19.5 -48t-46.5 -19q-28 0 -47.5 19t-19.5 48q0 28 19.5 47t47.5 19zM292 420v-227h-53q-51 0 -84.5 -27t-33.5 -82q0 -51 30 -82.5t81 -31.5q35 0 57 13t34 32.5t16 41t4 39.5h95q1 -25 -6 -61t-29.5 -69t-63.5 -56t-107 -23
q-51 0 -90 15t-65.5 41.5t-40 62t-13.5 76.5q0 38 12.5 70.5t35.5 56.5t55 38.5t71 17.5v155h95z" />
    <glyph glyph-name="Agrave" unicode="&#xc0;" horiz-adv-x="631" 
d="M345 734h-81l-70 112h85zM181 228l-86 -228h-97l260 692h103l272 -692h-103l-89 228h-260zM408 312l-99 255l-97 -255h196z" />
    <glyph glyph-name="Aacute" unicode="&#xc1;" horiz-adv-x="631" 
d="M352 744h-83l67 112h86zM181 228l-86 -228h-97l260 692h103l272 -692h-103l-89 228h-260zM408 312l-99 255l-97 -255h196z" />
    <glyph glyph-name="Acircumflex" unicode="&#xc2;" horiz-adv-x="631" 
d="M448 735h-82l-58 61l-57 -61h-83l96 112h88zM181 228l-86 -228h-97l260 692h103l272 -692h-103l-89 228h-260zM408 312l-99 255l-97 -255h196z" />
    <glyph glyph-name="Atilde" unicode="&#xc3;" horiz-adv-x="631" 
d="M363 753q-18 0 -31.5 6t-25.5 13t-23 13.5t-23 6.5q-30 -2 -30 -38h-62q-2 44 21.5 73.5t66.5 30.5q18 0 31.5 -6t24.5 -13t22 -13t23 -6q28 0 30 38h62q1 -48 -22.5 -76.5t-63.5 -28.5zM181 228l-86 -228h-97l260 692h103l272 -692h-103l-89 228h-260zM408 312l-99 255
l-97 -255h196z" />
    <glyph glyph-name="Adieresis" unicode="&#xc4;" horiz-adv-x="631" 
d="M215 736q-25 0 -42 16.5t-17 42.5q0 25 17 42t42 17q26 0 43.5 -17t17.5 -42q0 -26 -18 -42.5t-43 -16.5zM402 736q-25 0 -42 16.5t-17 42.5q0 25 17 42t42 17q26 0 43.5 -17t17.5 -42q0 -26 -18 -42.5t-43 -16.5zM181 228l-86 -228h-97l260 692h103l272 -692h-103
l-89 228h-260zM408 312l-99 255l-97 -255h196z" />
    <glyph glyph-name="Aring" unicode="&#xc5;" horiz-adv-x="631" 
d="M206 817q0 45 28.5 73.5t73.5 28.5q49 0 77 -28.5t28 -71.5q0 -44 -28 -72.5t-76 -28.5q-46 0 -74.5 28.5t-28.5 70.5zM262 818q0 -21 12.5 -34.5t34.5 -13.5q23 0 35.5 13.5t12.5 35.5q0 21 -12.5 34.5t-35.5 13.5q-22 0 -34.5 -13.5t-12.5 -35.5zM181 228l-86 -228h-97
l260 692h103l272 -692h-103l-89 228h-260zM408 312l-99 255l-97 -255h196z" />
    <glyph glyph-name="AE" unicode="&#xc6;" horiz-adv-x="772" 
d="M432 200h-216l-112 -200h-108l393 692h345v-91h-204v-200h198v-90h-198v-220h206v-91h-304v200zM432 585l-169 -300h169v300z" />
    <glyph glyph-name="Ccedilla" unicode="&#xc7;" horiz-adv-x="624" 
d="M297 -191h21q23 0 39 11t16 37q0 25 -14.5 36.5t-40.5 11.5h-21v91q-62 13 -112 44t-85.5 77t-54.5 104t-19 125q0 78 26 144t73 114t112 75t144 27q68 0 124.5 -21t98.5 -59l-58 -72q-30 26 -72 43.5t-93 17.5q-58 0 -104.5 -20t-79.5 -56t-50.5 -85t-17.5 -108
q0 -58 19 -107.5t52.5 -85t80.5 -55.5t103 -20q60 0 101.5 22t68.5 46l57 -68q-17 -17 -40 -33.5t-51.5 -29t-63 -20.5t-73.5 -8h-12t-14 1v-27q46 -9 66 -37t20 -67q0 -54 -35.5 -81.5t-90.5 -27.5h-20v61z" />
    <glyph glyph-name="Egrave" unicode="&#xc8;" horiz-adv-x="393" 
d="M234 734h-81l-70 112h85zM54 692h301v-91h-203v-200h198v-90h-198v-220h206v-91h-304v692z" />
    <glyph glyph-name="Eacute" unicode="&#xc9;" horiz-adv-x="393" 
d="M241 744h-83l67 112h86zM54 692h301v-91h-203v-200h198v-90h-198v-220h206v-91h-304v692z" />
    <glyph glyph-name="Ecircumflex" unicode="&#xca;" horiz-adv-x="393" 
d="M337 735h-82l-58 61l-57 -61h-83l96 112h88zM54 692h301v-91h-203v-200h198v-90h-198v-220h206v-91h-304v692z" />
    <glyph glyph-name="Edieresis" unicode="&#xcb;" horiz-adv-x="393" 
d="M115 736q-25 0 -42 16.5t-17 42.5q0 25 17 42t42 17q26 0 43.5 -17t17.5 -42q0 -26 -18 -42.5t-43 -16.5zM302 736q-25 0 -42 16.5t-17 42.5q0 25 17 42t42 17q26 0 43.5 -17t17.5 -42q0 -26 -18 -42.5t-43 -16.5zM54 692h301v-91h-203v-200h198v-90h-198v-220h206v-91
h-304v692z" />
    <glyph glyph-name="Igrave" unicode="&#xcc;" horiz-adv-x="206" 
d="M140 734h-81l-70 112h85zM54 0v692h98v-692h-98z" />
    <glyph glyph-name="Iacute" unicode="&#xcd;" horiz-adv-x="206" 
d="M147 744h-83l67 112h86zM54 0v692h98v-692h-98z" />
    <glyph glyph-name="Icircumflex" unicode="&#xce;" horiz-adv-x="206" 
d="M251 729h-89l-59 69l-59 -69h-90l100 126h97zM54 0v692h98v-692h-98z" />
    <glyph glyph-name="Idieresis" unicode="&#xcf;" horiz-adv-x="206" 
d="M19 736q-25 0 -42 16.5t-17 42.5q0 25 17 42t42 17q26 0 43.5 -17t17.5 -42q0 -26 -18 -42.5t-43 -16.5zM186 736q-26 0 -42.5 16.5t-16.5 42.5q0 25 16.5 42t42.5 17q25 0 43 -17t18 -42q0 -26 -18 -42.5t-43 -16.5zM54 0v692h98v-692h-98z" />
    <glyph glyph-name="Eth" unicode="&#xd0;" horiz-adv-x="562" 
d="M180 692q84 0 149.5 -24.5t111.5 -69.5t70 -108.5t24 -142.5q0 -78 -24 -142t-70 -109.5t-112 -70.5t-149 -25h-115v307h-56v91h56v294h115zM283 398v-91h-120v-219h21q119 -1 183.5 67.5t64.5 190.5t-64 190.5t-184 67.5h-21v-206h120z" />
    <glyph glyph-name="Ntilde" unicode="&#xd1;" horiz-adv-x="657" 
d="M405 736q-19 0 -34.5 6.5t-28.5 15t-25.5 15t-26.5 6.5q-16 0 -24.5 -11t-8.5 -31h-70q-2 49 24.5 82.5t74.5 33.5q20 0 35 -6.5t27.5 -14.5t24.5 -14.5t26 -6.5q31 0 33 42h70q1 -53 -25.5 -85t-71.5 -32zM150 0h-96v692h101l352 -531v531h96v-692h-99l-354 525v-525z
" />
    <glyph glyph-name="Ograve" unicode="&#xd2;" horiz-adv-x="761" 
d="M418 734h-81l-70 112h85zM26 346q0 78 26.5 144t73.5 114t112 75t141 27q79 0 144.5 -27t112.5 -75t73 -114t26 -143t-26 -143t-73 -114t-112.5 -75.5t-143.5 -27.5t-143.5 26.5t-112 74.5t-72.5 114t-26 144zM129 346q0 -59 18.5 -108t51.5 -84.5t79.5 -55.5t101.5 -20
q57 0 103.5 20t79.5 55.5t51 85t18 107.5q0 59 -18.5 108t-51.5 85t-79.5 56t-102.5 20q-57 0 -103 -20t-79 -56t-51 -85t-18 -108z" />
    <glyph glyph-name="Oacute" unicode="&#xd3;" horiz-adv-x="761" 
d="M425 744h-83l67 112h86zM26 346q0 78 26.5 144t73.5 114t112 75t141 27q79 0 144.5 -27t112.5 -75t73 -114t26 -143t-26 -143t-73 -114t-112.5 -75.5t-143.5 -27.5t-143.5 26.5t-112 74.5t-72.5 114t-26 144zM129 346q0 -59 18.5 -108t51.5 -84.5t79.5 -55.5t101.5 -20
q57 0 103.5 20t79.5 55.5t51 85t18 107.5q0 59 -18.5 108t-51.5 85t-79.5 56t-102.5 20q-57 0 -103 -20t-79 -56t-51 -85t-18 -108z" />
    <glyph glyph-name="Ocircumflex" unicode="&#xd4;" horiz-adv-x="761" 
d="M521 735h-82l-58 61l-57 -61h-83l96 112h88zM26 346q0 78 26.5 144t73.5 114t112 75t141 27q79 0 144.5 -27t112.5 -75t73 -114t26 -143t-26 -143t-73 -114t-112.5 -75.5t-143.5 -27.5t-143.5 26.5t-112 74.5t-72.5 114t-26 144zM129 346q0 -59 18.5 -108t51.5 -84.5
t79.5 -55.5t101.5 -20q57 0 103.5 20t79.5 55.5t51 85t18 107.5q0 59 -18.5 108t-51.5 85t-79.5 56t-102.5 20q-57 0 -103 -20t-79 -56t-51 -85t-18 -108z" />
    <glyph glyph-name="Otilde" unicode="&#xd5;" horiz-adv-x="761" 
d="M436 753q-18 0 -31.5 6t-25.5 13t-23 13.5t-23 6.5q-30 -2 -30 -38h-62q-2 44 21.5 73.5t66.5 30.5q18 0 31.5 -6t24.5 -13t22 -13t23 -6q28 0 30 38h62q1 -48 -22.5 -76.5t-63.5 -28.5zM26 346q0 78 26.5 144t73.5 114t112 75t141 27q79 0 144.5 -27t112.5 -75t73 -114
t26 -143t-26 -143t-73 -114t-112.5 -75.5t-143.5 -27.5t-143.5 26.5t-112 74.5t-72.5 114t-26 144zM129 346q0 -59 18.5 -108t51.5 -84.5t79.5 -55.5t101.5 -20q57 0 103.5 20t79.5 55.5t51 85t18 107.5q0 59 -18.5 108t-51.5 85t-79.5 56t-102.5 20q-57 0 -103 -20t-79 -56
t-51 -85t-18 -108z" />
    <glyph glyph-name="Odieresis" unicode="&#xd6;" horiz-adv-x="761" 
d="M287 736q-25 0 -42 16.5t-17 42.5q0 25 17 42t42 17q26 0 43.5 -17t17.5 -42q0 -26 -18 -42.5t-43 -16.5zM474 736q-25 0 -42 16.5t-17 42.5q0 25 17 42t42 17q26 0 43.5 -17t17.5 -42q0 -26 -18 -42.5t-43 -16.5zM26 346q0 78 26.5 144t73.5 114t112 75t141 27
q79 0 144.5 -27t112.5 -75t73 -114t26 -143t-26 -143t-73 -114t-112.5 -75.5t-143.5 -27.5t-143.5 26.5t-112 74.5t-72.5 114t-26 144zM129 346q0 -59 18.5 -108t51.5 -84.5t79.5 -55.5t101.5 -20q57 0 103.5 20t80 55.5t51.5 85t18 107.5q0 59 -18.5 108t-52 85t-80 56
t-102.5 20q-57 0 -103 -20t-79 -56t-51 -85t-18 -108z" />
    <glyph glyph-name="multiply" unicode="&#xd7;" horiz-adv-x="406" 
d="M203 392l126 126l56 -56l-126 -127l128 -128l-57 -56l-128 127l-126 -126l-56 56l126 126l-127 127l58 58z" />
    <glyph glyph-name="Oslash" unicode="&#xd8;" horiz-adv-x="761" 
d="M26 346q0 78 26.5 143.5t73.5 113.5t111.5 75t140.5 27q59 0 111 -15.5t92 -44.5l53 61l65 -56l-52 -61q39 -45 63 -106.5t24 -135.5q0 -77 -26 -142.5t-73.5 -113.5t-112.5 -75.5t-143 -27.5q-60 0 -111.5 16t-90.5 44l-54 -63l-64 55l54 62q-42 47 -64.5 109t-22.5 135
zM128 346q0 -50 13 -92.5t37 -76.5l343 398q-30 20 -65.5 30.5t-76.5 10.5q-57 0 -103 -20t-79 -56t-51 -85.5t-18 -108.5zM633 346q0 50 -13.5 92.5t-37.5 77.5l-344 -398q30 -20 65 -30.5t77 -10.5q57 0 103.5 20t79.5 55.5t51.5 85t18.5 108.5z" />
    <glyph glyph-name="Ugrave" unicode="&#xd9;" horiz-adv-x="624" 
d="M349 734h-81l-70 112h85zM312 -13q-67 0 -116 19.5t-81.5 55.5t-48.5 86.5t-16 112.5v431h98v-431q0 -82 39.5 -132.5t125.5 -50.5q81 0 122.5 51.5t41.5 132.5v430h97v-431q0 -60 -17.5 -110t-50.5 -86.5t-82 -57t-112 -20.5z" />
    <glyph glyph-name="Uacute" unicode="&#xda;" horiz-adv-x="624" 
d="M356 744h-83l67 112h86zM312 -13q-67 0 -116 19.5t-81.5 55.5t-48.5 86.5t-16 112.5v431h98v-431q0 -82 39.5 -132.5t125.5 -50.5q81 0 122.5 51.5t41.5 132.5v430h97v-431q0 -60 -17.5 -110t-50.5 -86.5t-82 -57t-112 -20.5z" />
    <glyph glyph-name="Ucircumflex" unicode="&#xdb;" horiz-adv-x="624" 
d="M470 729h-92l-65 68l-64 -68h-93l108 126h98zM312 -13q-67 0 -116 19.5t-81.5 55.5t-48.5 86.5t-16 112.5v431h98v-431q0 -82 39.5 -132.5t125.5 -50.5q81 0 122.5 51.5t41.5 132.5v430h97v-431q0 -60 -17.5 -110t-50.5 -86.5t-82 -57t-112 -20.5z" />
    <glyph glyph-name="Udieresis" unicode="&#xdc;" horiz-adv-x="624" 
d="M218 736q-25 0 -42 16.5t-17 42.5q0 25 17 42t42 17q26 0 43.5 -17t17.5 -42q0 -26 -18 -42.5t-43 -16.5zM405 736q-25 0 -42 16.5t-17 42.5q0 25 17 42t42 17q26 0 43.5 -17t17.5 -42q0 -26 -18 -42.5t-43 -16.5zM312 -13q-67 0 -116 19.5t-81.5 55.5t-48.5 86.5
t-16 112.5v431h98v-431q0 -82 39.5 -132.5t125.5 -50.5q81 0 122.5 51.5t41.5 132.5v430h97v-431q0 -60 -17.5 -110t-50.5 -86.5t-82 -57t-112 -20.5z" />
    <glyph glyph-name="Yacute" unicode="&#xdd;" horiz-adv-x="481" 
d="M285 744h-83l67 112h86zM106 692l137 -241l137 241h105l-196 -336v-356h-98v355l-195 337h110z" />
    <glyph glyph-name="Thorn" unicode="&#xde;" horiz-adv-x="460" 
d="M436 355q0 -46 -14.5 -82t-41.5 -61t-64.5 -38t-82.5 -13h-81v-161h-98v692h98v-148h81q97 0 150 -47.5t53 -141.5zM152 248h76q53 0 79.5 28.5t26.5 78.5q0 48 -26.5 75.5t-79.5 27.5h-76v-210z" />
    <glyph glyph-name="germandbls" unicode="&#xdf;" horiz-adv-x="506" 
d="M223 81q31 0 60 9t51.5 28t36 49t13.5 71t-13.5 71t-36 49t-51.5 28t-59 9h-13v79h15q42 0 69 25t27 67t-24 66.5t-66 24.5q-25 0 -42 -9t-27 -23.5t-14.5 -33t-4.5 -38.5v-553h-95v548q0 38 9.5 72t31.5 60t57 41.5t87 15.5q46 0 80.5 -13t57 -35t33.5 -52t11 -65
q0 -46 -20 -76.5t-47 -45.5q27 -12 51 -30.5t42 -44.5t28.5 -60t10.5 -76q0 -58 -19.5 -103t-53.5 -75.5t-81 -46t-102 -14.5h-14v81h12z" />
    <glyph glyph-name="agrave" unicode="&#xe0;" 
d="M348 577h-81l-70 112h85zM482 79q-9 -13 -25 -28.5t-39 -29t-53.5 -22t-67.5 -8.5q-60 0 -110.5 20t-86.5 56t-56 87t-20 113q0 60 20 110.5t56.5 87.5t86.5 58t110 21t109 -23.5t75 -58.5v73h91v-535h-90v79zM120 267q0 -42 13 -77t37 -60.5t57.5 -39.5t73.5 -14t73 14
t57 39.5t37 60.5t13 77t-13.5 77t-37.5 60.5t-57 40t-73 14.5t-73 -14.5t-57 -40t-37 -60.5t-13 -77z" />
    <glyph glyph-name="aacute" unicode="&#xe1;" 
d="M355 587h-83l67 112h86zM482 79q-9 -13 -25 -28.5t-39 -29t-53.5 -22t-67.5 -8.5q-60 0 -110.5 20t-86.5 56t-56 87t-20 113q0 60 20 110.5t56.5 87.5t86.5 58t110 21t109 -23.5t75 -58.5v73h91v-535h-90v79zM120 267q0 -42 13 -77t37 -60.5t57.5 -39.5t73.5 -14t73 14
t57 39.5t37 60.5t13 77t-13.5 77t-37.5 60.5t-57 40t-73 14.5t-73 -14.5t-57 -40t-37 -60.5t-13 -77z" />
    <glyph glyph-name="acircumflex" unicode="&#xe2;" 
d="M451 578h-82l-58 61l-57 -61h-83l96 112h88zM482 79q-9 -13 -25 -28.5t-39 -29t-53.5 -22t-67.5 -8.5q-60 0 -110.5 20t-86.5 56t-56 87t-20 113q0 60 20 110.5t56.5 87.5t86.5 58t110 21t109 -23.5t75 -58.5v73h91v-535h-90v79zM120 267q0 -42 13 -77t37 -60.5
t57.5 -39.5t73.5 -14t73 14t57 39.5t37 60.5t13 77t-13.5 77t-37.5 60.5t-57 40t-73 14.5t-73 -14.5t-57 -40t-37 -60.5t-13 -77z" />
    <glyph glyph-name="atilde" unicode="&#xe3;" 
d="M366 596q-18 0 -31.5 6t-25.5 13t-23 13.5t-23 6.5q-30 -2 -30 -38h-62q-2 44 21.5 73.5t66.5 30.5q18 0 31.5 -6t24.5 -13t22 -13t23 -6q28 0 30 38h62q1 -48 -22.5 -76.5t-63.5 -28.5zM482 79q-9 -13 -25 -28.5t-39 -29t-53.5 -22t-67.5 -8.5q-60 0 -110.5 20t-86.5 56
t-56 87t-20 113q0 60 20 110.5t56.5 87.5t86.5 58t110 21t109 -23.5t75 -58.5v73h91v-535h-90v79zM120 267q0 -42 13 -77t37 -60.5t57.5 -39.5t73.5 -14t73 14t57 39.5t37 60.5t13 77t-13.5 77t-37.5 60.5t-57 40t-73 14.5t-73 -14.5t-57 -40t-37 -60.5t-13 -77z" />
    <glyph glyph-name="adieresis" unicode="&#xe4;" horiz-adv-x="459" 
d="M138 590q-25 0 -42 17t-17 42t17 42t42 17q26 0 43.5 -17t17.5 -42t-18 -42t-43 -17zM309 590q-26 0 -43 17t-17 42t17 42t43 17q25 0 42.5 -17t17.5 -42t-18 -42t-42 -17zM26 171q0 38 13 70.5t37 56t57.5 36.5t73.5 13q41 0 69 -11.5t42 -24.5v45q0 52 -23.5 80
t-71.5 28q-49 0 -68.5 -26t-20.5 -59h-89q1 71 45 116.5t134 45.5q51 0 86.5 -14t58 -39.5t33 -62t10.5 -80.5v-345h-84v42q-19 -22 -48.5 -36t-72.5 -14q-38 0 -71 12.5t-57.5 36t-38.5 56.5t-14 74zM118 171q0 -43 27.5 -72t72.5 -29q44 0 73 29t29 72q0 44 -29 72t-74 28
t-72 -28.5t-27 -71.5z" />
    <glyph glyph-name="aring" unicode="&#xe5;" horiz-adv-x="459" 
d="M121 662q0 44 28.5 72.5t73.5 28.5q49 0 77 -28.5t28 -70.5q0 -45 -28 -73.5t-76 -28.5q-46 0 -74.5 28.5t-28.5 71.5zM175 662q0 -21 13.5 -35t35.5 -14q24 0 37 14t13 37q0 20 -13 34.5t-37 14.5q-23 0 -36 -14.5t-13 -36.5zM26 171q0 38 13 70.5t37 56t57.5 36.5
t73.5 13q41 0 69 -11.5t42 -24.5v45q0 52 -23.5 80t-71.5 28q-49 0 -68.5 -26t-20.5 -59h-89q1 71 45 116.5t134 45.5q51 0 86.5 -14t58 -39.5t33 -62t10.5 -80.5v-345h-84v42q-19 -22 -48.5 -36t-72.5 -14q-38 0 -71 12.5t-57.5 36t-38.5 56.5t-14 74zM118 171
q0 -43 27.5 -72t72.5 -29q44 0 73 29t29 72q0 44 -29 72t-74 28t-72 -28.5t-27 -71.5z" />
    <glyph glyph-name="ae" unicode="&#xe6;" horiz-adv-x="849" 
d="M580 -7q-68 0 -121.5 25t-87.5 71q-7 -15 -19 -32.5t-30.5 -32t-45 -24t-62.5 -9.5q-40 0 -74.5 12.5t-60 35.5t-39.5 55.5t-14 73.5q0 38 13 70.5t36.5 55.5t57 36t74.5 13q38 0 66 -10.5t43 -24.5v48q0 51 -22 79.5t-70 28.5q-24 0 -41 -7t-27 -19t-14.5 -27.5
t-4.5 -31.5h-89q0 35 11 64.5t33 51t55 34t78 12.5q61 0 99 -24.5t55 -66.5q29 41 77.5 66.5t113.5 25.5q59 0 106.5 -18.5t81 -52t52.5 -82t20 -108.5q0 -7 -0.5 -19.5t-1.5 -23.5h-418q1 -34 13.5 -63.5t34.5 -51.5t53 -34t69 -12q63 0 102 30t62 78l73 -39
q-13 -31 -34 -58.5t-50 -48.5t-67.5 -33.5t-85.5 -12.5zM569 460q-34 0 -62 -12t-48.5 -32t-32.5 -47.5t-14 -57.5h318q-3 70 -47.5 109.5t-113.5 39.5zM117 170q0 -44 28 -72.5t73 -28.5t74 28.5t29 72.5q0 45 -29 73.5t-75 28.5t-73 -29t-27 -73z" />
    <glyph glyph-name="ccedilla" unicode="&#xe7;" horiz-adv-x="509" 
d="M224 -191h21q23 0 39 11t16 37q0 25 -14.5 36.5t-40.5 11.5h-21v94q-46 11 -83 35.5t-63.5 59.5t-40.5 79t-14 94q0 59 20.5 109.5t57 88t86.5 58.5t109 21q39 0 71 -8t56.5 -20.5t42.5 -28t29 -29.5l-59 -60q-21 23 -54.5 41.5t-84.5 18.5q-40 0 -72.5 -14.5t-55.5 -40
t-36 -60.5t-13 -76q0 -43 14 -78t38 -60t56.5 -38.5t69.5 -13.5q27 0 48.5 6t38.5 15t30.5 19.5t23.5 20.5l56 -59q-12 -14 -30 -29.5t-42.5 -28.5t-56 -21.5t-69.5 -8.5h-13v-30q46 -9 66 -37t20 -67q0 -54 -35.5 -81.5t-90.5 -27.5h-20v61z" />
    <glyph glyph-name="egrave" unicode="&#xe8;" horiz-adv-x="566" 
d="M320 577h-81l-70 112h85zM122 239q5 -76 51 -119.5t122 -43.5q64 0 102.5 29t64.5 77l73 -38q-13 -31 -34.5 -58.5t-51.5 -48.5t-68.5 -33.5t-85.5 -12.5q-60 0 -110 19.5t-86 55.5t-55.5 86.5t-19.5 113.5q0 61 19.5 112t54 88t82.5 57.5t105 20.5q59 0 107 -18.5
t82 -52.5t53 -82.5t20 -108.5v-19.5t-2 -23.5h-423zM284 462q-66 0 -108 -39t-51 -107h323q-5 66 -49.5 106t-114.5 40z" />
    <glyph glyph-name="eacute" unicode="&#xe9;" horiz-adv-x="566" 
d="M327 587h-83l67 112h86zM122 239q5 -76 51 -119.5t122 -43.5q64 0 102.5 29t64.5 77l73 -38q-13 -31 -34.5 -58.5t-51.5 -48.5t-68.5 -33.5t-85.5 -12.5q-60 0 -110 19.5t-86 55.5t-55.5 86.5t-19.5 113.5q0 61 19.5 112t54 88t82.5 57.5t105 20.5q59 0 107 -18.5
t82 -52.5t53 -82.5t20 -108.5v-19.5t-2 -23.5h-423zM284 462q-66 0 -108 -39t-51 -107h323q-5 66 -49.5 106t-114.5 40z" />
    <glyph glyph-name="ecircumflex" unicode="&#xea;" horiz-adv-x="566" 
d="M423 578h-82l-58 61l-57 -61h-83l96 112h88zM122 239q5 -76 51 -119.5t122 -43.5q64 0 102.5 29t64.5 77l73 -38q-13 -31 -34.5 -58.5t-51.5 -48.5t-68.5 -33.5t-85.5 -12.5q-60 0 -110 19.5t-86 55.5t-55.5 86.5t-19.5 113.5q0 61 19.5 112t54 88t82.5 57.5t105 20.5
q59 0 107 -18.5t82 -52.5t53 -82.5t20 -108.5v-19.5t-2 -23.5h-423zM284 462q-66 0 -108 -39t-51 -107h323q-5 66 -49.5 106t-114.5 40z" />
    <glyph glyph-name="edieresis" unicode="&#xeb;" horiz-adv-x="566" 
d="M199 590q-25 0 -42 17t-17 42t17 42t42 17q26 0 43.5 -17t17.5 -42t-18 -42t-43 -17zM370 590q-26 0 -43 17t-17 42t17 42t43 17q25 0 42.5 -17t17.5 -42t-18 -42t-42 -17zM122 239q5 -76 51 -119.5t122 -43.5q64 0 102.5 29t64.5 77l73 -38q-13 -31 -34.5 -58.5
t-51.5 -48.5t-68.5 -33.5t-85.5 -12.5q-60 0 -110 19.5t-86 55.5t-55.5 86.5t-19.5 113.5q0 61 19.5 112t54 88t82.5 57.5t105 20.5q59 0 107 -18.5t82 -52.5t53 -82.5t20 -108.5v-19.5t-2 -23.5h-423zM284 462q-66 0 -108 -39t-51 -107h323q-5 66 -49.5 106t-114.5 40z" />
    <glyph glyph-name="igrave" unicode="&#xec;" horiz-adv-x="192" 
d="M133 577h-81l-70 112h85zM49 0v535h95v-535h-95z" />
    <glyph glyph-name="iacute" unicode="&#xed;" horiz-adv-x="192" 
d="M140 587h-83l67 112h86zM49 0v535h95v-535h-95z" />
    <glyph glyph-name="icircumflex" unicode="&#xee;" horiz-adv-x="193" 
d="M236 575h-85l-55 80l-54 -80h-85l92 140h94zM49 0v535h95v-535h-95z" />
    <glyph glyph-name="idieresis" unicode="&#xef;" horiz-adv-x="193" 
d="M19 590q-26 0 -43 17t-17 42t17 42t43 17q25 0 42.5 -17t17.5 -42t-17.5 -42t-42.5 -17zM175 590q-26 0 -43 17t-17 42t17 42t43 17q25 0 42.5 -17t17.5 -42t-18 -42t-42 -17zM49 0v535h95v-535h-95z" />
    <glyph glyph-name="eth" unicode="&#xf0;" horiz-adv-x="601" 
d="M416 711l20 -69l-74 -22l97 -98q60 -60 89.5 -120t29.5 -133q0 -60 -21 -111t-57.5 -88t-87 -58t-110.5 -21t-110.5 20t-88 56t-58.5 86.5t-21 111.5q0 63 21.5 113t58.5 85.5t86.5 54t104.5 18.5q9 0 18 -1t15 -3l-56 61l-130 -39l-21 68l97 29l-74 80h110l52 -54z
M120 265q0 -42 13.5 -76.5t37.5 -59.5t57.5 -39t72.5 -14q40 0 73 14t57 39t37 59.5t13 76.5q0 41 -13.5 76t-37.5 60.5t-57 40t-73 14.5t-73 -14t-57 -39.5t-37 -60.5t-13 -77z" />
    <glyph glyph-name="ntilde" unicode="&#xf1;" horiz-adv-x="479" 
d="M298 582q-20 0 -34.5 6.5t-27.5 15t-25 15t-26 6.5q-16 0 -23 -11t-8 -31h-70q-1 49 24 82.5t73 33.5q20 0 35 -6.5t27.5 -15t24 -15t25.5 -6.5q30 0 30 43h70q1 -53 -24.5 -85t-70.5 -32zM337 343q0 54 -23 83.5t-72 29.5q-48 0 -73 -31.5t-25 -84.5v-340h-95v535h95
v-48q11 17 40.5 35.5t80.5 18.5q46 0 77.5 -14.5t51.5 -40t29 -60t9 -73.5v-353h-95v343z" />
    <glyph glyph-name="ograve" unicode="&#xf2;" horiz-adv-x="600" 
d="M337 577h-81l-70 112h85zM24 267q0 61 21 112t58 87.5t87.5 57t109.5 20.5q60 0 111 -20.5t87.5 -57.5t57 -87.5t20.5 -110.5t-21 -111t-58 -87.5t-88 -57.5t-110 -21q-60 0 -110.5 20t-87 56.5t-57 87.5t-20.5 112zM120 267q0 -42 13.5 -76.5t37.5 -60t57 -39.5t72 -14
q40 0 73 14t57 39.5t37 60t13 76.5q0 41 -13.5 76t-37.5 60.5t-57 40t-72 14.5q-40 0 -73 -14t-57 -39.5t-37 -60.5t-13 -77z" />
    <glyph glyph-name="oacute" unicode="&#xf3;" horiz-adv-x="600" 
d="M344 587h-83l67 112h86zM24 267q0 61 21 112t58 87.5t87.5 57t109.5 20.5q60 0 111 -20.5t87.5 -57.5t57 -87.5t20.5 -110.5t-21 -111t-58 -87.5t-88 -57.5t-110 -21q-60 0 -110.5 20t-87 56.5t-57 87.5t-20.5 112zM120 267q0 -42 13.5 -76.5t37.5 -60t57 -39.5t72 -14
q40 0 73 14t57 39.5t37 60t13 76.5q0 41 -13.5 76t-37.5 60.5t-57 40t-72 14.5q-40 0 -73 -14t-57 -39.5t-37 -60.5t-13 -77z" />
    <glyph glyph-name="ocircumflex" unicode="&#xf4;" horiz-adv-x="600" 
d="M440 578h-82l-58 61l-57 -61h-83l96 112h88zM24 267q0 61 21 112t58 87.5t87.5 57t109.5 20.5q60 0 111 -20.5t87.5 -57.5t57 -87.5t20.5 -110.5t-21 -111t-58 -87.5t-88 -57.5t-110 -21q-60 0 -110.5 20t-87 56.5t-57 87.5t-20.5 112zM120 267q0 -42 13.5 -76.5
t37.5 -60t57 -39.5t72 -14q40 0 73 14t57 39.5t37 60t13 76.5q0 41 -13.5 76t-37.5 60.5t-57 40t-72 14.5q-40 0 -73 -14t-57 -39.5t-37 -60.5t-13 -77z" />
    <glyph glyph-name="otilde" unicode="&#xf5;" horiz-adv-x="600" 
d="M355 596q-18 0 -31.5 6t-25.5 13t-23 13.5t-23 6.5q-30 -2 -30 -38h-62q-2 44 21.5 73.5t66.5 30.5q18 0 31.5 -6t24.5 -13t22 -13t23 -6q28 0 30 38h62q1 -48 -22.5 -76.5t-63.5 -28.5zM24 267q0 61 21 112t58 87.5t87.5 57t109.5 20.5q60 0 111 -20.5t87.5 -57.5
t57 -87.5t20.5 -110.5t-21 -111t-58 -87.5t-88 -57.5t-110 -21q-60 0 -110.5 20t-87 56.5t-57 87.5t-20.5 112zM120 267q0 -42 13.5 -76.5t37.5 -60t57 -39.5t72 -14q40 0 73 14t57 39.5t37 60t13 76.5q0 41 -13.5 76t-37.5 60.5t-57 40t-72 14.5q-40 0 -73 -14t-57 -39.5
t-37 -60.5t-13 -77z" />
    <glyph glyph-name="odieresis" unicode="&#xf6;" horiz-adv-x="600" 
d="M213 590q-25 0 -42 17t-17 42t17 42t42 17q26 0 43.5 -17t17.5 -42t-18 -42t-43 -17zM384 590q-26 0 -43 17t-17 42t17 42t43 17q25 0 42.5 -17t17.5 -42t-18 -42t-42 -17zM24 267q0 61 21 112t58 87.5t87.5 57t109.5 20.5q60 0 111 -20.5t87.5 -57.5t57 -87.5
t20.5 -110.5t-21 -111t-58 -87.5t-88 -57.5t-110 -21q-60 0 -110.5 20t-87 56.5t-57 87.5t-20.5 112zM120 267q0 -42 13.5 -76.5t37.5 -60t57 -39.5t72 -14q40 0 73 14t57 39.5t37 60t13 76.5q0 41 -13.5 76t-37.5 60.5t-57 40t-72 14.5q-40 0 -73 -14t-57 -39.5t-37 -60.5
t-13 -77z" />
    <glyph glyph-name="divide" unicode="&#xf7;" horiz-adv-x="462" 
d="M231 440q-26 0 -44.5 18t-18.5 45q0 26 18 44t45 18t44.5 -18t17.5 -44q0 -27 -18 -45t-44 -18zM439 377v-80h-415v80h415zM231 104q-26 0 -44.5 18.5t-18.5 44.5t18 44.5t45 18.5t44.5 -18.5t17.5 -44.5t-18 -44.5t-44 -18.5z" />
    <glyph glyph-name="oslash" unicode="&#xf8;" horiz-adv-x="600" 
d="M24 267q0 61 21 112t58 87.5t87.5 57t109.5 20.5q45 0 83 -12t69 -32l41 48l56 -48l-40 -47q32 -36 49.5 -83t17.5 -102q0 -60 -21 -111t-58 -87.5t-88 -57.5t-110 -21q-90 0 -151 42l-41 -47l-55 46l40 47q-32 35 -50 83t-18 105zM118 267q0 -69 34 -118l244 285
q-21 13 -45 20t-51 7q-41 0 -74.5 -14.5t-57.5 -40t-37 -61.5t-13 -78zM482 267q0 66 -33 116l-245 -284q40 -25 96 -25q41 0 74.5 14.5t57.5 40t37 61t13 77.5z" />
    <glyph glyph-name="ugrave" unicode="&#xf9;" horiz-adv-x="475" 
d="M275 577h-81l-70 112h85zM141 193q0 -54 22.5 -83.5t70.5 -29.5t72.5 31.5t24.5 84.5v339h96v-535h-95v49q-12 -19 -41 -37t-79 -18q-45 0 -76.5 14.5t-51.5 40t-29 59.5t-9 74v353h95v-342z" />
    <glyph glyph-name="uacute" unicode="&#xfa;" horiz-adv-x="475" 
d="M282 587h-83l67 112h86zM141 193q0 -54 22.5 -83.5t70.5 -29.5t72.5 31.5t24.5 84.5v339h96v-535h-95v49q-12 -19 -41 -37t-79 -18q-45 0 -76.5 14.5t-51.5 40t-29 59.5t-9 74v353h95v-342z" />
    <glyph glyph-name="ucircumflex" unicode="&#xfb;" horiz-adv-x="475" 
d="M386 575h-87l-62 79l-62 -79h-87l101 140h95zM141 193q0 -54 22.5 -83.5t70.5 -29.5t72.5 31.5t24.5 84.5v339h96v-535h-95v49q-12 -19 -41 -37t-79 -18q-45 0 -76.5 14.5t-51.5 40t-29 59.5t-9 74v353h95v-342z" />
    <glyph glyph-name="udieresis" unicode="&#xfc;" horiz-adv-x="475" 
d="M150 590q-25 0 -42 17t-17 42t17 42t42 17q26 0 43.5 -17t17.5 -42t-18 -42t-43 -17zM321 590q-26 0 -43 17t-17 42t17 42t43 17q25 0 42.5 -17t17.5 -42t-18 -42t-42 -17zM141 193q0 -54 22.5 -83.5t70.5 -29.5t72.5 31.5t24.5 84.5v339h96v-535h-95v49q-12 -19 -41 -37
t-79 -18q-45 0 -76.5 14.5t-51.5 40t-29 59.5t-9 74v353h95v-342z" />
    <glyph glyph-name="yacute" unicode="&#xfd;" horiz-adv-x="512" 
d="M300 587h-83l67 112h86zM214 10l-216 525h105l160 -398l152 398h99l-278 -710h-93z" />
    <glyph glyph-name="thorn" unicode="&#xfe;" 
d="M49 -176v907h95v-270q24 31 71 57t114 26q60 0 109.5 -20t85 -56.5t54.5 -87t19 -112.5q0 -58 -19.5 -109t-55 -88t-86 -58.5t-113.5 -21.5q-35 0 -64 8t-51.5 19.5t-38.5 25t-25 24.5v-244h-95zM140 267q0 -42 13 -77t37 -60.5t57.5 -39.5t73.5 -14t73 14t57 39.5
t37 60.5t13 77t-13 77t-37 60.5t-57.5 40t-73.5 14.5t-73 -14.5t-57 -40t-37 -60.5t-13 -77z" />
    <glyph glyph-name="ydieresis" unicode="&#xff;" horiz-adv-x="512" 
d="M176 590q-25 0 -42 17t-17 42t17 42t42 17q26 0 43.5 -17t17.5 -42t-18 -42t-43 -17zM347 590q-26 0 -43 17t-17 42t17 42t43 17q25 0 42.5 -17t17.5 -42t-18 -42t-42 -17zM214 10l-216 525h105l160 -398l152 398h99l-278 -710h-93z" />
    <glyph glyph-name="Amacron" unicode="&#x100;" horiz-adv-x="631" 
d="M429 818v-73h-240v73h240zM181 228l-86 -228h-97l260 692h103l272 -692h-103l-89 228h-260zM408 312l-99 255l-97 -255h196z" />
    <glyph glyph-name="amacron" unicode="&#x101;" horiz-adv-x="459" 
d="M341 670v-73h-230v73h230zM26 171q0 38 13 70.5t37 56t57.5 36.5t73.5 13q41 0 69 -11.5t42 -24.5v45q0 52 -23.5 80t-71.5 28q-49 0 -68.5 -26t-20.5 -59h-89q1 71 45 116.5t134 45.5q51 0 86.5 -14t58 -39.5t33 -62t10.5 -80.5v-345h-84v42q-19 -22 -48.5 -36
t-72.5 -14q-38 0 -71 12.5t-57.5 36t-38.5 56.5t-14 74zM118 171q0 -43 27.5 -72t72.5 -29q44 0 73 29t29 72q0 44 -29 72t-74 28t-72 -28.5t-27 -71.5z" />
    <glyph glyph-name="Abreve" unicode="&#x102;" horiz-adv-x="631" 
d="M309 737q-35 0 -58.5 11t-38 28t-21 37t-6.5 38h68q1 -16 12.5 -33.5t43.5 -17.5t43.5 17.5t12.5 33.5h66q0 -18 -6.5 -38t-21 -37t-38 -28t-56.5 -11zM181 228l-86 -228h-97l260 692h103l272 -692h-103l-89 228h-260zM408 312l-99 255l-97 -255h196z" />
    <glyph glyph-name="abreve" unicode="&#x103;" 
d="M312 580q-35 0 -58.5 11t-38 28t-21 37t-6.5 38h68q1 -16 12.5 -33.5t43.5 -17.5t43.5 17.5t12.5 33.5h66q0 -18 -6.5 -38t-21 -37t-38 -28t-56.5 -11zM482 79q-9 -13 -25 -28.5t-39 -29t-53.5 -22t-67.5 -8.5q-60 0 -110.5 20t-86.5 56t-56 87t-20 113q0 60 20 110.5
t56.5 87.5t86.5 58t110 21t109 -23.5t75 -58.5v73h91v-535h-90v79zM120 267q0 -42 13 -77t37 -60.5t57.5 -39.5t73.5 -14t73 14t57 39.5t37 60.5t13 77t-13.5 77t-37.5 60.5t-57 40t-73 14.5t-73 -14.5t-57 -40t-37 -60.5t-13 -77z" />
    <glyph glyph-name="Aogonek" unicode="&#x104;" horiz-adv-x="631" 
d="M181 228l-86 -228h-97l260 692h103l273 -695q-32 -10 -44.5 -25.5t-12.5 -33.5q0 -23 17 -33t40 -11v-69q-73 -2 -109 25.5t-36 69.5q0 23 10.5 44.5t30.5 35.5l-89 228h-260zM408 312l-99 255l-97 -255h196z" />
    <glyph glyph-name="aogonek" unicode="&#x105;" horiz-adv-x="459" 
d="M26 171q0 38 13 70.5t37 56t57.5 36.5t73.5 13q41 0 69 -11.5t42 -24.5v45q0 52 -23.5 80t-71.5 28q-49 0 -68.5 -26t-20.5 -59h-89q1 71 45 116.5t134 45.5q51 0 86.5 -14t58 -39.5t33 -62t10.5 -80.5v-348q-32 -10 -44 -25.5t-12 -34.5q0 -23 16 -33.5t40 -10.5v-69
q-74 -3 -109.5 24.5t-35.5 70.5q0 25 14 48t47 40v35q-19 -22 -48.5 -36t-72.5 -14q-38 0 -71 12.5t-57.5 36t-38.5 56.5t-14 74zM118 171q0 -43 27.5 -72t72.5 -29q44 0 73 29t29 72q0 44 -29 72t-74 28t-72 -28.5t-27 -71.5z" />
    <glyph glyph-name="Cacute" unicode="&#x106;" horiz-adv-x="624" 
d="M411 729h-93l75 126h96zM611 78q-17 -17 -40 -33.5t-51.5 -29t-63 -20.5t-73.5 -8q-80 0 -146 27t-113 74.5t-72.5 113.5t-25.5 144t26 144t73 114t112 75t144 27q68 0 124.5 -21t98.5 -59l-58 -72q-30 26 -72 43.5t-93 17.5q-58 0 -104.5 -20t-79.5 -56t-50.5 -85
t-17.5 -108q0 -58 19 -107.5t52.5 -85t80.5 -55.5t103 -20q60 0 101.5 22t68.5 46z" />
    <glyph glyph-name="cacute" unicode="&#x107;" horiz-adv-x="509" 
d="M331 579h-92l78 135h94zM298 77q27 0 48.5 6t38.5 15t30.5 19.5t23.5 20.5l56 -59q-12 -14 -30 -29.5t-42.5 -28.5t-56 -21.5t-69.5 -8.5q-62 0 -112.5 21t-86.5 58t-55.5 87.5t-19.5 109.5t20.5 109.5t57 88t86.5 58.5t109 21q39 0 71 -8t56.5 -20.5t42.5 -28t29 -29.5
l-59 -60q-21 23 -54.5 41.5t-84.5 18.5q-40 0 -72.5 -14.5t-55.5 -40t-36 -60.5t-13 -76q0 -43 14 -78t38 -60t56.5 -38.5t69.5 -13.5z" />
    <glyph glyph-name="Ccircumflex" unicode="&#x108;" horiz-adv-x="624" 
d="M521 729h-92l-65 68l-64 -68h-93l108 126h98zM611 78q-17 -17 -40 -33.5t-51.5 -29t-63 -20.5t-73.5 -8q-80 0 -146 27t-113 74.5t-72.5 113.5t-25.5 144t26 144t73 114t112 75t144 27q68 0 124.5 -21t98.5 -59l-58 -72q-30 26 -72 43.5t-93 17.5q-58 0 -104.5 -20
t-79.5 -56t-50.5 -85t-17.5 -108q0 -58 19 -107.5t52.5 -85t80.5 -55.5t103 -20q60 0 101.5 22t68.5 46z" />
    <glyph glyph-name="ccircumflex" unicode="&#x109;" horiz-adv-x="509" 
d="M432 575h-87l-62 79l-62 -79h-87l101 140h95zM298 77q27 0 48.5 6t38.5 15t30.5 19.5t23.5 20.5l56 -59q-12 -14 -30 -29.5t-42.5 -28.5t-56 -21.5t-69.5 -8.5q-62 0 -112.5 21t-86.5 58t-55.5 87.5t-19.5 109.5t20.5 109.5t57 88t86.5 58.5t109 21q39 0 71 -8
t56.5 -20.5t42.5 -28t29 -29.5l-59 -60q-21 23 -54.5 41.5t-84.5 18.5q-40 0 -72.5 -14.5t-55.5 -40t-36 -60.5t-13 -76q0 -43 14 -78t38 -60t56.5 -38.5t69.5 -13.5z" />
    <glyph glyph-name="Cdotaccent" unicode="&#x10a;" horiz-adv-x="624" 
d="M366 741q-26 0 -44 17.5t-18 43.5t17.5 43.5t43.5 17.5t44 -17.5t18 -43.5t-17.5 -43.5t-43.5 -17.5zM611 78q-17 -17 -40 -33.5t-51.5 -29t-63 -20.5t-73.5 -8q-80 0 -146 27t-113 74.5t-72.5 113.5t-25.5 144t26 144t73 114t112 75t144 27q68 0 124.5 -21t98.5 -59
l-58 -72q-30 26 -72 43.5t-93 17.5q-58 0 -104.5 -20t-79.5 -56t-50.5 -85t-17.5 -108q0 -58 19 -107.5t52.5 -85t80.5 -55.5t103 -20q60 0 101.5 22t68.5 46z" />
    <glyph glyph-name="cdotaccent" unicode="&#x10b;" horiz-adv-x="509" 
d="M282 589q-26 0 -44 17.5t-18 43.5t17.5 43.5t43.5 17.5t44 -17.5t18 -43.5t-17.5 -43.5t-43.5 -17.5zM298 77q27 0 48.5 6t38.5 15t30.5 19.5t23.5 20.5l56 -59q-12 -14 -30 -29.5t-42.5 -28.5t-56 -21.5t-69.5 -8.5q-62 0 -112.5 21t-86.5 58t-55.5 87.5t-19.5 109.5
t20.5 109.5t57 88t86.5 58.5t109 21q39 0 71 -8t56.5 -20.5t42.5 -28t29 -29.5l-59 -60q-21 23 -54.5 41.5t-84.5 18.5q-40 0 -72.5 -14.5t-55.5 -40t-36 -60.5t-13 -76q0 -43 14 -78t38 -60t56.5 -38.5t69.5 -13.5z" />
    <glyph glyph-name="Ccaron" unicode="&#x10c;" horiz-adv-x="624" 
d="M216 855h92l65 -70l65 70h91l-108 -126h-98zM611 78q-17 -17 -40 -33.5t-51.5 -29t-63 -20.5t-73.5 -8q-80 0 -146 27t-113 74.5t-72.5 113.5t-25.5 144t26 144t73 114t112 75t144 27q68 0 124.5 -21t98.5 -59l-58 -72q-30 26 -72 43.5t-93 17.5q-58 0 -104.5 -20
t-79.5 -56t-50.5 -85t-17.5 -108q0 -58 19 -107.5t52.5 -85t80.5 -55.5t103 -20q60 0 101.5 22t68.5 46z" />
    <glyph glyph-name="ccaron" unicode="&#x10d;" horiz-adv-x="509" 
d="M132 718h87l62 -80l62 80h87l-102 -140h-95zM298 77q27 0 48.5 6t38.5 15t30.5 19.5t23.5 20.5l56 -59q-12 -14 -30 -29.5t-42.5 -28.5t-56 -21.5t-69.5 -8.5q-62 0 -112.5 21t-86.5 58t-55.5 87.5t-19.5 109.5t20.5 109.5t57 88t86.5 58.5t109 21q39 0 71 -8t56.5 -20.5
t42.5 -28t29 -29.5l-59 -60q-21 23 -54.5 41.5t-84.5 18.5q-40 0 -72.5 -14.5t-55.5 -40t-36 -60.5t-13 -76q0 -43 14 -78t38 -60t56.5 -38.5t69.5 -13.5z" />
    <glyph glyph-name="Dcaron" unicode="&#x10e;" horiz-adv-x="550" 
d="M100 855h92l65 -70l65 70h91l-108 -126h-98zM169 692q84 0 149.5 -24.5t111.5 -69.5t70 -108.5t24 -142.5q0 -78 -24 -142t-70 -109.5t-112 -70.5t-149 -25h-115v692h115zM173 88q119 -1 183.5 67.5t64.5 190.5t-64 190.5t-184 67.5h-21v-516h21z" />
    <glyph glyph-name="dcaron" unicode="&#x10f;" 
d="M482 79q-10 -15 -27.5 -31t-41 -28.5t-53 -20.5t-63.5 -8q-60 0 -110.5 20t-86.5 56.5t-56 87.5t-20 112q0 59 20 109.5t56 88t86 58.5t109 21q64 0 110 -23t72 -54v264h95v-731h-90v79zM688 577h-78l14 154h80zM120 267q0 -42 13.5 -77t37.5 -60.5t57 -39.5t72 -14
q40 0 73.5 14t57.5 39.5t37 60.5t13 77t-13.5 77t-37.5 60.5t-57 40t-73 14.5t-73 -14.5t-57 -40t-37 -60.5t-13 -77z" />
    <glyph glyph-name="Dcroat" unicode="&#x110;" horiz-adv-x="562" 
d="M180 692q84 0 149.5 -24.5t111.5 -69.5t70 -108.5t24 -142.5q0 -78 -24 -142t-70 -109.5t-112 -70.5t-149 -25h-115v307h-56v91h56v294h115zM283 398v-91h-120v-219h21q119 -1 183.5 67.5t64.5 190.5t-64 190.5t-184 67.5h-21v-206h120z" />
    <glyph glyph-name="dcroat" unicode="&#x111;" horiz-adv-x="628" 
d="M477 662v69h95v-69h52v-71h-52v-591h-90v79q-10 -15 -27.5 -31t-41 -28.5t-53 -20.5t-63.5 -8q-60 0 -110.5 20t-86.5 56.5t-56 87.5t-20 112q0 59 20 109.5t56 88t86 58.5t109 21q64 0 110 -23t72 -54v124h-126v71h126zM120 267q0 -42 13.5 -77t37.5 -60.5t57 -39.5
t72 -14q40 0 73.5 14t57.5 39.5t37 60.5t13 77t-13.5 77t-37.5 60.5t-57 40t-73 14.5t-73 -14.5t-57 -40t-37 -60.5t-13 -77z" />
    <glyph glyph-name="Emacron" unicode="&#x112;" horiz-adv-x="393" 
d="M329 818v-73h-240v73h240zM54 692h301v-91h-203v-200h198v-90h-198v-220h206v-91h-304v692z" />
    <glyph glyph-name="emacron" unicode="&#x113;" horiz-adv-x="566" 
d="M400 670v-73h-230v73h230zM122 239q5 -76 51 -119.5t122 -43.5q64 0 102.5 29t64.5 77l73 -38q-13 -31 -34.5 -58.5t-51.5 -48.5t-68.5 -33.5t-85.5 -12.5q-60 0 -110 19.5t-86 55.5t-55.5 86.5t-19.5 113.5q0 61 19.5 112t54 88t82.5 57.5t105 20.5q59 0 107 -18.5
t82 -52.5t53 -82.5t20 -108.5v-19.5t-2 -23.5h-423zM284 462q-66 0 -108 -39t-51 -107h323q-5 66 -49.5 106t-114.5 40z" />
    <glyph glyph-name="Ebreve" unicode="&#x114;" horiz-adv-x="393" 
d="M208 730q-39 0 -65.5 12.5t-42.5 31.5t-23.5 41.5t-7.5 41.5h76q0 -9 3.5 -19t10.5 -18.5t19 -14t30 -5.5t30 5.5t19 14t10.5 18.5t3.5 19h74q0 -20 -7.5 -42.5t-23.5 -41t-42 -31t-64 -12.5zM54 692h301v-91h-203v-200h198v-90h-198v-220h206v-91h-304v692z" />
    <glyph glyph-name="ebreve" unicode="&#x115;" horiz-adv-x="566" 
d="M286 571q-39 0 -65.5 13t-42.5 33t-23 43.5t-7 43.5h74q0 -10 3.5 -21.5t10.5 -21.5t19.5 -16t30.5 -6t30 6t19.5 16t11 21.5t3.5 21.5h72q0 -21 -7 -44t-23 -43t-42 -33t-64 -13zM122 239q5 -76 51 -119.5t122 -43.5q64 0 102.5 29t64.5 77l73 -38q-13 -31 -34.5 -58.5
t-51.5 -48.5t-68.5 -33.5t-85.5 -12.5q-60 0 -110 19.5t-86 55.5t-55.5 86.5t-19.5 113.5q0 61 19.5 112t54 88t82.5 57.5t105 20.5q59 0 107 -18.5t82 -52.5t53 -82.5t20 -108.5v-19.5t-2 -23.5h-423zM284 462q-66 0 -108 -39t-51 -107h323q-5 66 -49.5 106t-114.5 40z" />
    <glyph glyph-name="Edotaccent" unicode="&#x116;" horiz-adv-x="393" 
d="M203 741q-26 0 -44 17.5t-18 43.5t17.5 43.5t43.5 17.5t44 -17.5t18 -43.5t-17.5 -43.5t-43.5 -17.5zM54 692h301v-91h-203v-200h198v-90h-198v-220h206v-91h-304v692z" />
    <glyph glyph-name="edotaccent" unicode="&#x117;" horiz-adv-x="566" 
d="M285 589q-26 0 -44 17.5t-18 43.5t17.5 43.5t43.5 17.5t44 -17.5t18 -43.5t-17.5 -43.5t-43.5 -17.5zM122 239q5 -76 51 -119.5t122 -43.5q64 0 102.5 29t64.5 77l73 -38q-13 -31 -34.5 -58.5t-51.5 -48.5t-68.5 -33.5t-85.5 -12.5q-60 0 -110 19.5t-86 55.5t-55.5 86.5
t-19.5 113.5q0 61 19.5 112t54 88t82.5 57.5t105 20.5q59 0 107 -18.5t82 -52.5t53 -82.5t20 -108.5v-19.5t-2 -23.5h-423zM284 462q-66 0 -108 -39t-51 -107h323q-5 66 -49.5 106t-114.5 40z" />
    <glyph glyph-name="Eogonek" unicode="&#x118;" horiz-adv-x="393" 
d="M318 0q-31 -9 -43.5 -25.5t-12.5 -34.5q0 -24 16.5 -34.5t39.5 -11.5v-69q-73 -2 -109 25.5t-36 69.5q0 23 11 43.5t36 36.5h-166v692h301v-91h-203v-200h198v-90h-198v-220h206v-91h-40z" />
    <glyph glyph-name="eogonek" unicode="&#x119;" horiz-adv-x="566" 
d="M295 -9q-60 0 -110 19.5t-86 55.5t-55.5 86.5t-19.5 113.5q0 61 19.5 112t54 88t82.5 57.5t105 20.5q59 0 107 -18.5t82 -52.5t53 -82.5t20 -108.5v-19.5t-2 -23.5h-423q5 -76 51 -119.5t122 -43.5q64 0 102.5 29t64.5 77l73 -38q-13 -29 -32 -55t-47 -49
q-36 -30 -50.5 -53t-14.5 -46q0 -27 20 -37.5t51 -10.5v-68q-82 -5 -120.5 23t-38.5 69q0 20 9 40t26 37q-21 -3 -43 -3zM284 462q-66 0 -108 -39t-51 -107h323q-5 66 -49.5 106t-114.5 40z" />
    <glyph glyph-name="Ecaron" unicode="&#x11a;" horiz-adv-x="393" 
d="M50 855h92l65 -70l65 70h91l-108 -126h-98zM54 692h301v-91h-203v-200h198v-90h-198v-220h206v-91h-304v692z" />
    <glyph glyph-name="ecaron" unicode="&#x11b;" horiz-adv-x="566" 
d="M137 718h87l62 -80l62 80h87l-102 -140h-95zM122 239q5 -76 51 -119.5t122 -43.5q64 0 102.5 29t64.5 77l73 -38q-13 -31 -34.5 -58.5t-51.5 -48.5t-68.5 -33.5t-85.5 -12.5q-60 0 -110 19.5t-86 55.5t-55.5 86.5t-19.5 113.5q0 61 19.5 112t54 88t82.5 57.5t105 20.5
q59 0 107 -18.5t82 -52.5t53 -82.5t20 -108.5v-19.5t-2 -23.5h-423zM284 462q-66 0 -108 -39t-51 -107h323q-5 66 -49.5 106t-114.5 40z" />
    <glyph glyph-name="Gcircumflex" unicode="&#x11c;" horiz-adv-x="716" 
d="M534 729h-92l-65 68l-64 -68h-93l108 126h98zM572 0v51q-29 -25 -78 -44.5t-115 -19.5q-77 0 -142 26t-112 73.5t-73 113.5t-26 146q0 77 26 143t73 114t112 75.5t143 27.5q52 0 94.5 -10.5t75.5 -27.5t57.5 -39t40.5 -45l-73 -60q-13 17 -31.5 33t-42.5 29t-54 21t-68 8
q-55 0 -101 -20t-79 -55.5t-51.5 -85t-18.5 -108.5q0 -60 19 -109.5t52.5 -84.5t80.5 -54.5t102 -19.5q63 0 110.5 20.5t77.5 51.5v122h-126v84h223v-356h-96z" />
    <glyph glyph-name="gcircumflex" unicode="&#x11d;" horiz-adv-x="620" 
d="M454 575h-87l-62 79l-62 -79h-87l101 140h95zM572 535v-444q0 -75 -21.5 -127.5t-59.5 -85t-89 -47t-110 -14.5q-69 0 -123 18.5t-86 39.5l37 75q26 -17 70 -33.5t103 -16.5q38 0 71 9t58.5 28.5t40 50t14.5 73.5v15q-9 -14 -24.5 -29t-38 -27.5t-51.5 -20.5t-65 -8
q-60 0 -110.5 20t-87 56t-56.5 87t-20 113q0 59 20.5 109.5t56.5 88t86 58.5t109 21q62 0 110 -23t74 -58v72h92zM120 267q0 -42 13.5 -77t37.5 -60.5t57 -39.5t72 -14q40 0 73.5 14t57.5 39.5t37 60.5t13 77t-13.5 77t-37.5 60.5t-57 40t-73 14.5t-73 -14.5t-57 -40
t-37 -60.5t-13 -77z" />
    <glyph glyph-name="Gbreve" unicode="&#x11e;" horiz-adv-x="716" 
d="M368 730q-39 0 -65.5 12.5t-42.5 31.5t-23.5 41.5t-7.5 41.5h76q0 -9 3.5 -19t10.5 -18.5t19 -14t30 -5.5t30 5.5t19 14t10.5 18.5t3.5 19h74q0 -20 -7.5 -42.5t-23.5 -41t-42 -31t-64 -12.5zM572 0v51q-29 -25 -78 -44.5t-115 -19.5q-77 0 -142 26t-112 73.5t-73 113.5
t-26 146q0 77 26 143t73 114t112 75.5t143 27.5q52 0 94.5 -10.5t75.5 -27.5t57.5 -39t40.5 -45l-73 -60q-13 17 -31.5 33t-42.5 29t-54 21t-68 8q-55 0 -101 -20t-79 -55.5t-51.5 -85t-18.5 -108.5q0 -60 19 -109.5t52.5 -84.5t80.5 -54.5t102 -19.5q63 0 110.5 20.5
t77.5 51.5v122h-126v84h223v-356h-96z" />
    <glyph glyph-name="gbreve" unicode="&#x11f;" horiz-adv-x="620" 
d="M301 571q-39 0 -65.5 13t-42.5 33t-23 43.5t-7 43.5h74q0 -10 3.5 -21.5t10.5 -21.5t19.5 -16t30.5 -6t30 6t19.5 16t11 21.5t3.5 21.5h72q0 -21 -7 -44t-23 -43t-42 -33t-64 -13zM572 535v-444q0 -75 -21.5 -127.5t-59.5 -85t-89 -47t-110 -14.5q-69 0 -123 18.5
t-86 39.5l37 75q26 -17 70 -33.5t103 -16.5q38 0 71 9t58.5 28.5t40 50t14.5 73.5v15q-9 -14 -24.5 -29t-38 -27.5t-51.5 -20.5t-65 -8q-60 0 -110.5 20t-87 56t-56.5 87t-20 113q0 59 20.5 109.5t56.5 88t86 58.5t109 21q62 0 110 -23t74 -58v72h92zM120 267
q0 -42 13.5 -77t37.5 -60.5t57 -39.5t72 -14q40 0 73.5 14t57.5 39.5t37 60.5t13 77t-13.5 77t-37.5 60.5t-57 40t-73 14.5t-73 -14.5t-57 -40t-37 -60.5t-13 -77z" />
    <glyph glyph-name="Gdotaccent" unicode="&#x120;" horiz-adv-x="716" 
d="M379 741q-26 0 -44 17.5t-18 43.5t17.5 43.5t43.5 17.5t44 -17.5t18 -43.5t-17.5 -43.5t-43.5 -17.5zM572 0v51q-29 -25 -78 -44.5t-115 -19.5q-77 0 -142 26t-112 73.5t-73 113.5t-26 146q0 77 26 143t73 114t112 75.5t143 27.5q52 0 94.5 -10.5t75.5 -27.5t57.5 -39
t40.5 -45l-73 -60q-13 17 -31.5 33t-42.5 29t-54 21t-68 8q-55 0 -101 -20t-79 -55.5t-51.5 -85t-18.5 -108.5q0 -60 19 -109.5t52.5 -84.5t80.5 -54.5t102 -19.5q63 0 110.5 20.5t77.5 51.5v122h-126v84h223v-356h-96z" />
    <glyph glyph-name="gdotaccent" unicode="&#x121;" horiz-adv-x="620" 
d="M299 589q-26 0 -44 17.5t-18 43.5t17.5 43.5t43.5 17.5t44 -17.5t18 -43.5t-17.5 -43.5t-43.5 -17.5zM572 535v-444q0 -75 -21.5 -127.5t-59.5 -85t-89 -47t-110 -14.5q-69 0 -123 18.5t-86 39.5l37 75q26 -17 70 -33.5t103 -16.5q38 0 71 9t58.5 28.5t40 50t14.5 73.5
v15q-9 -14 -24.5 -29t-38 -27.5t-51.5 -20.5t-65 -8q-60 0 -110.5 20t-87 56t-56.5 87t-20 113q0 59 20.5 109.5t56.5 88t86 58.5t109 21q62 0 110 -23t74 -58v72h92zM120 267q0 -42 13.5 -77t37.5 -60.5t57 -39.5t72 -14q40 0 73.5 14t57.5 39.5t37 60.5t13 77t-13.5 77
t-37.5 60.5t-57 40t-73 14.5t-73 -14.5t-57 -40t-37 -60.5t-13 -77z" />
    <glyph glyph-name="Gcommaaccent" unicode="&#x122;" horiz-adv-x="716" 
d="M572 0v51q-29 -25 -78 -44.5t-115 -19.5q-77 0 -142 26t-112 73.5t-73 113.5t-26 146q0 77 26 143t73 114t112 75.5t143 27.5q52 0 94.5 -10.5t75.5 -27.5t57.5 -39t40.5 -45l-73 -60q-13 17 -31.5 33t-42.5 29t-54 21t-68 8q-55 0 -101 -20t-79 -55.5t-51.5 -85
t-18.5 -108.5q0 -60 19 -109.5t52.5 -84.5t80.5 -54.5t102 -19.5q63 0 110.5 20.5t77.5 51.5v122h-126v84h223v-356h-96zM360 -156q-21 5 -34 20.5t-13 38.5q0 26 17.5 43t45.5 17q29 0 45.5 -18t16.5 -44q0 -18 -6 -33t-13 -29l-39 -81h-59z" />
    <glyph glyph-name="gcommaaccent" unicode="&#x123;" horiz-adv-x="620" 
d="M313 692q21 -5 34 -19.5t13 -37.5q0 -26 -17 -43.5t-46 -17.5t-45.5 18t-16.5 43q0 19 6 33.5t13 28.5l39 82h59zM572 535v-444q0 -75 -21.5 -127.5t-59.5 -85t-89 -47t-110 -14.5q-69 0 -123 18.5t-86 39.5l37 75q26 -17 70 -33.5t103 -16.5q38 0 71 9t58.5 28.5t40 50
t14.5 73.5v15q-9 -14 -24.5 -29t-38 -27.5t-51.5 -20.5t-65 -8q-60 0 -110.5 20t-87 56t-56.5 87t-20 113q0 59 20.5 109.5t56.5 88t86 58.5t109 21q62 0 110 -23t74 -58v72h92zM120 267q0 -42 13.5 -77t37.5 -60.5t57 -39.5t72 -14q40 0 73.5 14t57.5 39.5t37 60.5t13 77
t-13.5 77t-37.5 60.5t-57 40t-73 14.5t-73 -14.5t-57 -40t-37 -60.5t-13 -77z" />
    <glyph glyph-name="Hcircumflex" unicode="&#x124;" horiz-adv-x="635" 
d="M473 729h-92l-65 68l-64 -68h-93l108 126h98zM483 0v312h-331v-312h-98v692h98v-287h331v287h98v-692h-98z" />
    <glyph glyph-name="hcircumflex" unicode="&#x125;" horiz-adv-x="479" 
d="M393 765h-92l-65 68l-64 -68h-93l108 126h98zM337 343q0 54 -23 83.5t-72 29.5q-48 0 -73 -31.5t-25 -84.5v-340h-95v731h95v-246q12 18 41 37t80 19q46 0 77.5 -14.5t51.5 -40t29 -60t9 -73.5v-353h-95v343z" />
    <glyph glyph-name="Hbar" unicode="&#x126;" horiz-adv-x="649" 
d="M645 592v-76h-58v-516h-98v312h-331v-312h-98v516h-56v76h56v100h98v-100h331v100h98v-100h58zM489 516h-331v-111h331v111z" />
    <glyph glyph-name="hbar" unicode="&#x127;" horiz-adv-x="486" 
d="M55 662v69h95v-69h122v-71h-122v-106q12 18 41 37t80 19q46 0 77.5 -14.5t51.5 -40t29 -60t9 -73.5v-353h-95v343q0 54 -23 83.5t-72 29.5q-48 0 -73 -31.5t-25 -84.5v-340h-95v591h-51v71h51z" />
    <glyph glyph-name="Itilde" unicode="&#x128;" horiz-adv-x="206" 
d="M158 753q-18 0 -31.5 6t-25.5 13t-23 13.5t-23 6.5q-30 -2 -30 -38h-62q-2 44 21.5 73.5t66.5 30.5q18 0 31.5 -6t24.5 -13t22 -13t23 -6q28 0 30 38h62q1 -48 -22.5 -76.5t-63.5 -28.5zM54 0v692h98v-692h-98z" />
    <glyph glyph-name="itilde" unicode="&#x129;" horiz-adv-x="192" 
d="M151 596q-18 0 -31.5 6t-25.5 13t-23 13.5t-23 6.5q-30 -2 -30 -38h-62q-2 44 21.5 73.5t66.5 30.5q18 0 31.5 -6t24.5 -13t22 -13t23 -6q28 0 30 38h62q1 -48 -22.5 -76.5t-63.5 -28.5zM49 0v535h95v-535h-95z" />
    <glyph glyph-name="Imacron" unicode="&#x12a;" horiz-adv-x="206" 
d="M224 818v-73h-240v73h240zM54 0v692h98v-692h-98z" />
    <glyph glyph-name="imacron" unicode="&#x12b;" horiz-adv-x="193" 
d="M200 670v-73h-207v73h207zM49 0v535h95v-535h-95z" />
    <glyph glyph-name="Ibreve" unicode="&#x12c;" horiz-adv-x="206" 
d="M104 730q-39 0 -65.5 12.5t-42.5 31.5t-23.5 41.5t-7.5 41.5h76q0 -9 3.5 -19t10.5 -18.5t19 -14t30 -5.5t30 5.5t19 14t10.5 18.5t3.5 19h74q0 -20 -7.5 -42.5t-23.5 -41t-42 -31t-64 -12.5zM54 0v692h98v-692h-98z" />
    <glyph glyph-name="ibreve" unicode="&#x12d;" horiz-adv-x="193" 
d="M97 571q-39 0 -65.5 13t-42.5 33t-23 43.5t-7 43.5h74q0 -10 3.5 -21.5t10.5 -21.5t19.5 -16t30.5 -6t30 6t19.5 16t11 21.5t3.5 21.5h72q0 -21 -7 -44t-23 -43t-42 -33t-64 -13zM49 0v535h95v-535h-95z" />
    <glyph glyph-name="Iogonek" unicode="&#x12e;" horiz-adv-x="206" 
d="M152 -3q-28 -11 -38.5 -26.5t-10.5 -32.5q0 -23 16 -33t40 -11v-69q-74 -3 -109.5 24.5t-35.5 69.5q0 49 40 81v692h98v-695z" />
    <glyph glyph-name="iogonek" unicode="&#x12f;" horiz-adv-x="193" 
d="M96 587q-26 0 -44.5 18.5t-18.5 44.5q0 27 18.5 45t44.5 18t45 -18t19 -45q0 -26 -19 -44.5t-45 -18.5zM144 -3q-32 -10 -44.5 -25.5t-12.5 -33.5q0 -23 16.5 -33t40.5 -11v-69q-73 -3 -109 24t-36 71q0 24 11.5 45.5t38.5 39.5v530h95v-538z" />
    <glyph glyph-name="Idotaccent" unicode="&#x130;" horiz-adv-x="206" 
d="M103 741q-26 0 -44 17.5t-18 43.5t17.5 43.5t43.5 17.5t44 -17.5t18 -43.5t-17.5 -43.5t-43.5 -17.5zM54 0v692h98v-692h-98z" />
    <glyph glyph-name="dotlessi" unicode="&#x131;" horiz-adv-x="192" 
d="M49 0v535h95v-535h-95z" />
    <glyph glyph-name="IJ" unicode="&#x132;" horiz-adv-x="468" 
d="M54 0v692h98v-692h-98zM415 142q0 -33 -6 -59t-22 -45t-43.5 -29t-70.5 -10q-14 0 -28 0.5t-20 0.5v89h39q33 0 43 17.5t10 43.5v542h98v-550z" />
    <glyph glyph-name="ij" unicode="&#x133;" horiz-adv-x="385" 
d="M96 587q-26 0 -44.5 18.5t-18.5 44.5q0 27 18.5 45t44.5 18t45 -18t19 -45q0 -26 -19 -44.5t-45 -18.5zM288 587q-26 0 -44.5 18.5t-18.5 44.5q0 27 18.5 45t44.5 18t45 -18t19 -45q0 -26 -19 -44.5t-45 -18.5zM49 0v535h95v-535h-95zM336 -11q0 -37 -7.5 -67.5
t-25.5 -52t-47 -33t-73 -11.5h-31v82h22q22 0 35 6.5t20 17.5t9.5 25.5t2.5 31.5v547h95v-546z" />
    <glyph glyph-name="Jcircumflex" unicode="&#x134;" horiz-adv-x="262" 
d="M302 729h-89l-59 69l-59 -69h-90l99 126h98zM206 142q0 -33 -6 -59t-22 -45t-43.5 -29t-70.5 -10q-14 0 -28 0.5t-20 0.5v89h39q33 0 43 17.5t10 43.5v542h98v-550z" />
    <glyph glyph-name="jcircumflex" unicode="&#x135;" horiz-adv-x="193" 
d="M246 575h-87l-62 79l-62 -79h-87l101 140h95zM144 -11q0 -37 -7.5 -67.5t-25.5 -52t-47 -33t-73 -11.5h-31v82h22q22 0 35 6.5t20 17.5t9.5 25.5t2.5 31.5v547h95v-546z" />
    <glyph glyph-name="Kcommaaccent" unicode="&#x136;" horiz-adv-x="525" 
d="M403 692h117l-282 -330l291 -362h-117l-260 316v-316h-98v692h98v-299zM248 -156q-21 5 -34 20.5t-13 38.5q0 26 17.5 43t45.5 17q29 0 45.5 -18t16.5 -44q0 -18 -6 -33t-13 -29l-39 -81h-59z" />
    <glyph glyph-name="kcommaaccent" unicode="&#x137;" horiz-adv-x="463" 
d="M463 0h-117l-202 251v-251h-95v731h95v-422l196 226h115l-219 -249zM225 -156q-21 5 -34 20.5t-13 38.5q0 26 17.5 43t45.5 17q29 0 45.5 -18t16.5 -44q0 -18 -6 -33t-13 -29l-39 -81h-59z" />
    <glyph glyph-name="Lacute" unicode="&#x139;" horiz-adv-x="374" 
d="M155 729h-93l75 126h96zM54 692h98v-601h201v-91h-299v692z" />
    <glyph glyph-name="lacute" unicode="&#x13a;" horiz-adv-x="193" 
d="M143 765h-93l75 126h96zM49 0v731h95v-731h-95z" />
    <glyph glyph-name="Lcommaaccent" unicode="&#x13b;" horiz-adv-x="374" 
d="M54 692h98v-601h201v-91h-299v692zM185 -156q-21 5 -34 20.5t-13 38.5q0 26 17.5 43t45.5 17q29 0 45.5 -18t16.5 -44q0 -18 -6 -33t-13 -29l-39 -81h-59z" />
    <glyph glyph-name="lcommaaccent" unicode="&#x13c;" horiz-adv-x="193" 
d="M49 0v731h95v-731h-95zM80 -156q-21 5 -34 20.5t-13 38.5q0 26 17.5 43t45.5 17q29 0 45.5 -18t16.5 -44q0 -18 -6 -33t-13 -29l-39 -81h-59z" />
    <glyph glyph-name="Lcaron" unicode="&#x13d;" horiz-adv-x="374" 
d="M54 692h98v-601h201v-91h-299v692zM268 538h-78l14 154h80z" />
    <glyph glyph-name="lcaron" unicode="&#x13e;" horiz-adv-x="193" 
d="M49 0v731h95v-731h-95zM260 577h-78l14 154h80z" />
    <glyph glyph-name="Ldot" unicode="&#x13f;" horiz-adv-x="399" 
d="M54 692h98v-601h201v-91h-299v692zM303 286q-29 0 -48.5 19.5t-19.5 48.5t19.5 48t48.5 19t48 -19t19 -48t-19 -48.5t-48 -19.5z" />
    <glyph glyph-name="ldot" unicode="&#x140;" horiz-adv-x="299" 
d="M49 0v731h95v-731h-95zM181 354q0 27 18.5 45.5t45.5 18.5t45.5 -18.5t18.5 -45.5t-18.5 -45.5t-45.5 -18.5t-45.5 18.5t-18.5 45.5z" />
    <glyph glyph-name="Lslash" unicode="&#x141;" horiz-adv-x="376" 
d="M60 215l-51 -30v90l51 31v386h98v-327l132 81v-95l-132 -78v-182h201v-91h-299v215z" />
    <glyph glyph-name="lslash" unicode="&#x142;" horiz-adv-x="212" 
d="M205 535v-97l-52 -36v-402h-95v338l-49 -33v94l49 34v298h95v-232z" />
    <glyph glyph-name="Nacute" unicode="&#x143;" horiz-adv-x="657" 
d="M371 729h-93l75 126h96zM150 0h-96v692h101l352 -531v531h96v-692h-99l-354 525v-525z" />
    <glyph glyph-name="nacute" unicode="&#x144;" horiz-adv-x="479" 
d="M282 579h-92l78 135h94zM337 343q0 54 -23 83.5t-72 29.5q-48 0 -73 -31.5t-25 -84.5v-340h-95v535h95v-48q11 17 40.5 35.5t80.5 18.5q46 0 77.5 -14.5t51.5 -40t29 -60t9 -73.5v-353h-95v343z" />
    <glyph glyph-name="Ncommaaccent" unicode="&#x145;" horiz-adv-x="657" 
d="M150 0h-96v692h101l352 -531v531h96v-692h-99l-354 525v-525zM321 -156q-21 5 -34 20.5t-13 38.5q0 26 17.5 43t45.5 17q29 0 45.5 -18t16.5 -44q0 -18 -6 -33t-13 -29l-39 -81h-59z" />
    <glyph glyph-name="ncommaaccent" unicode="&#x146;" horiz-adv-x="479" 
d="M337 343q0 54 -23 83.5t-72 29.5q-48 0 -73 -31.5t-25 -84.5v-340h-95v535h95v-48q11 17 40.5 35.5t80.5 18.5q46 0 77.5 -14.5t51.5 -40t29 -60t9 -73.5v-353h-95v343zM229 -156q-21 5 -34 20.5t-13 38.5q0 26 17.5 43t45.5 17q29 0 45.5 -18t16.5 -44q0 -18 -6 -33
t-13 -29l-39 -81h-59z" />
    <glyph glyph-name="Ncaron" unicode="&#x147;" horiz-adv-x="657" 
d="M180 855h92l65 -70l65 70h91l-108 -126h-98zM150 0h-96v692h101l352 -531v531h96v-692h-99l-354 525v-525z" />
    <glyph glyph-name="ncaron" unicode="&#x148;" horiz-adv-x="479" 
d="M91 718h87l62 -80l62 80h87l-102 -140h-95zM337 343q0 54 -23 83.5t-72 29.5q-48 0 -73 -31.5t-25 -84.5v-340h-95v535h95v-48q11 17 40.5 35.5t80.5 18.5q46 0 77.5 -14.5t51.5 -40t29 -60t9 -73.5v-353h-95v343z" />
    <glyph glyph-name="napostrophe" unicode="&#x149;" horiz-adv-x="573" 
d="M41 573q-22 6 -35.5 21.5t-13.5 38.5q0 29 18.5 47.5t47.5 18.5t47.5 -18.5t18.5 -47.5q0 -17 -5 -31.5t-14 -34.5l-42 -98h-67zM431 343q0 54 -23 83.5t-72 29.5q-48 0 -73 -31.5t-25 -84.5v-340h-95v535h95v-48q11 17 40.5 35.5t80.5 18.5q46 0 77.5 -14.5t51.5 -40
t29 -60t9 -73.5v-353h-95v343z" />
    <glyph glyph-name="Eng" unicode="&#x14a;" horiz-adv-x="658" 
d="M150 0h-96v692h102l352 -530v530h96v-728q0 -32 -6.5 -58.5t-22 -45t-43 -28.5t-69.5 -10q-14 0 -26.5 0.5t-17.5 0.5v89h35q31 0 41 15.5t11 38.5v32l-356 527v-525z" />
    <glyph glyph-name="eng" unicode="&#x14b;" horiz-adv-x="479" 
d="M432 -11q0 -37 -7.5 -67.5t-25.5 -52t-47 -33t-73 -11.5h-31v82h22q22 0 35 6.5t20 17.5t9.5 25.5t2.5 31.5v356q0 53 -23 83t-72 30q-48 0 -73 -31.5t-25 -84.5v-341h-95v535h95v-48q11 17 40.5 35.5t80.5 18.5q46 0 77.5 -14.5t51.5 -40t29 -60t9 -73.5v-364z" />
    <glyph glyph-name="Omacron" unicode="&#x14c;" horiz-adv-x="761" 
d="M500 818v-73h-240v73h240zM26 346q0 78 26.5 144t73.5 114t112 75t141 27q79 0 144.5 -27t112.5 -75t73 -114t26 -143t-26 -143t-73 -114t-112.5 -75.5t-143.5 -27.5t-143.5 26.5t-112 74.5t-72.5 114t-26 144zM129 346q0 -59 18.5 -108t51.5 -84.5t79.5 -55.5t101.5 -20
q57 0 103.5 20t80 55.5t51.5 85t18 107.5q0 59 -18.5 108t-52 85t-80 56t-102.5 20q-57 0 -103 -20t-79 -56t-51 -85t-18 -108z" />
    <glyph glyph-name="omacron" unicode="&#x14d;" horiz-adv-x="600" 
d="M414 670v-73h-230v73h230zM24 267q0 61 21 112t58 87.5t87.5 57t109.5 20.5q60 0 111 -20.5t87.5 -57.5t57 -87.5t20.5 -110.5t-21 -111t-58 -87.5t-88 -57.5t-110 -21q-60 0 -110.5 20t-87 56.5t-57 87.5t-20.5 112zM120 267q0 -42 13.5 -76.5t37.5 -60t57 -39.5t72 -14
q40 0 73 14t57 39.5t37 60t13 76.5q0 41 -13.5 76t-37.5 60.5t-57 40t-72 14.5q-40 0 -73 -14t-57 -39.5t-37 -60.5t-13 -77z" />
    <glyph glyph-name="Obreve" unicode="&#x14e;" horiz-adv-x="761" 
d="M382 730q-39 0 -65.5 12.5t-42.5 31.5t-23.5 41.5t-7.5 41.5h76q0 -9 3.5 -19t10.5 -18.5t19 -14t30 -5.5t30 5.5t19 14t10.5 18.5t3.5 19h74q0 -20 -7.5 -42.5t-23.5 -41t-42 -31t-64 -12.5zM26 346q0 78 26.5 144t73.5 114t112 75t141 27q79 0 144.5 -27t112.5 -75
t73 -114t26 -143t-26 -143t-73 -114t-112.5 -75.5t-143.5 -27.5t-143.5 26.5t-112 74.5t-72.5 114t-26 144zM129 346q0 -59 18.5 -108t51.5 -84.5t79.5 -55.5t101.5 -20q57 0 103.5 20t80 55.5t51.5 85t18 107.5q0 59 -18.5 108t-52 85t-80 56t-102.5 20q-57 0 -103 -20
t-79 -56t-51 -85t-18 -108z" />
    <glyph glyph-name="obreve" unicode="&#x14f;" horiz-adv-x="600" 
d="M300 571q-39 0 -65.5 13t-42.5 33t-23 43.5t-7 43.5h74q0 -10 3.5 -21.5t10.5 -21.5t19.5 -16t30.5 -6t30 6t19.5 16t11 21.5t3.5 21.5h72q0 -21 -7 -44t-23 -43t-42 -33t-64 -13zM24 267q0 61 21 112t58 87.5t87.5 57t109.5 20.5q60 0 111 -20.5t87.5 -57.5t57 -87.5
t20.5 -110.5t-21 -111t-58 -87.5t-88 -57.5t-110 -21q-60 0 -110.5 20t-87 56.5t-57 87.5t-20.5 112zM120 267q0 -42 13.5 -76.5t37.5 -60t57 -39.5t72 -14q40 0 73 14t57 39.5t37 60t13 76.5q0 41 -13.5 76t-37.5 60.5t-57 40t-72 14.5q-40 0 -73 -14t-57 -39.5t-37 -60.5
t-13 -77z" />
    <glyph glyph-name="Ohungarumlaut" unicode="&#x150;" horiz-adv-x="761" 
d="M355 729h-90l61 126h92zM505 729h-89l62 126h91zM26 346q0 78 26.5 144t73.5 114t112 75t141 27q79 0 144.5 -27t112.5 -75t73 -114t26 -143t-26 -143t-73 -114t-112.5 -75.5t-143.5 -27.5t-143.5 26.5t-112 74.5t-72.5 114t-26 144zM129 346q0 -59 18.5 -108t51.5 -84.5
t79.5 -55.5t101.5 -20q57 0 103.5 20t80 55.5t51.5 85t18 107.5q0 59 -18.5 108t-52 85t-80 56t-102.5 20q-57 0 -103 -20t-79 -56t-51 -85t-18 -108z" />
    <glyph glyph-name="ohungarumlaut" unicode="&#x151;" horiz-adv-x="600" 
d="M270 579h-89l62 135h92zM419 579h-88l64 135h91zM24 267q0 61 21 112t58 87.5t87.5 57t109.5 20.5q60 0 111 -20.5t87.5 -57.5t57 -87.5t20.5 -110.5t-21 -111t-58 -87.5t-88 -57.5t-110 -21q-60 0 -110.5 20t-87 56.5t-57 87.5t-20.5 112zM120 267q0 -42 13.5 -76.5
t37.5 -60t57 -39.5t72 -14q40 0 73 14t57 39.5t37 60t13 76.5q0 41 -13.5 76t-37.5 60.5t-57 40t-72 14.5q-40 0 -73 -14t-57 -39.5t-37 -60.5t-13 -77z" />
    <glyph glyph-name="OE" unicode="&#x152;" horiz-adv-x="717" 
d="M679 601h-203v-200h198v-90h-198v-220h206v-91h-300q-83 0 -149 25.5t-112 71t-70.5 109.5t-24.5 141t24.5 140t70.5 109t112 71t148 25h298v-91zM378 601q-119 0 -183.5 -68.5t-64.5 -186.5q0 -59 16.5 -106t48.5 -80t78 -51t105 -18v510z" />
    <glyph glyph-name="oe" unicode="&#x153;" horiz-adv-x="1019" 
d="M749 -7q-75 0 -132.5 31t-91.5 88q-35 -57 -94.5 -89t-131.5 -32q-60 0 -110.5 20t-87 56.5t-57 87.5t-20.5 112t21 112t58 87.5t87.5 57t109.5 20.5q74 0 133 -32.5t94 -89.5q32 56 87 88t125 32q58 0 105.5 -18.5t81.5 -52t53 -82t20 -108.5q0 -7 -0.5 -19.5
t-1.5 -23.5h-418q1 -34 13.5 -63.5t34.5 -51.5t53 -34t69 -12q63 0 101.5 30t61.5 78l74 -39q-13 -31 -34 -58.5t-50 -48.5t-67.5 -33.5t-85.5 -12.5zM738 460q-35 0 -63 -12t-48 -32t-32 -47.5t-14 -57.5h318q-3 69 -47.5 109t-113.5 40zM120 267q0 -42 13.5 -76.5
t37.5 -60t57 -39.5t72 -14q40 0 73 14t57 39.5t37 60t13 76.5t-13.5 77t-37.5 60.5t-57 39.5t-72 14q-40 0 -73 -14t-57 -39.5t-37 -60.5t-13 -77z" />
    <glyph glyph-name="Racute" unicode="&#x154;" horiz-adv-x="495" 
d="M264 729h-93l75 126h96zM436 504q0 -64 -28.5 -108t-79.5 -65l174 -331h-105l-163 313h-82v-313h-98v692h179q97 0 150 -47t53 -141zM152 396h76q53 0 79.5 29t26.5 78q0 48 -26.5 75.5t-79.5 27.5h-76v-210z" />
    <glyph glyph-name="racute" unicode="&#x155;" horiz-adv-x="281" 
d="M196 579h-92l78 135h94zM237 439q-49 0 -71 -27t-22 -76v-336h-95v535h95v-52q14 23 42 38.5t77 14.5v-97h-26z" />
    <glyph glyph-name="Rcommaaccent" unicode="&#x156;" horiz-adv-x="496" 
d="M436 504q0 -64 -28.5 -108t-79.5 -65l174 -331h-105l-163 313h-82v-313h-98v692h179q97 0 150 -47t53 -141zM152 396h76q53 0 79.5 29t26.5 78q0 48 -26.5 75.5t-79.5 27.5h-76v-210zM243 -156q-21 5 -34 20.5t-13 38.5q0 26 17.5 43t45.5 17q29 0 45.5 -18t16.5 -44
q0 -18 -6 -33t-13 -29l-39 -81h-59z" />
    <glyph glyph-name="rcommaaccent" unicode="&#x157;" horiz-adv-x="281" 
d="M237 439q-49 0 -71 -27t-22 -76v-336h-95v535h95v-52q14 23 42 38.5t77 14.5v-97h-26zM81 -156q-21 5 -34 20.5t-13 38.5q0 26 17.5 43t45.5 17q29 0 45.5 -18t16.5 -44q0 -18 -6 -33t-13 -29l-39 -81h-59z" />
    <glyph glyph-name="Rcaron" unicode="&#x158;" horiz-adv-x="495" 
d="M76 855h92l65 -70l65 70h91l-108 -126h-98zM436 504q0 -64 -28.5 -108t-79.5 -65l174 -331h-105l-163 313h-82v-313h-98v692h179q97 0 150 -47t53 -141zM152 396h76q53 0 79.5 29t26.5 78q0 48 -26.5 75.5t-79.5 27.5h-76v-210z" />
    <glyph glyph-name="rcaron" unicode="&#x159;" horiz-adv-x="281" 
d="M7 718h87l62 -80l62 80h87l-102 -140h-95zM237 439q-49 0 -71 -27t-22 -76v-336h-95v535h95v-52q14 23 42 38.5t77 14.5v-97h-26z" />
    <glyph glyph-name="Sacute" unicode="&#x15a;" horiz-adv-x="482" 
d="M282 729h-93l75 126h96zM141 527q0 -35 17.5 -57.5t49.5 -38.5q31 -14 63 -26.5t65 -29.5q56 -27 87 -71t31 -113q0 -45 -15.5 -82.5t-43 -64t-67 -41.5t-87.5 -15q-60 0 -101.5 18t-66.5 48.5t-35.5 70t-9.5 82.5h95q0 -28 6.5 -52.5t20.5 -42.5t36.5 -28.5t54.5 -10.5
q49 0 81 27.5t32 81.5q0 42 -20 66.5t-54 41.5q-34 18 -68.5 30.5t-69.5 31.5q-47 26 -72.5 68t-25.5 104q0 38 13.5 71t39 57.5t61.5 38.5t81 14q55 0 92.5 -16.5t60.5 -43.5t32.5 -62t8.5 -73h-90q-2 48 -27.5 79.5t-76.5 31.5q-48 0 -73 -26.5t-25 -67.5z" />
    <glyph glyph-name="sacute" unicode="&#x15b;" horiz-adv-x="399" 
d="M250 579h-92l78 135h94zM123 401q0 -48 54 -68q21 -8 42 -13t43 -13q56 -20 86 -54.5t30 -99.5q0 -39 -14.5 -69t-39 -50t-57.5 -30t-70 -10q-51 0 -85.5 14.5t-55.5 38.5t-30 55.5t-8 65.5h92q0 -19 4.5 -37t15 -31t27.5 -21t42 -8q35 -1 60.5 18t25.5 55q0 33 -16 50
t-46 28q-23 8 -46 14t-49 17q-53 23 -75 58.5t-22 83.5q0 33 12.5 60t35 46t53 29.5t67.5 10.5q85 0 125 -44.5t41 -117.5h-88q-2 41 -21.5 64.5t-58.5 23.5q-34 0 -54 -17.5t-20 -48.5z" />
    <glyph glyph-name="Scircumflex" unicode="&#x15c;" horiz-adv-x="482" 
d="M396 729h-92l-65 68l-64 -68h-93l108 126h98zM141 527q0 -35 17.5 -57.5t49.5 -38.5q31 -14 63 -26.5t65 -29.5q56 -27 87 -71t31 -113q0 -45 -15.5 -82.5t-43 -64t-67 -41.5t-87.5 -15q-60 0 -101.5 18t-66.5 48.5t-35.5 70t-9.5 82.5h95q0 -28 6.5 -52.5t20.5 -42.5
t36.5 -28.5t54.5 -10.5q49 0 81 27.5t32 81.5q0 42 -20 66.5t-54 41.5q-34 18 -68.5 30.5t-69.5 31.5q-47 26 -72.5 68t-25.5 104q0 38 13.5 71t39 57.5t61.5 38.5t81 14q55 0 92.5 -16.5t60.5 -43.5t32.5 -62t8.5 -73h-90q-2 48 -27.5 79.5t-76.5 31.5q-48 0 -73 -26.5
t-25 -67.5z" />
    <glyph glyph-name="scircumflex" unicode="&#x15d;" horiz-adv-x="399" 
d="M348 575h-87l-62 79l-62 -79h-87l101 140h95zM123 401q0 -48 54 -68q21 -8 42 -13t43 -13q56 -20 86 -54.5t30 -99.5q0 -39 -14.5 -69t-39 -50t-57.5 -30t-70 -10q-51 0 -85.5 14.5t-55.5 38.5t-30 55.5t-8 65.5h92q0 -19 4.5 -37t15 -31t27.5 -21t42 -8q35 -1 60.5 18
t25.5 55q0 33 -16 50t-46 28q-23 8 -46 14t-49 17q-53 23 -75 58.5t-22 83.5q0 33 12.5 60t35 46t53 29.5t67.5 10.5q85 0 125 -44.5t41 -117.5h-88q-2 41 -21.5 64.5t-58.5 23.5q-34 0 -54 -17.5t-20 -48.5z" />
    <glyph glyph-name="Scedilla" unicode="&#x15e;" horiz-adv-x="482" 
d="M171 -191h21q23 0 39 11t16 37q0 25 -14.5 36.5t-40.5 11.5h-21v91q-40 9 -67.5 29.5t-44.5 49t-24.5 62.5t-6.5 70h95q0 -28 6.5 -52.5t20.5 -42.5t36.5 -28.5t54.5 -10.5q49 0 81 27.5t32 81.5q0 42 -20 66.5t-54 41.5q-34 18 -68.5 30.5t-69.5 31.5q-47 26 -72.5 68
t-25.5 104q0 38 13.5 71t39 57.5t61.5 38.5t81 14q55 0 92.5 -16.5t60.5 -43.5t32.5 -62t8.5 -73h-90q-2 48 -27.5 79.5t-76.5 31.5q-48 0 -73 -26.5t-25 -67.5q0 -35 17.5 -57.5t49.5 -38.5q31 -14 63 -26.5t65 -29.5q56 -27 87 -71t31 -113q0 -45 -15.5 -82.5t-43 -64
t-67 -41.5t-87.5 -15h-10v-27q46 -9 66 -37t20 -67q0 -54 -35.5 -81.5t-90.5 -27.5h-20v61z" />
    <glyph glyph-name="scedilla" unicode="&#x15f;" horiz-adv-x="399" 
d="M133 -191h21q23 0 39 11t16 37q0 25 -14.5 36.5t-40.5 11.5h-21v96q-64 17 -90 63.5t-25 103.5h92q0 -19 4.5 -37t15 -31t27.5 -21t42 -8q35 -1 60.5 18t25.5 55q0 33 -16 50t-46 28q-23 8 -46 14t-49 17q-53 23 -75 58.5t-22 83.5q0 33 12.5 60t35 46t53 29.5t67.5 10.5
q85 0 125 -44.5t41 -117.5h-88q-2 41 -21.5 64.5t-58.5 23.5q-34 0 -54 -17.5t-20 -48.5q0 -48 54 -68q21 -8 42 -13t43 -13q56 -20 86 -54.5t30 -99.5q0 -39 -14.5 -69t-39 -50t-57.5 -30t-70 -10h-4v-33q46 -9 66 -37t20 -67q0 -54 -35.5 -81.5t-90.5 -27.5h-20v61z" />
    <glyph glyph-name="Scaron" unicode="&#x160;" horiz-adv-x="482" 
d="M84 855h92l65 -70l65 70h91l-108 -126h-98zM141 527q0 -35 17.5 -57.5t49.5 -38.5q31 -14 63 -26.5t65 -29.5q56 -27 87 -71t31 -113q0 -45 -15.5 -82.5t-43 -64t-67 -41.5t-87.5 -15q-60 0 -101.5 18t-66.5 48.5t-35.5 70t-9.5 82.5h95q0 -28 6.5 -52.5t20.5 -42.5
t36.5 -28.5t54.5 -10.5q49 0 81 27.5t32 81.5q0 42 -20 66.5t-54 41.5q-34 18 -68.5 30.5t-69.5 31.5q-47 26 -72.5 68t-25.5 104q0 38 13.5 71t39 57.5t61.5 38.5t81 14q55 0 92.5 -16.5t60.5 -43.5t32.5 -62t8.5 -73h-90q-2 48 -27.5 79.5t-76.5 31.5q-48 0 -73 -26.5
t-25 -67.5z" />
    <glyph glyph-name="scaron" unicode="&#x161;" horiz-adv-x="399" 
d="M51 718h87l62 -80l62 80h87l-102 -140h-95zM123 401q0 -48 54 -68q21 -8 42 -13t43 -13q56 -20 86 -54.5t30 -99.5q0 -39 -14.5 -69t-39 -50t-57.5 -30t-70 -10q-51 0 -85.5 14.5t-55.5 38.5t-30 55.5t-8 65.5h92q0 -19 4.5 -37t15 -31t27.5 -21t42 -8q35 -1 60.5 18
t25.5 55q0 33 -16 50t-46 28q-23 8 -46 14t-49 17q-53 23 -75 58.5t-22 83.5q0 33 12.5 60t35 46t53 29.5t67.5 10.5q85 0 125 -44.5t41 -117.5h-88q-2 41 -21.5 64.5t-58.5 23.5q-34 0 -54 -17.5t-20 -48.5z" />
    <glyph glyph-name="uni0162" unicode="&#x162;" horiz-adv-x="416" 
d="M257 0h-98v601h-142v91h382v-91h-142v-601zM192 -156q-21 5 -34 20.5t-13 38.5q0 26 17.5 43t45.5 17q29 0 45.5 -18t16.5 -44q0 -18 -6 -33t-13 -29l-39 -81h-59z" />
    <glyph glyph-name="uni0163" unicode="&#x163;" horiz-adv-x="277" 
d="M259 535v-81h-99v-301q0 -35 11 -53t49 -18h38v-82q-6 0 -22.5 -2.5t-39.5 -2.5q-74 0 -102.5 35t-28.5 99v325h-54v81h54v82h95v-82h99zM146 -156q-21 5 -34 20.5t-13 38.5q0 26 17.5 43t45.5 17q29 0 45.5 -18t16.5 -44q0 -18 -6 -33t-13 -29l-39 -81h-59z" />
    <glyph glyph-name="Tcaron" unicode="&#x164;" horiz-adv-x="416" 
d="M50 855h92l65 -70l65 70h91l-108 -126h-98zM257 0h-98v601h-142v91h382v-91h-142v-601z" />
    <glyph glyph-name="tcaron" unicode="&#x165;" horiz-adv-x="277" 
d="M281 577h-78l14 154h80zM259 535v-81h-99v-301q0 -35 11 -53t49 -18h38v-82q-6 0 -22.5 -2.5t-39.5 -2.5q-74 0 -102.5 35t-28.5 99v325h-54v81h54v82h95v-82h99z" />
    <glyph glyph-name="Tbar" unicode="&#x166;" horiz-adv-x="416" 
d="M257 430h100v-76h-100v-354h-98v354h-99v76h99v171h-142v91h382v-91h-142v-171z" />
    <glyph glyph-name="tbar" unicode="&#x167;" horiz-adv-x="277" 
d="M259 535v-81h-99v-111h99v-73h-99v-117q0 -35 11 -53t49 -18h38v-82q-6 0 -22.5 -2.5t-39.5 -2.5q-74 0 -102.5 35t-28.5 99v141h-52v73h52v111h-54v81h54v82h95v-82h99z" />
    <glyph glyph-name="Utilde" unicode="&#x168;" horiz-adv-x="624" 
d="M367 753q-18 0 -31.5 6t-25.5 13t-23 13.5t-23 6.5q-30 -2 -30 -38h-62q-2 44 21.5 73.5t66.5 30.5q18 0 31.5 -6t24.5 -13t22 -13t23 -6q28 0 30 38h62q1 -48 -22.5 -76.5t-63.5 -28.5zM312 -13q-67 0 -116 19.5t-81.5 55.5t-48.5 86.5t-16 112.5v431h98v-431
q0 -82 39.5 -132.5t125.5 -50.5q81 0 122.5 51.5t41.5 132.5v430h97v-431q0 -60 -17.5 -110t-50.5 -86.5t-82 -57t-112 -20.5z" />
    <glyph glyph-name="utilde" unicode="&#x169;" horiz-adv-x="475" 
d="M293 596q-18 0 -31.5 6t-25.5 13t-23 13.5t-23 6.5q-30 -2 -30 -38h-62q-2 44 21.5 73.5t66.5 30.5q18 0 31.5 -6t24.5 -13t22 -13t23 -6q28 0 30 38h62q1 -48 -22.5 -76.5t-63.5 -28.5zM141 193q0 -54 22.5 -83.5t70.5 -29.5t72.5 31.5t24.5 84.5v339h96v-535h-95v49
q-12 -19 -41 -37t-79 -18q-45 0 -76.5 14.5t-51.5 40t-29 59.5t-9 74v353h95v-342z" />
    <glyph glyph-name="Umacron" unicode="&#x16a;" horiz-adv-x="624" 
d="M425 827v-73h-230v73h230zM312 -13q-67 0 -116 19.5t-81.5 55.5t-48.5 86.5t-16 112.5v431h98v-431q0 -82 39.5 -132.5t125.5 -50.5q81 0 122.5 51.5t41.5 132.5v430h97v-431q0 -60 -17.5 -110t-50.5 -86.5t-82 -57t-112 -20.5z" />
    <glyph glyph-name="umacron" unicode="&#x16b;" horiz-adv-x="475" 
d="M352 670v-73h-230v73h230zM141 193q0 -54 22.5 -83.5t70.5 -29.5t72.5 31.5t24.5 84.5v339h96v-535h-95v49q-12 -19 -41 -37t-79 -18q-45 0 -76.5 14.5t-51.5 40t-29 59.5t-9 74v353h95v-342z" />
    <glyph glyph-name="Ubreve" unicode="&#x16c;" horiz-adv-x="624" 
d="M312 730q-39 0 -65.5 12.5t-42.5 31.5t-23.5 41.5t-7.5 41.5h76q0 -9 3.5 -19t10.5 -18.5t19 -14t30 -5.5t30 5.5t19 14t10.5 18.5t3.5 19h74q0 -20 -7.5 -42.5t-23.5 -41t-42 -31t-64 -12.5zM312 -13q-67 0 -116 19.5t-81.5 55.5t-48.5 86.5t-16 112.5v431h98v-431
q0 -82 39.5 -132.5t125.5 -50.5q81 0 122.5 51.5t41.5 132.5v430h97v-431q0 -60 -17.5 -110t-50.5 -86.5t-82 -57t-112 -20.5z" />
    <glyph glyph-name="ubreve" unicode="&#x16d;" horiz-adv-x="475" 
d="M236 571q-39 0 -65.5 13t-42.5 33t-23 43.5t-7 43.5h74q0 -10 3.5 -21.5t10.5 -21.5t19.5 -16t30.5 -6t30 6t19.5 16t11 21.5t3.5 21.5h72q0 -21 -7 -44t-23 -43t-42 -33t-64 -13zM141 193q0 -54 22.5 -83.5t70.5 -29.5t72.5 31.5t24.5 84.5v339h96v-535h-95v49
q-12 -19 -41 -37t-79 -18q-45 0 -76.5 14.5t-51.5 40t-29 59.5t-9 74v353h95v-342z" />
    <glyph glyph-name="Uring" unicode="&#x16e;" horiz-adv-x="624" 
d="M208 817q0 45 28.5 73.5t73.5 28.5q49 0 77 -28.5t28 -71.5q0 -44 -28 -72.5t-76 -28.5q-46 0 -74.5 28.5t-28.5 70.5zM264 818q0 -21 12.5 -34.5t34.5 -13.5q23 0 35.5 13.5t12.5 35.5q0 21 -12.5 34.5t-35.5 13.5q-22 0 -34.5 -13.5t-12.5 -35.5zM312 -13
q-67 0 -116 19.5t-81.5 55.5t-48.5 86.5t-16 112.5v431h98v-431q0 -82 39.5 -132.5t125.5 -50.5q81 0 122.5 51.5t41.5 132.5v430h97v-431q0 -60 -17.5 -110t-50.5 -86.5t-82 -57t-112 -20.5z" />
    <glyph glyph-name="uring" unicode="&#x16f;" horiz-adv-x="475" 
d="M134 662q0 44 28.5 72.5t73.5 28.5q49 0 77 -28.5t28 -70.5q0 -45 -28 -73.5t-76 -28.5q-46 0 -74.5 28.5t-28.5 71.5zM188 662q0 -21 13.5 -35t35.5 -14q24 0 37 14t13 37q0 20 -13 34.5t-37 14.5q-23 0 -36 -14.5t-13 -36.5zM141 193q0 -54 22.5 -83.5t70.5 -29.5
t72.5 31.5t24.5 84.5v339h96v-535h-95v49q-12 -19 -41 -37t-79 -18q-45 0 -76.5 14.5t-51.5 40t-29 59.5t-9 74v353h95v-342z" />
    <glyph glyph-name="Uhungarumlaut" unicode="&#x170;" horiz-adv-x="624" 
d="M273 729h-90l61 126h92zM423 729h-89l62 126h91zM312 -13q-67 0 -116 19.5t-81.5 55.5t-48.5 86.5t-16 112.5v431h98v-431q0 -82 39.5 -132.5t125.5 -50.5q81 0 122.5 51.5t41.5 132.5v430h97v-431q0 -60 -17.5 -110t-50.5 -86.5t-82 -57t-112 -20.5z" />
    <glyph glyph-name="uhungarumlaut" unicode="&#x171;" horiz-adv-x="475" 
d="M201 579h-89l62 135h92zM350 579h-88l64 135h91zM141 193q0 -54 22.5 -83.5t70.5 -29.5t72.5 31.5t24.5 84.5v339h96v-535h-95v49q-12 -19 -41 -37t-79 -18q-45 0 -76.5 14.5t-51.5 40t-29 59.5t-9 74v353h95v-342z" />
    <glyph glyph-name="Uogonek" unicode="&#x172;" horiz-adv-x="624" 
d="M405 1q-35 -11 -47 -28.5t-12 -34.5q0 -21 16 -32t41 -12v-69q-74 -3 -110 24.5t-36 68.5q0 39 34 70q-62 3 -107.5 24t-75 56.5t-44 84.5t-14.5 108v431h98v-431q0 -40 9.5 -74t29.5 -58t51 -37.5t74 -13.5q82 0 123.5 51.5t41.5 131.5v431h98v-431q0 -97 -43.5 -165
t-126.5 -95z" />
    <glyph glyph-name="uogonek" unicode="&#x173;" horiz-adv-x="475" 
d="M141 193q0 -54 22.5 -83.5t70.5 -29.5t72.5 31.5t24.5 84.5v339h96v-538q-32 -10 -44.5 -25.5t-12.5 -33.5q0 -23 16 -33t41 -11v-69q-74 -3 -110 24t-36 71q0 24 12.5 46t38.5 39v44q-12 -19 -41 -37t-79 -18q-45 0 -76.5 14.5t-51.5 40t-29 59.5t-9 74v353h95v-342z
" />
    <glyph glyph-name="Wcircumflex" unicode="&#x174;" horiz-adv-x="981" 
d="M646 729h-92l-65 68l-64 -68h-93l108 126h98zM322 0h-107l-214 692h106l166 -558l168 558h106l168 -558l165 558h100l-211 -692h-108l-169 547z" />
    <glyph glyph-name="wcircumflex" unicode="&#x175;" horiz-adv-x="830" 
d="M566 575h-87l-62 79l-62 -79h-87l101 140h95zM732 535h98l-174 -535h-105l-134 402l-135 -402h-105l-177 535h105l130 -415l132 415h103l131 -415z" />
    <glyph glyph-name="Ycircumflex" unicode="&#x176;" horiz-adv-x="481" 
d="M399 729h-92l-65 68l-64 -68h-93l108 126h98zM106 692l137 -241l137 241h105l-196 -336v-356h-98v355l-195 337h110z" />
    <glyph glyph-name="ycircumflex" unicode="&#x177;" horiz-adv-x="512" 
d="M410 575h-87l-62 79l-62 -79h-87l101 140h95zM214 10l-216 525h105l160 -398l152 398h99l-278 -710h-93z" />
    <glyph glyph-name="Ydieresis" unicode="&#x178;" horiz-adv-x="481" 
d="M148 736q-25 0 -42 16.5t-17 42.5q0 25 17 42t42 17q26 0 43.5 -17t17.5 -42q0 -26 -18 -42.5t-43 -16.5zM335 736q-25 0 -42 16.5t-17 42.5q0 25 17 42t42 17q26 0 43.5 -17t17.5 -42q0 -26 -18 -42.5t-43 -16.5zM106 692l137 -241l137 241h105l-196 -336v-356h-98v355
l-195 337h110z" />
    <glyph glyph-name="Zacute" unicode="&#x179;" horiz-adv-x="588" 
d="M327 729h-93l75 126h96zM28 73l396 529h-390v90h525v-73l-400 -529h401v-90h-532v73z" />
    <glyph glyph-name="zacute" unicode="&#x17a;" horiz-adv-x="441" 
d="M261 579h-92l78 135h94zM418 80v-80h-395v73l279 382h-273v80h389v-73l-285 -382h285z" />
    <glyph glyph-name="Zdotaccent" unicode="&#x17b;" horiz-adv-x="588" 
d="M293 741q-26 0 -44 17.5t-18 43.5t17.5 43.5t43.5 17.5t44 -17.5t18 -43.5t-17.5 -43.5t-43.5 -17.5zM28 73l396 529h-390v90h525v-73l-400 -529h401v-90h-532v73z" />
    <glyph glyph-name="zdotaccent" unicode="&#x17c;" horiz-adv-x="441" 
d="M224 589q-26 0 -44 17.5t-18 43.5t17.5 43.5t43.5 17.5t44 -17.5t18 -43.5t-17.5 -43.5t-43.5 -17.5zM418 80v-80h-395v73l279 382h-273v80h389v-73l-285 -382h285z" />
    <glyph glyph-name="Zcaron" unicode="&#x17d;" horiz-adv-x="588" 
d="M137 855h92l65 -70l65 70h91l-108 -126h-98zM28 73l396 529h-390v90h525v-73l-400 -529h401v-90h-532v73z" />
    <glyph glyph-name="zcaron" unicode="&#x17e;" horiz-adv-x="441" 
d="M75 718h87l62 -80l62 80h87l-102 -140h-95zM418 80v-80h-395v73l279 382h-273v80h389v-73l-285 -382h285z" />
    <glyph glyph-name="florin" unicode="&#x192;" horiz-adv-x="336" 
d="M281 418v-81h-98l-89 -512h-94l90 512h-52v81h66l22 124q14 81 51.5 116t109.5 35l36 -1v-80h-30q-39 0 -53.5 -20t-19.5 -53l-22 -121h83z" />
    <glyph glyph-name="Ohorn" unicode="&#x1a0;" horiz-adv-x="761" 
d="M588 644q69 -48 108 -124.5t39 -172.5q0 -77 -26 -143t-73 -114t-112.5 -75.5t-143.5 -27.5t-143.5 26.5t-112 74.5t-72.5 114t-26 144t26.5 144t73.5 114t112 75t141 27q55 0 106 -14q23 0 41.5 2t31.5 10t21.5 24.5t12.5 44.5h72q-10 -96 -76 -129zM380 78
q57 0 103.5 20t79.5 55.5t51 85t18 107.5q0 59 -18.5 108t-51.5 85t-79.5 56t-102.5 20q-57 0 -103 -20t-79 -56t-51 -85t-18 -108t18.5 -108t51.5 -84.5t79.5 -55.5t101.5 -20z" />
    <glyph glyph-name="ohorn" unicode="&#x1a1;" horiz-adv-x="600" 
d="M477 485q47 -37 73 -92.5t26 -124.5q0 -60 -21 -111t-58 -87.5t-88 -57.5t-110 -21q-60 0 -110.5 20t-87 56.5t-57 87.5t-20.5 112t21 112t58 87.5t87.5 57t109.5 20.5q41 0 75 -9q24 0 43 1.5t33 10t22.5 25t12.5 44.5h72q-6 -51 -25.5 -82.5t-55.5 -48.5zM300 77
q40 0 73 14t57 39.5t37 60t13 76.5q0 41 -13.5 76t-37.5 60.5t-57 40t-72 14.5q-40 0 -73 -14t-57 -39.5t-37 -60.5t-13 -77t13.5 -76.5t37.5 -60t57 -39.5t72 -14z" />
    <glyph glyph-name="Uhorn" unicode="&#x1af;" horiz-adv-x="624" 
d="M698 773q-8 -64 -37.5 -98.5t-86.5 -45.5v-368q0 -60 -17.5 -110t-50.5 -86.5t-82 -57t-112 -20.5q-67 0 -116 19.5t-81.5 55.5t-48.5 86.5t-16 112.5v431h98v-431q0 -82 39.5 -132.5t125.5 -50.5q81 0 122.5 51.5t41.5 132.5v430h58q39 1 61.5 15.5t29.5 65.5h72z" />
    <glyph glyph-name="uhorn" unicode="&#x1b0;" horiz-adv-x="475" 
d="M549 616q-8 -63 -37 -98t-85 -46v-472h-95v49q-12 -19 -41 -37t-79 -18q-45 0 -76.5 14.5t-51.5 40t-29 59.5t-9 74v353h95v-342q0 -54 22.5 -83.5t70.5 -29.5t72.5 31.5t24.5 84.5v339h55q39 1 61.5 15.5t29.5 65.5h72z" />
    <glyph glyph-name="Aringacute" unicode="&#x1fa;" horiz-adv-x="631" 
d="M355 941h-93l75 126h96zM205 817q0 45 28.5 73.5t73.5 28.5q49 0 77 -28.5t28 -71.5q0 -44 -28 -72.5t-76 -28.5q-46 0 -74.5 28.5t-28.5 70.5zM261 818q0 -21 12.5 -34.5t34.5 -13.5q23 0 35.5 13.5t12.5 35.5q0 21 -12.5 34.5t-35.5 13.5q-22 0 -34.5 -13.5
t-12.5 -35.5zM181 228l-86 -228h-97l260 692h103l272 -692h-103l-89 228h-260zM408 312l-99 255l-97 -255h196z" />
    <glyph glyph-name="aringacute" unicode="&#x1fb;" horiz-adv-x="459" 
d="M282 789h-92l74 126h94zM129 662q0 44 28.5 72.5t73.5 28.5q49 0 77 -28.5t28 -70.5q0 -45 -28 -73.5t-76 -28.5q-46 0 -74.5 28.5t-28.5 71.5zM183 662q0 -21 13.5 -35t35.5 -14q24 0 37 14t13 37q0 20 -13 34.5t-37 14.5q-23 0 -36 -14.5t-13 -36.5zM26 171
q0 38 13 70.5t37 56t57.5 36.5t73.5 13q41 0 69 -11.5t42 -24.5v45q0 52 -23.5 80t-71.5 28q-49 0 -68.5 -26t-20.5 -59h-89q1 71 45 116.5t134 45.5q51 0 86.5 -14t58 -39.5t33 -62t10.5 -80.5v-345h-84v42q-19 -22 -48.5 -36t-72.5 -14q-38 0 -71 12.5t-57.5 36
t-38.5 56.5t-14 74zM118 171q0 -43 27.5 -72t72.5 -29q44 0 73 29t29 72q0 44 -29 72t-74 28t-72 -28.5t-27 -71.5z" />
    <glyph glyph-name="AEacute" unicode="&#x1fc;" horiz-adv-x="772" 
d="M575 729h-93l75 126h96zM530 601v-200h198v-90h-198v-220h206v-91h-304v200h-216l-112 -200h-108l393 692h345v-91h-204zM432 585l-169 -300h169v300z" />
    <glyph glyph-name="aeacute" unicode="&#x1fd;" horiz-adv-x="849" 
d="M442 579h-92l78 135h94zM580 -7q-68 0 -121.5 25t-87.5 71q-7 -15 -19 -32.5t-30.5 -32t-45 -24t-62.5 -9.5q-40 0 -74.5 12.5t-60 35.5t-39.5 55.5t-14 73.5q0 38 13 70.5t36.5 55.5t57 36t74.5 13q38 0 66 -10.5t43 -24.5v48q0 51 -22 79.5t-70 28.5q-24 0 -41 -7
t-27 -19t-14.5 -27.5t-4.5 -31.5h-89q0 35 11 64.5t33 51t55 34t78 12.5q61 0 99 -24.5t55 -66.5q29 41 77.5 66.5t113.5 25.5q59 0 106.5 -18.5t81 -52t52.5 -82t20 -108.5q0 -7 -0.5 -19.5t-1.5 -23.5h-418q1 -34 13.5 -63.5t34.5 -51.5t53 -34t69 -12q63 0 102 30t62 78
l73 -39q-13 -31 -34 -58.5t-50 -48.5t-67.5 -33.5t-85.5 -12.5zM569 460q-34 0 -62 -12t-48.5 -32t-32.5 -47.5t-14 -57.5h318q-3 70 -47.5 109.5t-113.5 39.5zM117 170q0 -44 28 -72.5t73 -28.5t74 28.5t29 72.5q0 45 -29 73.5t-75 28.5t-73 -29t-27 -73z" />
    <glyph glyph-name="Oslashacute" unicode="&#x1fe;" horiz-adv-x="761" 
d="M425 729h-93l75 126h96zM26 346q0 78 26.5 143.5t73.5 113.5t111.5 75t140.5 27q59 0 111 -15.5t92 -44.5l53 61l65 -56l-52 -61q39 -45 63 -106.5t24 -135.5q0 -77 -26 -142.5t-73.5 -113.5t-112.5 -75.5t-143 -27.5q-60 0 -111.5 16t-90.5 44l-54 -63l-64 55l54 62
q-42 47 -64.5 109t-22.5 135zM128 346q0 -50 13 -92.5t37 -76.5l343 398q-30 20 -65.5 30.5t-76.5 10.5q-57 0 -103 -20t-79 -56t-51 -85.5t-18 -108.5zM633 346q0 50 -13.5 92.5t-37.5 77.5l-344 -398q30 -20 65 -30.5t77 -10.5q57 0 103.5 20t79.5 55.5t51.5 85
t18.5 108.5z" />
    <glyph glyph-name="oslashacute" unicode="&#x1ff;" horiz-adv-x="600" 
d="M346 579h-92l78 135h94zM24 267q0 61 21 112t58 87.5t87.5 57t109.5 20.5q45 0 83 -12t69 -32l41 48l56 -48l-40 -47q32 -36 49.5 -83t17.5 -102q0 -60 -21 -111t-58 -87.5t-88 -57.5t-110 -21q-90 0 -151 42l-41 -47l-55 46l40 47q-32 35 -50 83t-18 105zM118 267
q0 -69 34 -118l244 285q-21 13 -45 20t-51 7q-41 0 -74.5 -14.5t-57.5 -40t-37 -61.5t-13 -78zM482 267q0 66 -33 116l-245 -284q40 -25 96 -25q41 0 74.5 14.5t57.5 40t37 61t13 77.5z" />
    <glyph glyph-name="Scommaaccent" unicode="&#x218;" horiz-adv-x="482" 
d="M141 527q0 -35 17.5 -57.5t49.5 -38.5q31 -14 63 -26.5t65 -29.5q56 -27 87 -71t31 -113q0 -45 -15.5 -82.5t-43 -64t-67 -41.5t-87.5 -15q-60 0 -101.5 18t-66.5 48.5t-35.5 70t-9.5 82.5h95q0 -28 6.5 -52.5t20.5 -42.5t36.5 -28.5t54.5 -10.5q49 0 81 27.5t32 81.5
q0 42 -20 66.5t-54 41.5q-34 18 -68.5 30.5t-69.5 31.5q-47 26 -72.5 68t-25.5 104q0 38 13.5 71t39 57.5t61.5 38.5t81 14q55 0 92.5 -16.5t60.5 -43.5t32.5 -62t8.5 -73h-90q-2 48 -27.5 79.5t-76.5 31.5q-48 0 -73 -26.5t-25 -67.5zM224 -156q-21 5 -34 20.5t-13 38.5
q0 26 17.5 43t45.5 17q29 0 45.5 -18t16.5 -44q0 -18 -6 -33t-13 -29l-39 -81h-59z" />
    <glyph glyph-name="scommaaccent" unicode="&#x219;" horiz-adv-x="398" 
d="M123 401q0 -48 54 -68q21 -8 42 -13t43 -13q56 -20 86 -54.5t30 -99.5q0 -39 -14.5 -69t-39 -50t-57.5 -30t-70 -10q-51 0 -85.5 14.5t-55.5 38.5t-30 55.5t-8 65.5h92q0 -19 4.5 -37t15 -31t27.5 -21t42 -8q35 -1 60.5 18t25.5 55q0 33 -16 50t-46 28q-23 8 -46 14
t-49 17q-53 23 -75 58.5t-22 83.5q0 33 12.5 60t35 46t53 29.5t67.5 10.5q85 0 125 -44.5t41 -117.5h-88q-2 41 -21.5 64.5t-58.5 23.5q-34 0 -54 -17.5t-20 -48.5zM191 -156q-21 5 -34 20.5t-13 38.5q0 26 17.5 43t45.5 17q29 0 45.5 -18t16.5 -44q0 -18 -6 -33t-13 -29
l-39 -81h-59z" />
    <glyph glyph-name="uni021A" unicode="&#x21a;" horiz-adv-x="416" 
d="M257 0h-98v601h-142v91h382v-91h-142v-601zM192 -156q-21 5 -34 20.5t-13 38.5q0 26 17.5 43t45.5 17q29 0 45.5 -18t16.5 -44q0 -18 -6 -33t-13 -29l-39 -81h-59z" />
    <glyph glyph-name="uni021B" unicode="&#x21b;" horiz-adv-x="277" 
d="M259 535v-81h-99v-301q0 -35 11 -53t49 -18h38v-82q-6 0 -22.5 -2.5t-39.5 -2.5q-74 0 -102.5 35t-28.5 99v325h-54v81h54v82h95v-82h99zM146 -156q-21 5 -34 20.5t-13 38.5q0 26 17.5 43t45.5 17q29 0 45.5 -18t16.5 -44q0 -18 -6 -33t-13 -29l-39 -81h-59z" />
    <glyph glyph-name="uni0237" unicode="&#x237;" horiz-adv-x="193" 
d="M144 -11q0 -37 -7.5 -67.5t-25.5 -52t-47 -33t-73 -11.5h-31v82h22q22 0 35 6.5t20 17.5t9.5 25.5t2.5 31.5v547h95v-546z" />
    <glyph glyph-name="circumflex" unicode="&#x2c6;" horiz-adv-x="400" 
d="M349 575h-87l-62 79l-62 -79h-87l101 140h95z" />
    <glyph glyph-name="caron" unicode="&#x2c7;" horiz-adv-x="400" 
d="M51 718h87l62 -80l62 80h87l-102 -140h-95z" />
    <glyph glyph-name="breve" unicode="&#x2d8;" horiz-adv-x="400" 
d="M202 571q-39 0 -65.5 13t-42.5 33t-23 43.5t-7 43.5h74q0 -10 3.5 -21.5t10.5 -21.5t19.5 -16t30.5 -6t30 6t19.5 16t11 21.5t3.5 21.5h72q0 -21 -7 -44t-23 -43t-42 -33t-64 -13z" />
    <glyph glyph-name="dotaccent" unicode="&#x2d9;" horiz-adv-x="400" 
d="M202 589q-26 0 -44 17.5t-18 43.5t17.5 43.5t43.5 17.5t44 -17.5t18 -43.5t-17.5 -43.5t-43.5 -17.5z" />
    <glyph glyph-name="ring" unicode="&#x2da;" horiz-adv-x="400" 
d="M96 662q0 44 28.5 72.5t73.5 28.5q49 0 77 -28.5t28 -70.5q0 -45 -28 -73.5t-76 -28.5q-46 0 -74.5 28.5t-28.5 71.5zM150 662q0 -21 13.5 -35t35.5 -14q24 0 37 14t13 37q0 20 -13 34.5t-37 14.5q-23 0 -36 -14.5t-13 -36.5z" />
    <glyph glyph-name="ogonek" unicode="&#x2db;" horiz-adv-x="400" 
d="M251 0q-29 -13 -41 -28t-12 -34q0 -23 16 -33t41 -11v-69q-74 -3 -109.5 24t-35.5 71q0 23 10 43t32 37h99z" />
    <glyph glyph-name="tilde" unicode="&#x2dc;" horiz-adv-x="400" 
d="M258 582q-20 0 -34.5 6.5t-27.5 15t-25 15t-26 6.5q-16 0 -23 -11t-8 -31h-70q-1 49 24 82.5t73 33.5q20 0 35 -6.5t27.5 -15t24 -15t25.5 -6.5q30 0 30 43h70q1 -53 -24.5 -85t-70.5 -32z" />
    <glyph glyph-name="hungarumlaut" unicode="&#x2dd;" horiz-adv-x="400" 
d="M144 579h-89l62 135h92zM293 579h-88l64 135h91z" />
    <glyph glyph-name="gravecomb" unicode="&#x300;" horiz-adv-x="0" 
d="M-198 604h-81l-70 112h85z" />
    <glyph glyph-name="acutecomb" unicode="&#x301;" horiz-adv-x="0" 
d="M-186 617h-83l67 112h86z" />
    <glyph glyph-name="uni0302" unicode="&#x302;" horiz-adv-x="0" 
d="M-61 602h-82l-58 61l-57 -61h-83l96 112h88z" />
    <glyph glyph-name="tildecomb" unicode="&#x303;" horiz-adv-x="0" 
d="M-181 596q-18 0 -31.5 6t-25.5 13t-23 13.5t-23 6.5q-30 -2 -30 -38h-62q-2 44 21.5 73.5t66.5 30.5q18 0 31.5 -6t24.5 -13t22 -13t23 -6q28 0 30 38h62q1 -48 -22.5 -76.5t-63.5 -28.5z" />
    <glyph glyph-name="uni0306" unicode="&#x306;" horiz-adv-x="0" 
d="M-198 609q-35 0 -58.5 11t-38 28t-21 37t-6.5 38h68q1 -16 12.5 -33.5t43.5 -17.5t43.5 17.5t12.5 33.5h66q0 -18 -6.5 -38t-21 -37t-38 -28t-56.5 -11z" />
    <glyph glyph-name="hookabovecomb" unicode="&#x309;" horiz-adv-x="0" 
d="M-375 570q8 19 17.5 31.5t18 22.5t14 18t5.5 18q0 12 -6.5 19t-16.5 7q-15 0 -25 -8.5t-27 -31.5l-53 27q24 44 46.5 60.5t58.5 16.5q38 0 63 -23t25 -58q0 -22 -7 -36.5t-17 -26l-20 -23t-17 -26.5z" />
    <glyph glyph-name="uni031B" unicode="&#x31b;" horiz-adv-x="0" 
d="M-224 523q25 0 45 1.5t34 9.5t23 24.5t13 45.5h72q-9 -80 -54 -115t-134 -33z" />
    <glyph glyph-name="dotbelowcomb" unicode="&#x323;" horiz-adv-x="0" 
d="M-198 -163q-26 0 -44 17.5t-18 43.5t17.5 43.5t43.5 17.5t44 -17.5t18 -43.5t-17.5 -43.5t-43.5 -17.5z" />
    <glyph glyph-name="Wgrave" unicode="&#x1e80;" horiz-adv-x="981" 
d="M533 729h-91l-78 126h95zM322 0h-107l-214 692h106l166 -558l168 558h106l168 -558l165 558h100l-211 -692h-108l-169 547z" />
    <glyph glyph-name="wgrave" unicode="&#x1e81;" horiz-adv-x="830" 
d="M459 579h-91l-79 135h94zM732 535h98l-174 -535h-105l-134 402l-135 -402h-105l-177 535h105l130 -415l132 415h103l131 -415z" />
    <glyph glyph-name="Wacute" unicode="&#x1e82;" horiz-adv-x="981" 
d="M538 729h-93l75 126h96zM322 0h-107l-214 692h106l166 -558l168 558h106l168 -558l165 558h100l-211 -692h-108l-169 547z" />
    <glyph glyph-name="wacute" unicode="&#x1e83;" horiz-adv-x="830" 
d="M467 579h-92l78 135h94zM732 535h98l-174 -535h-105l-134 402l-135 -402h-105l-177 535h105l130 -415l132 415h103l131 -415z" />
    <glyph glyph-name="Wdieresis" unicode="&#x1e84;" horiz-adv-x="981" 
d="M398 736q-25 0 -42 16.5t-17 42.5q0 25 17 42t42 17q26 0 43.5 -17t17.5 -42q0 -26 -18 -42.5t-43 -16.5zM585 736q-25 0 -42 16.5t-17 42.5q0 25 17 42t42 17q26 0 43.5 -17t17.5 -42q0 -26 -18 -42.5t-43 -16.5zM322 0h-107l-214 692h106l166 -558l168 558h106
l168 -558l165 558h100l-211 -692h-108l-169 547z" />
    <glyph glyph-name="wdieresis" unicode="&#x1e85;" horiz-adv-x="830" 
d="M330 590q-25 0 -42 17t-17 42t17 42t42 17q26 0 43.5 -17t17.5 -42t-18 -42t-43 -17zM501 590q-26 0 -43 17t-17 42t17 42t43 17q25 0 42.5 -17t17.5 -42t-18 -42t-42 -17zM732 535h98l-174 -535h-105l-134 402l-135 -402h-105l-177 535h105l130 -415l132 415h103
l131 -415z" />
    <glyph glyph-name="uni1EA0" unicode="&#x1ea0;" horiz-adv-x="631" 
d="M181 228l-86 -228h-97l260 692h103l272 -692h-103l-89 228h-260zM408 312l-99 255l-97 -255h196zM318 -163q-26 0 -44 17.5t-18 43.5t17.5 43.5t43.5 17.5t44 -17.5t18 -43.5t-17.5 -43.5t-43.5 -17.5z" />
    <glyph glyph-name="uni1EA1" unicode="&#x1ea1;" 
d="M482 79q-9 -13 -25 -28.5t-39 -29t-53.5 -22t-67.5 -8.5q-60 0 -110.5 20t-86.5 56t-56 87t-20 113q0 60 20 110.5t56.5 87.5t86.5 58t110 21t109 -23.5t75 -58.5v73h91v-535h-90v79zM120 267q0 -42 13 -77t37 -60.5t57.5 -39.5t73.5 -14t73 14t57 39.5t37 60.5t13 77
t-13.5 77t-37.5 60.5t-57 40t-73 14.5t-73 -14.5t-57 -40t-37 -60.5t-13 -77zM313 -163q-26 0 -44 17.5t-18 43.5t17.5 43.5t43.5 17.5t44 -17.5t18 -43.5t-17.5 -43.5t-43.5 -17.5z" />
    <glyph glyph-name="uni1EA2" unicode="&#x1ea2;" horiz-adv-x="631" 
d="M282 764q8 19 17.5 31.5t18 22.5t14 18t5.5 18q0 12 -6.5 19t-16.5 7q-15 0 -25 -8.5t-27 -31.5l-53 27q24 44 46.5 60.5t58.5 16.5q38 0 63 -23t25 -58q0 -22 -7 -36.5t-16.5 -26t-20 -23t-17.5 -26.5zM181 228l-86 -228h-97l260 692h103l272 -692h-103l-89 228h-260z
M408 312l-99 255l-97 -255h196z" />
    <glyph glyph-name="uni1EA3" unicode="&#x1ea3;" 
d="M285 607q8 19 17.5 31.5t18 22.5t14 18t5.5 18q0 12 -6.5 19t-16.5 7q-15 0 -25 -8.5t-27 -31.5l-53 27q24 44 46.5 60.5t58.5 16.5q38 0 63 -23t25 -58q0 -22 -7 -36.5t-16.5 -26t-20 -23t-17.5 -26.5zM482 79q-9 -13 -25 -28.5t-39 -29t-53.5 -22t-67.5 -8.5
q-60 0 -110.5 20t-86.5 56t-56 87t-20 113q0 60 20 110.5t56.5 87.5t86.5 58t110 21t109 -23.5t75 -58.5v73h91v-535h-90v79zM120 267q0 -42 13 -77t37 -60.5t57.5 -39.5t73.5 -14t73 14t57 39.5t37 60.5t13 77t-13.5 77t-37.5 60.5t-57 40t-73 14.5t-73 -14.5t-57 -40
t-37 -60.5t-13 -77z" />
    <glyph glyph-name="uni1EA4" unicode="&#x1ea4;" horiz-adv-x="631" 
d="M506 806h-83l67 112h86zM448 735h-82l-58 61l-57 -61h-83l96 112h88zM181 228l-86 -228h-97l260 692h103l272 -692h-103l-89 228h-260zM408 312l-99 255l-97 -255h196z" />
    <glyph glyph-name="uni1EA5" unicode="&#x1ea5;" 
d="M509 649h-83l67 112h86zM451 578h-82l-58 61l-57 -61h-83l96 112h88zM482 79q-9 -13 -25 -28.5t-39 -29t-53.5 -22t-67.5 -8.5q-60 0 -110.5 20t-86.5 56t-56 87t-20 113q0 60 20 110.5t56.5 87.5t86.5 58t110 21t109 -23.5t75 -58.5v73h91v-535h-90v79zM120 267
q0 -42 13 -77t37 -60.5t57.5 -39.5t73.5 -14t73 14t57 39.5t37 60.5t13 77t-13.5 77t-37.5 60.5t-57 40t-73 14.5t-73 -14.5t-57 -40t-37 -60.5t-13 -77z" />
    <glyph glyph-name="uni1EA6" unicode="&#x1ea6;" horiz-adv-x="631" 
d="M519 814h-81l-70 112h85zM448 735h-82l-58 61l-57 -61h-83l96 112h88zM181 228l-86 -228h-97l260 692h103l272 -692h-103l-89 228h-260zM408 312l-99 255l-97 -255h196z" />
    <glyph glyph-name="uni1EA7" unicode="&#x1ea7;" 
d="M522 657h-81l-70 112h85zM451 578h-82l-58 61l-57 -61h-83l96 112h88zM482 79q-9 -13 -25 -28.5t-39 -29t-53.5 -22t-67.5 -8.5q-60 0 -110.5 20t-86.5 56t-56 87t-20 113q0 60 20 110.5t56.5 87.5t86.5 58t110 21t109 -23.5t75 -58.5v73h91v-535h-90v79zM120 267
q0 -42 13 -77t37 -60.5t57.5 -39.5t73.5 -14t73 14t57 39.5t37 60.5t13 77t-13.5 77t-37.5 60.5t-57 40t-73 14.5t-73 -14.5t-57 -40t-37 -60.5t-13 -77z" />
    <glyph glyph-name="uni1EA8" unicode="&#x1ea8;" horiz-adv-x="631" 
d="M439 806q8 19 17.5 31.5t18 22.5t14 18t5.5 18q0 12 -6.5 19t-16.5 7q-15 0 -25 -8.5t-27 -31.5l-53 27q24 44 46.5 60.5t58.5 16.5q38 0 63 -23t25 -58q0 -22 -7 -36.5t-16.5 -26t-20 -23t-17.5 -26.5zM448 735h-82l-58 61l-57 -61h-83l96 112h88zM181 228l-86 -228h-97
l260 692h103l272 -692h-103l-89 228h-260zM408 312l-99 255l-97 -255h196z" />
    <glyph glyph-name="uni1EA9" unicode="&#x1ea9;" 
d="M442 649q8 19 17.5 31.5t18 22.5t14 18t5.5 18q0 12 -6.5 19t-16.5 7q-15 0 -25 -8.5t-27 -31.5l-53 27q24 44 46.5 60.5t58.5 16.5q38 0 63 -23t25 -58q0 -22 -7 -36.5t-16.5 -26t-20 -23t-17.5 -26.5zM451 578h-82l-58 61l-57 -61h-83l96 112h88zM482 79
q-9 -13 -25 -28.5t-39 -29t-53.5 -22t-67.5 -8.5q-60 0 -110.5 20t-86.5 56t-56 87t-20 113q0 60 20 110.5t56.5 87.5t86.5 58t110 21t109 -23.5t75 -58.5v73h91v-535h-90v79zM120 267q0 -42 13 -77t37 -60.5t57.5 -39.5t73.5 -14t73 14t57 39.5t37 60.5t13 77t-13.5 77
t-37.5 60.5t-57 40t-73 14.5t-73 -14.5t-57 -40t-37 -60.5t-13 -77z" />
    <glyph glyph-name="uni1EAA" unicode="&#x1eaa;" horiz-adv-x="631" 
d="M363 874q-18 0 -31.5 6t-25.5 13t-23 13.5t-23 6.5q-30 -2 -30 -38h-62q-2 44 21.5 73.5t66.5 30.5q18 0 31.5 -6t24.5 -13t22 -13t23 -6q28 0 30 38h62q1 -48 -22.5 -76.5t-63.5 -28.5zM448 735h-82l-58 61l-57 -61h-83l96 112h88zM181 228l-86 -228h-97l260 692h103
l272 -692h-103l-89 228h-260zM408 312l-99 255l-97 -255h196z" />
    <glyph glyph-name="uni1EAB" unicode="&#x1eab;" 
d="M366 717q-18 0 -31.5 6t-25.5 13t-23 13.5t-23 6.5q-30 -2 -30 -38h-62q-2 44 21.5 73.5t66.5 30.5q18 0 31.5 -6t24.5 -13t22 -13t23 -6q28 0 30 38h62q1 -48 -22.5 -76.5t-63.5 -28.5zM451 578h-82l-58 61l-57 -61h-83l96 112h88zM482 79q-9 -13 -25 -28.5t-39 -29
t-53.5 -22t-67.5 -8.5q-60 0 -110.5 20t-86.5 56t-56 87t-20 113q0 60 20 110.5t56.5 87.5t86.5 58t110 21t109 -23.5t75 -58.5v73h91v-535h-90v79zM120 267q0 -42 13 -77t37 -60.5t57.5 -39.5t73.5 -14t73 14t57 39.5t37 60.5t13 77t-13.5 77t-37.5 60.5t-57 40t-73 14.5
t-73 -14.5t-57 -40t-37 -60.5t-13 -77z" />
    <glyph glyph-name="uni1EAC" unicode="&#x1eac;" horiz-adv-x="631" 
d="M448 735h-82l-58 61l-57 -61h-83l96 112h88zM181 228l-86 -228h-97l260 692h103l272 -692h-103l-89 228h-260zM408 312l-99 255l-97 -255h196zM318 -163q-26 0 -44 17.5t-18 43.5t17.5 43.5t43.5 17.5t44 -17.5t18 -43.5t-17.5 -43.5t-43.5 -17.5z" />
    <glyph glyph-name="uni1EAD" unicode="&#x1ead;" 
d="M451 578h-82l-58 61l-57 -61h-83l96 112h88zM482 79q-9 -13 -25 -28.5t-39 -29t-53.5 -22t-67.5 -8.5q-60 0 -110.5 20t-86.5 56t-56 87t-20 113q0 60 20 110.5t56.5 87.5t86.5 58t110 21t109 -23.5t75 -58.5v73h91v-535h-90v79zM120 267q0 -42 13 -77t37 -60.5
t57.5 -39.5t73.5 -14t73 14t57 39.5t37 60.5t13 77t-13.5 77t-37.5 60.5t-57 40t-73 14.5t-73 -14.5t-57 -40t-37 -60.5t-13 -77zM313 -163q-26 0 -44 17.5t-18 43.5t17.5 43.5t43.5 17.5t44 -17.5t18 -43.5t-17.5 -43.5t-43.5 -17.5z" />
    <glyph glyph-name="uni1EAE" unicode="&#x1eae;" horiz-adv-x="631" 
d="M354 883h-83l67 112h86zM309 737q-35 0 -58.5 11t-38 28t-21 37t-6.5 38h68q1 -16 12.5 -33.5t43.5 -17.5t43.5 17.5t12.5 33.5h66q0 -18 -6.5 -38t-21 -37t-38 -28t-56.5 -11zM181 228l-86 -228h-97l260 692h103l272 -692h-103l-89 228h-260zM408 312l-99 255l-97 -255
h196z" />
    <glyph glyph-name="uni1EAF" unicode="&#x1eaf;" 
d="M357 726h-83l67 112h86zM312 580q-35 0 -58.5 11t-38 28t-21 37t-6.5 38h68q1 -16 12.5 -33.5t43.5 -17.5t43.5 17.5t12.5 33.5h66q0 -18 -6.5 -38t-21 -37t-38 -28t-56.5 -11zM482 79q-9 -13 -25 -28.5t-39 -29t-53.5 -22t-67.5 -8.5q-60 0 -110.5 20t-86.5 56t-56 87
t-20 113q0 60 20 110.5t56.5 87.5t86.5 58t110 21t109 -23.5t75 -58.5v73h91v-535h-90v79zM120 267q0 -42 13 -77t37 -60.5t57.5 -39.5t73.5 -14t73 14t57 39.5t37 60.5t13 77t-13.5 77t-37.5 60.5t-57 40t-73 14.5t-73 -14.5t-57 -40t-37 -60.5t-13 -77z" />
    <glyph glyph-name="uni1EB0" unicode="&#x1eb0;" horiz-adv-x="631" 
d="M346 879h-81l-70 112h85zM309 737q-35 0 -58.5 11t-38 28t-21 37t-6.5 38h68q1 -16 12.5 -33.5t43.5 -17.5t43.5 17.5t12.5 33.5h66q0 -18 -6.5 -38t-21 -37t-38 -28t-56.5 -11zM181 228l-86 -228h-97l260 692h103l272 -692h-103l-89 228h-260zM408 312l-99 255l-97 -255
h196z" />
    <glyph glyph-name="uni1EB1" unicode="&#x1eb1;" 
d="M349 722h-81l-70 112h85zM312 580q-35 0 -58.5 11t-38 28t-21 37t-6.5 38h68q1 -16 12.5 -33.5t43.5 -17.5t43.5 17.5t12.5 33.5h66q0 -18 -6.5 -38t-21 -37t-38 -28t-56.5 -11zM482 79q-9 -13 -25 -28.5t-39 -29t-53.5 -22t-67.5 -8.5q-60 0 -110.5 20t-86.5 56t-56 87
t-20 113q0 60 20 110.5t56.5 87.5t86.5 58t110 21t109 -23.5t75 -58.5v73h91v-535h-90v79zM120 267q0 -42 13 -77t37 -60.5t57.5 -39.5t73.5 -14t73 14t57 39.5t37 60.5t13 77t-13.5 77t-37.5 60.5t-57 40t-73 14.5t-73 -14.5t-57 -40t-37 -60.5t-13 -77z" />
    <glyph glyph-name="uni1EB2" unicode="&#x1eb2;" horiz-adv-x="631" 
d="M282 866q8 19 17.5 31.5t18 22.5t14 18t5.5 18q0 12 -6.5 19t-16.5 7q-15 0 -25 -8.5t-27 -31.5l-53 27q24 44 46.5 60.5t58.5 16.5q38 0 63 -23t25 -58q0 -22 -7 -36.5t-16.5 -26t-20 -23t-17.5 -26.5zM309 737q-35 0 -58.5 11t-38 28t-21 37t-6.5 38h68
q1 -16 12.5 -33.5t43.5 -17.5t43.5 17.5t12.5 33.5h66q0 -18 -6.5 -38t-21 -37t-38 -28t-56.5 -11zM181 228l-86 -228h-97l260 692h103l272 -692h-103l-89 228h-260zM408 312l-99 255l-97 -255h196z" />
    <glyph glyph-name="uni1EB3" unicode="&#x1eb3;" 
d="M285 709q8 19 17.5 31.5t18 22.5t14 18t5.5 18q0 12 -6.5 19t-16.5 7q-15 0 -25 -8.5t-27 -31.5l-53 27q24 44 46.5 60.5t58.5 16.5q38 0 63 -23t25 -58q0 -22 -7 -36.5t-16.5 -26t-20 -23t-17.5 -26.5zM312 580q-35 0 -58.5 11t-38 28t-21 37t-6.5 38h68
q1 -16 12.5 -33.5t43.5 -17.5t43.5 17.5t12.5 33.5h66q0 -18 -6.5 -38t-21 -37t-38 -28t-56.5 -11zM482 79q-9 -13 -25 -28.5t-39 -29t-53.5 -22t-67.5 -8.5q-60 0 -110.5 20t-86.5 56t-56 87t-20 113q0 60 20 110.5t56.5 87.5t86.5 58t110 21t109 -23.5t75 -58.5v73h91
v-535h-90v79zM120 267q0 -42 13 -77t37 -60.5t57.5 -39.5t73.5 -14t73 14t57 39.5t37 60.5t13 77t-13.5 77t-37.5 60.5t-57 40t-73 14.5t-73 -14.5t-57 -40t-37 -60.5t-13 -77z" />
    <glyph glyph-name="uni1EB4" unicode="&#x1eb4;" horiz-adv-x="631" 
d="M380 881q-18 0 -31.5 6t-25.5 13t-23 13.5t-23 6.5q-30 -2 -30 -38h-62q-2 44 21.5 73.5t66.5 30.5q18 0 31.5 -6t24.5 -13t22 -13t23 -6q28 0 30 38h62q1 -48 -22.5 -76.5t-63.5 -28.5zM309 737q-35 0 -58.5 11t-38 28t-21 37t-6.5 38h68q1 -16 12.5 -33.5t43.5 -17.5
t43.5 17.5t12.5 33.5h66q0 -18 -6.5 -38t-21 -37t-38 -28t-56.5 -11zM181 228l-86 -228h-97l260 692h103l272 -692h-103l-89 228h-260zM408 312l-99 255l-97 -255h196z" />
    <glyph glyph-name="uni1EB5" unicode="&#x1eb5;" 
d="M383 724q-18 0 -31.5 6t-25.5 13t-23 13.5t-23 6.5q-30 -2 -30 -38h-62q-2 44 21.5 73.5t66.5 30.5q18 0 31.5 -6t24.5 -13t22 -13t23 -6q28 0 30 38h62q1 -48 -22.5 -76.5t-63.5 -28.5zM312 580q-35 0 -58.5 11t-38 28t-21 37t-6.5 38h68q1 -16 12.5 -33.5t43.5 -17.5
t43.5 17.5t12.5 33.5h66q0 -18 -6.5 -38t-21 -37t-38 -28t-56.5 -11zM482 79q-9 -13 -25 -28.5t-39 -29t-53.5 -22t-67.5 -8.5q-60 0 -110.5 20t-86.5 56t-56 87t-20 113q0 60 20 110.5t56.5 87.5t86.5 58t110 21t109 -23.5t75 -58.5v73h91v-535h-90v79zM120 267
q0 -42 13 -77t37 -60.5t57.5 -39.5t73.5 -14t73 14t57 39.5t37 60.5t13 77t-13.5 77t-37.5 60.5t-57 40t-73 14.5t-73 -14.5t-57 -40t-37 -60.5t-13 -77z" />
    <glyph glyph-name="uni1EB6" unicode="&#x1eb6;" horiz-adv-x="631" 
d="M309 737q-35 0 -58.5 11t-38 28t-21 37t-6.5 38h68q1 -16 12.5 -33.5t43.5 -17.5t43.5 17.5t12.5 33.5h66q0 -18 -6.5 -38t-21 -37t-38 -28t-56.5 -11zM181 228l-86 -228h-97l260 692h103l272 -692h-103l-89 228h-260zM408 312l-99 255l-97 -255h196zM318 -163
q-26 0 -44 17.5t-18 43.5t17.5 43.5t43.5 17.5t44 -17.5t18 -43.5t-17.5 -43.5t-43.5 -17.5z" />
    <glyph glyph-name="uni1EB7" unicode="&#x1eb7;" 
d="M312 580q-35 0 -58.5 11t-38 28t-21 37t-6.5 38h68q1 -16 12.5 -33.5t43.5 -17.5t43.5 17.5t12.5 33.5h66q0 -18 -6.5 -38t-21 -37t-38 -28t-56.5 -11zM482 79q-9 -13 -25 -28.5t-39 -29t-53.5 -22t-67.5 -8.5q-60 0 -110.5 20t-86.5 56t-56 87t-20 113q0 60 20 110.5
t56.5 87.5t86.5 58t110 21t109 -23.5t75 -58.5v73h91v-535h-90v79zM120 267q0 -42 13 -77t37 -60.5t57.5 -39.5t73.5 -14t73 14t57 39.5t37 60.5t13 77t-13.5 77t-37.5 60.5t-57 40t-73 14.5t-73 -14.5t-57 -40t-37 -60.5t-13 -77zM313 -163q-26 0 -44 17.5t-18 43.5
t17.5 43.5t43.5 17.5t44 -17.5t18 -43.5t-17.5 -43.5t-43.5 -17.5z" />
    <glyph glyph-name="uni1EB8" unicode="&#x1eb8;" horiz-adv-x="393" 
d="M54 692h301v-91h-203v-200h198v-90h-198v-220h206v-91h-304v692zM199 -163q-26 0 -44 17.5t-18 43.5t17.5 43.5t43.5 17.5t44 -17.5t18 -43.5t-17.5 -43.5t-43.5 -17.5z" />
    <glyph glyph-name="uni1EB9" unicode="&#x1eb9;" horiz-adv-x="566" 
d="M122 239q5 -76 51 -119.5t122 -43.5q64 0 102.5 29t64.5 77l73 -38q-13 -31 -34.5 -58.5t-51.5 -48.5t-68.5 -33.5t-85.5 -12.5q-60 0 -110 19.5t-86 55.5t-55.5 86.5t-19.5 113.5q0 61 19.5 112t54 88t82.5 57.5t105 20.5q59 0 107 -18.5t82 -52.5t53 -82.5t20 -108.5
v-19.5t-2 -23.5h-423zM284 462q-66 0 -108 -39t-51 -107h323q-5 66 -49.5 106t-114.5 40zM285 -163q-26 0 -44 17.5t-18 43.5t17.5 43.5t43.5 17.5t44 -17.5t18 -43.5t-17.5 -43.5t-43.5 -17.5z" />
    <glyph glyph-name="uni1EBA" unicode="&#x1eba;" horiz-adv-x="393" 
d="M171 764q8 19 17.5 31.5t18 22.5t14 18t5.5 18q0 12 -6.5 19t-16.5 7q-15 0 -25 -8.5t-27 -31.5l-53 27q24 44 46.5 60.5t58.5 16.5q38 0 63 -23t25 -58q0 -22 -7 -36.5t-16.5 -26t-20 -23t-17.5 -26.5zM54 692h301v-91h-203v-200h198v-90h-198v-220h206v-91h-304v692z
" />
    <glyph glyph-name="uni1EBB" unicode="&#x1ebb;" horiz-adv-x="566" 
d="M257 607q8 19 17.5 31.5t18 22.5t14 18t5.5 18q0 12 -6.5 19t-16.5 7q-15 0 -25 -8.5t-27 -31.5l-53 27q24 44 46.5 60.5t58.5 16.5q38 0 63 -23t25 -58q0 -22 -7 -36.5t-16.5 -26t-20 -23t-17.5 -26.5zM122 239q5 -76 51 -119.5t122 -43.5q64 0 102.5 29t64.5 77l73 -38
q-13 -31 -34.5 -58.5t-51.5 -48.5t-68.5 -33.5t-85.5 -12.5q-60 0 -110 19.5t-86 55.5t-55.5 86.5t-19.5 113.5q0 61 19.5 112t54 88t82.5 57.5t105 20.5q59 0 107 -18.5t82 -52.5t53 -82.5t20 -108.5v-19.5t-2 -23.5h-423zM284 462q-66 0 -108 -39t-51 -107h323
q-5 66 -49.5 106t-114.5 40z" />
    <glyph glyph-name="uni1EBC" unicode="&#x1ebc;" horiz-adv-x="393" 
d="M252 753q-18 0 -31.5 6t-25.5 13t-23 13.5t-23 6.5q-30 -2 -30 -38h-62q-2 44 21.5 73.5t66.5 30.5q18 0 31.5 -6t24.5 -13t22 -13t23 -6q28 0 30 38h62q1 -48 -22.5 -76.5t-63.5 -28.5zM54 692h301v-91h-203v-200h198v-90h-198v-220h206v-91h-304v692z" />
    <glyph glyph-name="uni1EBD" unicode="&#x1ebd;" horiz-adv-x="566" 
d="M338 596q-18 0 -31.5 6t-25.5 13t-23 13.5t-23 6.5q-30 -2 -30 -38h-62q-2 44 21.5 73.5t66.5 30.5q18 0 31.5 -6t24.5 -13t22 -13t23 -6q28 0 30 38h62q1 -48 -22.5 -76.5t-63.5 -28.5zM122 239q5 -76 51 -119.5t122 -43.5q64 0 102.5 29t64.5 77l73 -38
q-13 -31 -34.5 -58.5t-51.5 -48.5t-68.5 -33.5t-85.5 -12.5q-60 0 -110 19.5t-86 55.5t-55.5 86.5t-19.5 113.5q0 61 19.5 112t54 88t82.5 57.5t105 20.5q59 0 107 -18.5t82 -52.5t53 -82.5t20 -108.5v-19.5t-2 -23.5h-423zM284 462q-66 0 -108 -39t-51 -107h323
q-5 66 -49.5 106t-114.5 40z" />
    <glyph glyph-name="uni1EBE" unicode="&#x1ebe;" horiz-adv-x="393" 
d="M395 806h-83l67 112h86zM337 735h-82l-58 61l-57 -61h-83l96 112h88zM54 692h301v-91h-203v-200h198v-90h-198v-220h206v-91h-304v692z" />
    <glyph glyph-name="uni1EBF" unicode="&#x1ebf;" horiz-adv-x="566" 
d="M481 649h-83l67 112h86zM423 578h-82l-58 61l-57 -61h-83l96 112h88zM122 239q5 -76 51 -119.5t122 -43.5q64 0 102.5 29t64.5 77l73 -38q-13 -31 -34.5 -58.5t-51.5 -48.5t-68.5 -33.5t-85.5 -12.5q-60 0 -110 19.5t-86 55.5t-55.5 86.5t-19.5 113.5q0 61 19.5 112
t54 88t82.5 57.5t105 20.5q59 0 107 -18.5t82 -52.5t53 -82.5t20 -108.5v-19.5t-2 -23.5h-423zM284 462q-66 0 -108 -39t-51 -107h323q-5 66 -49.5 106t-114.5 40z" />
    <glyph glyph-name="uni1EC0" unicode="&#x1ec0;" horiz-adv-x="393" 
d="M408 814h-81l-70 112h85zM337 735h-82l-58 61l-57 -61h-83l96 112h88zM54 692h301v-91h-203v-200h198v-90h-198v-220h206v-91h-304v692z" />
    <glyph glyph-name="uni1EC1" unicode="&#x1ec1;" horiz-adv-x="566" 
d="M494 657h-81l-70 112h85zM423 578h-82l-58 61l-57 -61h-83l96 112h88zM122 239q5 -76 51 -119.5t122 -43.5q64 0 102.5 29t64.5 77l73 -38q-13 -31 -34.5 -58.5t-51.5 -48.5t-68.5 -33.5t-85.5 -12.5q-60 0 -110 19.5t-86 55.5t-55.5 86.5t-19.5 113.5q0 61 19.5 112
t54 88t82.5 57.5t105 20.5q59 0 107 -18.5t82 -52.5t53 -82.5t20 -108.5v-19.5t-2 -23.5h-423zM284 462q-66 0 -108 -39t-51 -107h323q-5 66 -49.5 106t-114.5 40z" />
    <glyph glyph-name="uni1EC2" unicode="&#x1ec2;" horiz-adv-x="393" 
d="M328 806q8 19 17.5 31.5t18 22.5t14 18t5.5 18q0 12 -6.5 19t-16.5 7q-15 0 -25 -8.5t-27 -31.5l-53 27q24 44 46.5 60.5t58.5 16.5q38 0 63 -23t25 -58q0 -22 -7 -36.5t-16.5 -26t-20 -23t-17.5 -26.5zM337 735h-82l-58 61l-57 -61h-83l96 112h88zM54 692h301v-91h-203
v-200h198v-90h-198v-220h206v-91h-304v692z" />
    <glyph glyph-name="uni1EC3" unicode="&#x1ec3;" horiz-adv-x="566" 
d="M414 649q8 19 17.5 31.5t18 22.5t14 18t5.5 18q0 12 -6.5 19t-16.5 7q-15 0 -25 -8.5t-27 -31.5l-53 27q24 44 46.5 60.5t58.5 16.5q38 0 63 -23t25 -58q0 -22 -7 -36.5t-16.5 -26t-20 -23t-17.5 -26.5zM423 578h-82l-58 61l-57 -61h-83l96 112h88zM122 239
q5 -76 51 -119.5t122 -43.5q64 0 102.5 29t64.5 77l73 -38q-13 -31 -34.5 -58.5t-51.5 -48.5t-68.5 -33.5t-85.5 -12.5q-60 0 -110 19.5t-86 55.5t-55.5 86.5t-19.5 113.5q0 61 19.5 112t54 88t82.5 57.5t105 20.5q59 0 107 -18.5t82 -52.5t53 -82.5t20 -108.5v-19.5
t-2 -23.5h-423zM284 462q-66 0 -108 -39t-51 -107h323q-5 66 -49.5 106t-114.5 40z" />
    <glyph glyph-name="uni1EC4" unicode="&#x1ec4;" horiz-adv-x="393" 
d="M252 874q-18 0 -31.5 6t-25.5 13t-23 13.5t-23 6.5q-30 -2 -30 -38h-62q-2 44 21.5 73.5t66.5 30.5q18 0 31.5 -6t24.5 -13t22 -13t23 -6q28 0 30 38h62q1 -48 -22.5 -76.5t-63.5 -28.5zM337 735h-82l-58 61l-57 -61h-83l96 112h88zM54 692h301v-91h-203v-200h198v-90
h-198v-220h206v-91h-304v692z" />
    <glyph glyph-name="uni1EC5" unicode="&#x1ec5;" horiz-adv-x="566" 
d="M338 717q-18 0 -31.5 6t-25.5 13t-23 13.5t-23 6.5q-30 -2 -30 -38h-62q-2 44 21.5 73.5t66.5 30.5q18 0 31.5 -6t24.5 -13t22 -13t23 -6q28 0 30 38h62q1 -48 -22.5 -76.5t-63.5 -28.5zM423 578h-82l-58 61l-57 -61h-83l96 112h88zM122 239q5 -76 51 -119.5t122 -43.5
q64 0 102.5 29t64.5 77l73 -38q-13 -31 -34.5 -58.5t-51.5 -48.5t-68.5 -33.5t-85.5 -12.5q-60 0 -110 19.5t-86 55.5t-55.5 86.5t-19.5 113.5q0 61 19.5 112t54 88t82.5 57.5t105 20.5q59 0 107 -18.5t82 -52.5t53 -82.5t20 -108.5v-19.5t-2 -23.5h-423zM284 462
q-66 0 -108 -39t-51 -107h323q-5 66 -49.5 106t-114.5 40z" />
    <glyph glyph-name="uni1EC6" unicode="&#x1ec6;" horiz-adv-x="393" 
d="M337 735h-82l-58 61l-57 -61h-83l96 112h88zM54 692h301v-91h-203v-200h198v-90h-198v-220h206v-91h-304v692zM199 -163q-26 0 -44 17.5t-18 43.5t17.5 43.5t43.5 17.5t44 -17.5t18 -43.5t-17.5 -43.5t-43.5 -17.5z" />
    <glyph glyph-name="uni1EC7" unicode="&#x1ec7;" horiz-adv-x="566" 
d="M423 578h-82l-58 61l-57 -61h-83l96 112h88zM122 239q5 -76 51 -119.5t122 -43.5q64 0 102.5 29t64.5 77l73 -38q-13 -31 -34.5 -58.5t-51.5 -48.5t-68.5 -33.5t-85.5 -12.5q-60 0 -110 19.5t-86 55.5t-55.5 86.5t-19.5 113.5q0 61 19.5 112t54 88t82.5 57.5t105 20.5
q59 0 107 -18.5t82 -52.5t53 -82.5t20 -108.5v-19.5t-2 -23.5h-423zM284 462q-66 0 -108 -39t-51 -107h323q-5 66 -49.5 106t-114.5 40zM285 -163q-26 0 -44 17.5t-18 43.5t17.5 43.5t43.5 17.5t44 -17.5t18 -43.5t-17.5 -43.5t-43.5 -17.5z" />
    <glyph glyph-name="uni1EC8" unicode="&#x1ec8;" horiz-adv-x="206" 
d="M77 764q8 19 17.5 31.5t18 22.5t14 18t5.5 18q0 12 -6.5 19t-16.5 7q-15 0 -25 -8.5t-27 -31.5l-53 27q24 44 46.5 60.5t58.5 16.5q38 0 63 -23t25 -58q0 -22 -7 -36.5t-16.5 -26t-20 -23t-17.5 -26.5zM54 0v692h98v-692h-98z" />
    <glyph glyph-name="uni1EC9" unicode="&#x1ec9;" horiz-adv-x="192" 
d="M70 607q8 19 17.5 31.5t18 22.5t14 18t5.5 18q0 12 -6.5 19t-16.5 7q-15 0 -25 -8.5t-27 -31.5l-53 27q24 44 46.5 60.5t58.5 16.5q38 0 63 -23t25 -58q0 -22 -7 -36.5t-16.5 -26t-20 -23t-17.5 -26.5zM49 0v535h95v-535h-95z" />
    <glyph glyph-name="uni1ECA" unicode="&#x1eca;" horiz-adv-x="206" 
d="M54 0v692h98v-692h-98zM105 -163q-26 0 -44 17.5t-18 43.5t17.5 43.5t43.5 17.5t44 -17.5t18 -43.5t-17.5 -43.5t-43.5 -17.5z" />
    <glyph glyph-name="uni1ECB" unicode="&#x1ecb;" horiz-adv-x="193" 
d="M96 587q-26 0 -44.5 18.5t-18.5 44.5q0 27 18.5 45t44.5 18t45 -18t19 -45q0 -26 -19 -44.5t-45 -18.5zM49 0v535h95v-535h-95zM99 -163q-26 0 -44 17.5t-18 43.5t17.5 43.5t43.5 17.5t44 -17.5t18 -43.5t-17.5 -43.5t-43.5 -17.5z" />
    <glyph glyph-name="uni1ECC" unicode="&#x1ecc;" horiz-adv-x="761" 
d="M26 346q0 78 26.5 144t73.5 114t112 75t141 27q79 0 144.5 -27t112.5 -75t73 -114t26 -143t-26 -143t-73 -114t-112.5 -75.5t-143.5 -27.5t-143.5 26.5t-112 74.5t-72.5 114t-26 144zM129 346q0 -59 18.5 -108t51.5 -84.5t79.5 -55.5t101.5 -20q57 0 103.5 20t79.5 55.5
t51 85t18 107.5q0 59 -18.5 108t-51.5 85t-79.5 56t-102.5 20q-57 0 -103 -20t-79 -56t-51 -85t-18 -108zM383 -163q-26 0 -44 17.5t-18 43.5t17.5 43.5t43.5 17.5t44 -17.5t18 -43.5t-17.5 -43.5t-43.5 -17.5z" />
    <glyph glyph-name="uni1ECD" unicode="&#x1ecd;" horiz-adv-x="600" 
d="M24 267q0 61 21 112t58 87.5t87.5 57t109.5 20.5q60 0 111 -20.5t87.5 -57.5t57 -87.5t20.5 -110.5t-21 -111t-58 -87.5t-88 -57.5t-110 -21q-60 0 -110.5 20t-87 56.5t-57 87.5t-20.5 112zM120 267q0 -42 13.5 -76.5t37.5 -60t57 -39.5t72 -14q40 0 73 14t57 39.5t37 60
t13 76.5q0 41 -13.5 76t-37.5 60.5t-57 40t-72 14.5q-40 0 -73 -14t-57 -39.5t-37 -60.5t-13 -77zM302 -163q-26 0 -44 17.5t-18 43.5t17.5 43.5t43.5 17.5t44 -17.5t18 -43.5t-17.5 -43.5t-43.5 -17.5z" />
    <glyph glyph-name="uni1ECE" unicode="&#x1ece;" horiz-adv-x="761" 
d="M355 764q8 19 17.5 31.5t18 22.5t14 18t5.5 18q0 12 -6.5 19t-16.5 7q-15 0 -25 -8.5t-27 -31.5l-53 27q24 44 46.5 60.5t58.5 16.5q38 0 63 -23t25 -58q0 -22 -7 -36.5t-16.5 -26t-20 -23t-17.5 -26.5zM26 346q0 78 26.5 144t73.5 114t112 75t141 27q79 0 144.5 -27
t112.5 -75t73 -114t26 -143t-26 -143t-73 -114t-112.5 -75.5t-143.5 -27.5t-143.5 26.5t-112 74.5t-72.5 114t-26 144zM129 346q0 -59 18.5 -108t51.5 -84.5t79.5 -55.5t101.5 -20q57 0 103.5 20t79.5 55.5t51 85t18 107.5q0 59 -18.5 108t-51.5 85t-79.5 56t-102.5 20
q-57 0 -103 -20t-79 -56t-51 -85t-18 -108z" />
    <glyph glyph-name="uni1ECF" unicode="&#x1ecf;" horiz-adv-x="600" 
d="M274 607q8 19 17.5 31.5t18 22.5t14 18t5.5 18q0 12 -6.5 19t-16.5 7q-15 0 -25 -8.5t-27 -31.5l-53 27q24 44 46.5 60.5t58.5 16.5q38 0 63 -23t25 -58q0 -22 -7 -36.5t-16.5 -26t-20 -23t-17.5 -26.5zM24 267q0 61 21 112t58 87.5t87.5 57t109.5 20.5q60 0 111 -20.5
t87.5 -57.5t57 -87.5t20.5 -110.5t-21 -111t-58 -87.5t-88 -57.5t-110 -21q-60 0 -110.5 20t-87 56.5t-57 87.5t-20.5 112zM120 267q0 -42 13.5 -76.5t37.5 -60t57 -39.5t72 -14q40 0 73 14t57 39.5t37 60t13 76.5q0 41 -13.5 76t-37.5 60.5t-57 40t-72 14.5q-40 0 -73 -14
t-57 -39.5t-37 -60.5t-13 -77z" />
    <glyph glyph-name="uni1ED0" unicode="&#x1ed0;" horiz-adv-x="761" 
d="M579 806h-83l67 112h86zM521 735h-82l-58 61l-57 -61h-83l96 112h88zM26 346q0 78 26.5 144t73.5 114t112 75t141 27q79 0 144.5 -27t112.5 -75t73 -114t26 -143t-26 -143t-73 -114t-112.5 -75.5t-143.5 -27.5t-143.5 26.5t-112 74.5t-72.5 114t-26 144zM129 346
q0 -59 18.5 -108t51.5 -84.5t79.5 -55.5t101.5 -20q57 0 103.5 20t79.5 55.5t51 85t18 107.5q0 59 -18.5 108t-51.5 85t-79.5 56t-102.5 20q-57 0 -103 -20t-79 -56t-51 -85t-18 -108z" />
    <glyph glyph-name="uni1ED1" unicode="&#x1ed1;" horiz-adv-x="600" 
d="M498 649h-83l67 112h86zM440 578h-82l-58 61l-57 -61h-83l96 112h88zM24 267q0 61 21 112t58 87.5t87.5 57t109.5 20.5q60 0 111 -20.5t87.5 -57.5t57 -87.5t20.5 -110.5t-21 -111t-58 -87.5t-88 -57.5t-110 -21q-60 0 -110.5 20t-87 56.5t-57 87.5t-20.5 112zM120 267
q0 -42 13.5 -76.5t37.5 -60t57 -39.5t72 -14q40 0 73 14t57 39.5t37 60t13 76.5q0 41 -13.5 76t-37.5 60.5t-57 40t-72 14.5q-40 0 -73 -14t-57 -39.5t-37 -60.5t-13 -77z" />
    <glyph glyph-name="uni1ED2" unicode="&#x1ed2;" horiz-adv-x="761" 
d="M592 814h-81l-70 112h85zM521 735h-82l-58 61l-57 -61h-83l96 112h88zM26 346q0 78 26.5 144t73.5 114t112 75t141 27q79 0 144.5 -27t112.5 -75t73 -114t26 -143t-26 -143t-73 -114t-112.5 -75.5t-143.5 -27.5t-143.5 26.5t-112 74.5t-72.5 114t-26 144zM129 346
q0 -59 18.5 -108t51.5 -84.5t79.5 -55.5t101.5 -20q57 0 103.5 20t79.5 55.5t51 85t18 107.5q0 59 -18.5 108t-51.5 85t-79.5 56t-102.5 20q-57 0 -103 -20t-79 -56t-51 -85t-18 -108z" />
    <glyph glyph-name="uni1ED3" unicode="&#x1ed3;" horiz-adv-x="600" 
d="M511 657h-81l-70 112h85zM440 578h-82l-58 61l-57 -61h-83l96 112h88zM24 267q0 61 21 112t58 87.5t87.5 57t109.5 20.5q60 0 111 -20.5t87.5 -57.5t57 -87.5t20.5 -110.5t-21 -111t-58 -87.5t-88 -57.5t-110 -21q-60 0 -110.5 20t-87 56.5t-57 87.5t-20.5 112zM120 267
q0 -42 13.5 -76.5t37.5 -60t57 -39.5t72 -14q40 0 73 14t57 39.5t37 60t13 76.5q0 41 -13.5 76t-37.5 60.5t-57 40t-72 14.5q-40 0 -73 -14t-57 -39.5t-37 -60.5t-13 -77z" />
    <glyph glyph-name="uni1ED4" unicode="&#x1ed4;" horiz-adv-x="761" 
d="M512 806q8 19 17.5 31.5t18 22.5t14 18t5.5 18q0 12 -6.5 19t-16.5 7q-15 0 -25 -8.5t-27 -31.5l-53 27q24 44 46.5 60.5t58.5 16.5q38 0 63 -23t25 -58q0 -22 -7 -36.5t-16.5 -26t-20 -23t-17.5 -26.5zM521 735h-82l-58 61l-57 -61h-83l96 112h88zM26 346q0 78 26.5 144
t73.5 114t112 75t141 27q79 0 144.5 -27t112.5 -75t73 -114t26 -143t-26 -143t-73 -114t-112.5 -75.5t-143.5 -27.5t-143.5 26.5t-112 74.5t-72.5 114t-26 144zM129 346q0 -59 18.5 -108t51.5 -84.5t79.5 -55.5t101.5 -20q57 0 103.5 20t79.5 55.5t51 85t18 107.5
q0 59 -18.5 108t-51.5 85t-79.5 56t-102.5 20q-57 0 -103 -20t-79 -56t-51 -85t-18 -108z" />
    <glyph glyph-name="uni1ED5" unicode="&#x1ed5;" horiz-adv-x="600" 
d="M431 649q8 19 17.5 31.5t18 22.5t14 18t5.5 18q0 12 -6.5 19t-16.5 7q-15 0 -25 -8.5t-27 -31.5l-53 27q24 44 46.5 60.5t58.5 16.5q38 0 63 -23t25 -58q0 -22 -7 -36.5t-16.5 -26t-20 -23t-17.5 -26.5zM440 578h-82l-58 61l-57 -61h-83l96 112h88zM24 267q0 61 21 112
t58 87.5t87.5 57t109.5 20.5q60 0 111 -20.5t87.5 -57.5t57 -87.5t20.5 -110.5t-21 -111t-58 -87.5t-88 -57.5t-110 -21q-60 0 -110.5 20t-87 56.5t-57 87.5t-20.5 112zM120 267q0 -42 13.5 -76.5t37.5 -60t57 -39.5t72 -14q40 0 73 14t57 39.5t37 60t13 76.5q0 41 -13.5 76
t-37.5 60.5t-57 40t-72 14.5q-40 0 -73 -14t-57 -39.5t-37 -60.5t-13 -77z" />
    <glyph glyph-name="uni1ED6" unicode="&#x1ed6;" horiz-adv-x="761" 
d="M436 874q-18 0 -31.5 6t-25.5 13t-23 13.5t-23 6.5q-30 -2 -30 -38h-62q-2 44 21.5 73.5t66.5 30.5q18 0 31.5 -6t24.5 -13t22 -13t23 -6q28 0 30 38h62q1 -48 -22.5 -76.5t-63.5 -28.5zM521 735h-82l-58 61l-57 -61h-83l96 112h88zM26 346q0 78 26.5 144t73.5 114
t112 75t141 27q79 0 144.5 -27t112.5 -75t73 -114t26 -143t-26 -143t-73 -114t-112.5 -75.5t-143.5 -27.5t-143.5 26.5t-112 74.5t-72.5 114t-26 144zM129 346q0 -59 18.5 -108t51.5 -84.5t79.5 -55.5t101.5 -20q57 0 103.5 20t79.5 55.5t51 85t18 107.5q0 59 -18.5 108
t-51.5 85t-79.5 56t-102.5 20q-57 0 -103 -20t-79 -56t-51 -85t-18 -108z" />
    <glyph glyph-name="uni1ED7" unicode="&#x1ed7;" horiz-adv-x="600" 
d="M355 717q-18 0 -31.5 6t-25.5 13t-23 13.5t-23 6.5q-30 -2 -30 -38h-62q-2 44 21.5 73.5t66.5 30.5q18 0 31.5 -6t24.5 -13t22 -13t23 -6q28 0 30 38h62q1 -48 -22.5 -76.5t-63.5 -28.5zM440 578h-82l-58 61l-57 -61h-83l96 112h88zM24 267q0 61 21 112t58 87.5t87.5 57
t109.5 20.5q60 0 111 -20.5t87.5 -57.5t57 -87.5t20.5 -110.5t-21 -111t-58 -87.5t-88 -57.5t-110 -21q-60 0 -110.5 20t-87 56.5t-57 87.5t-20.5 112zM120 267q0 -42 13.5 -76.5t37.5 -60t57 -39.5t72 -14q40 0 73 14t57 39.5t37 60t13 76.5q0 41 -13.5 76t-37.5 60.5
t-57 40t-72 14.5q-40 0 -73 -14t-57 -39.5t-37 -60.5t-13 -77z" />
    <glyph glyph-name="uni1ED8" unicode="&#x1ed8;" horiz-adv-x="761" 
d="M521 735h-82l-58 61l-57 -61h-83l96 112h88zM26 346q0 78 26.5 144t73.5 114t112 75t141 27q79 0 144.5 -27t112.5 -75t73 -114t26 -143t-26 -143t-73 -114t-112.5 -75.5t-143.5 -27.5t-143.5 26.5t-112 74.5t-72.5 114t-26 144zM129 346q0 -59 18.5 -108t51.5 -84.5
t79.5 -55.5t101.5 -20q57 0 103.5 20t79.5 55.5t51 85t18 107.5q0 59 -18.5 108t-51.5 85t-79.5 56t-102.5 20q-57 0 -103 -20t-79 -56t-51 -85t-18 -108zM383 -163q-26 0 -44 17.5t-18 43.5t17.5 43.5t43.5 17.5t44 -17.5t18 -43.5t-17.5 -43.5t-43.5 -17.5z" />
    <glyph glyph-name="uni1ED9" unicode="&#x1ed9;" horiz-adv-x="600" 
d="M440 578h-82l-58 61l-57 -61h-83l96 112h88zM24 267q0 61 21 112t58 87.5t87.5 57t109.5 20.5q60 0 111 -20.5t87.5 -57.5t57 -87.5t20.5 -110.5t-21 -111t-58 -87.5t-88 -57.5t-110 -21q-60 0 -110.5 20t-87 56.5t-57 87.5t-20.5 112zM120 267q0 -42 13.5 -76.5
t37.5 -60t57 -39.5t72 -14q40 0 73 14t57 39.5t37 60t13 76.5q0 41 -13.5 76t-37.5 60.5t-57 40t-72 14.5q-40 0 -73 -14t-57 -39.5t-37 -60.5t-13 -77zM302 -163q-26 0 -44 17.5t-18 43.5t17.5 43.5t43.5 17.5t44 -17.5t18 -43.5t-17.5 -43.5t-43.5 -17.5z" />
    <glyph glyph-name="uni1EDA" unicode="&#x1eda;" horiz-adv-x="761" 
d="M425 744h-83l67 112h86zM588 644q69 -48 108 -124.5t39 -172.5q0 -77 -26 -143t-73 -114t-112.5 -75.5t-143.5 -27.5t-143.5 26.5t-112 74.5t-72.5 114t-26 144t26.5 144t73.5 114t112 75t141 27q55 0 106 -14q23 0 41.5 2t31.5 10t21.5 24.5t12.5 44.5h72
q-10 -96 -76 -129zM380 78q57 0 103.5 20t79.5 55.5t51 85t18 107.5q0 59 -18.5 108t-51.5 85t-79.5 56t-102.5 20q-57 0 -103 -20t-79 -56t-51 -85t-18 -108t18.5 -108t51.5 -84.5t79.5 -55.5t101.5 -20z" />
    <glyph glyph-name="uni1EDB" unicode="&#x1edb;" horiz-adv-x="600" 
d="M344 587h-83l67 112h86zM477 485q47 -37 73 -92.5t26 -124.5q0 -60 -21 -111t-58 -87.5t-88 -57.5t-110 -21q-60 0 -110.5 20t-87 56.5t-57 87.5t-20.5 112t21 112t58 87.5t87.5 57t109.5 20.5q41 0 75 -9q24 0 43 1.5t33 10t22.5 25t12.5 44.5h72q-6 -51 -25.5 -82.5
t-55.5 -48.5zM300 77q40 0 73 14t57 39.5t37 60t13 76.5q0 41 -13.5 76t-37.5 60.5t-57 40t-72 14.5q-40 0 -73 -14t-57 -39.5t-37 -60.5t-13 -77t13.5 -76.5t37.5 -60t57 -39.5t72 -14z" />
    <glyph glyph-name="uni1EDC" unicode="&#x1edc;" horiz-adv-x="761" 
d="M337 734l-70 112h85l66 -112h-81zM588 644q69 -48 108 -124.5t39 -172.5q0 -77 -26 -143t-73 -114t-112.5 -75.5t-143.5 -27.5t-143.5 26.5t-112 74.5t-72.5 114t-26 144t26.5 144t73.5 114t112 75t141 27q55 0 106 -14q23 0 41.5 2t31.5 10t21.5 24.5t12.5 44.5h72
q-10 -96 -76 -129zM380 78q57 0 103.5 20t79.5 55.5t51 85t18 107.5q0 59 -18.5 108t-51.5 85t-79.5 56t-102.5 20q-57 0 -103 -20t-79 -56t-51 -85t-18 -108t18.5 -108t51.5 -84.5t79.5 -55.5t101.5 -20z" />
    <glyph glyph-name="uni1EDD" unicode="&#x1edd;" horiz-adv-x="600" 
d="M256 577l-70 112h85l66 -112h-81zM477 485q47 -37 73 -92.5t26 -124.5q0 -60 -21 -111t-58 -87.5t-88 -57.5t-110 -21q-60 0 -110.5 20t-87 56.5t-57 87.5t-20.5 112t21 112t58 87.5t87.5 57t109.5 20.5q41 0 75 -9q24 0 43 1.5t33 10t22.5 25t12.5 44.5h72
q-6 -51 -25.5 -82.5t-55.5 -48.5zM300 77q40 0 73 14t57 39.5t37 60t13 76.5q0 41 -13.5 76t-37.5 60.5t-57 40t-72 14.5q-40 0 -73 -14t-57 -39.5t-37 -60.5t-13 -77t13.5 -76.5t37.5 -60t57 -39.5t72 -14z" />
    <glyph glyph-name="uni1EDE" unicode="&#x1ede;" horiz-adv-x="761" 
d="M387 880q-15 0 -25 -8.5t-27 -31.5l-53 27q24 44 46.5 60.5t58.5 16.5q38 0 63 -23t25 -58q0 -22 -7 -36.5t-16.5 -26t-20 -23t-17.5 -26.5l-59 13q8 19 17.5 31.5t18 22.5t14 18t5.5 18q0 12 -6.5 19t-16.5 7zM588 644q69 -48 108 -124.5t39 -172.5q0 -77 -26 -143
t-73 -114t-112.5 -75.5t-143.5 -27.5t-143.5 26.5t-112 74.5t-72.5 114t-26 144t26.5 144t73.5 114t112 75t141 27q55 0 106 -14q23 0 41.5 2t31.5 10t21.5 24.5t12.5 44.5h72q-10 -96 -76 -129zM380 78q57 0 103.5 20t79.5 55.5t51 85t18 107.5q0 59 -18.5 108t-51.5 85
t-79.5 56t-102.5 20q-57 0 -103 -20t-79 -56t-51 -85t-18 -108t18.5 -108t51.5 -84.5t79.5 -55.5t101.5 -20z" />
    <glyph glyph-name="uni1EDF" unicode="&#x1edf;" horiz-adv-x="600" 
d="M306 723q-15 0 -25 -8.5t-27 -31.5l-53 27q24 44 46.5 60.5t58.5 16.5q38 0 63 -23t25 -58q0 -22 -7 -36.5t-16.5 -26t-20 -23t-17.5 -26.5l-59 13q8 19 17.5 31.5t18 22.5t14 18t5.5 18q0 12 -6.5 19t-16.5 7zM477 485q47 -37 73 -92.5t26 -124.5q0 -60 -21 -111
t-58 -87.5t-88 -57.5t-110 -21q-60 0 -110.5 20t-87 56.5t-57 87.5t-20.5 112t21 112t58 87.5t87.5 57t109.5 20.5q41 0 75 -9q24 0 43 1.5t33 10t22.5 25t12.5 44.5h72q-6 -51 -25.5 -82.5t-55.5 -48.5zM300 77q40 0 73 14t57 39.5t37 60t13 76.5q0 41 -13.5 76t-37.5 60.5
t-57 40t-72 14.5q-40 0 -73 -14t-57 -39.5t-37 -60.5t-13 -77t13.5 -76.5t37.5 -60t57 -39.5t72 -14z" />
    <glyph glyph-name="uni1EE0" unicode="&#x1ee0;" horiz-adv-x="761" 
d="M241 754q-2 44 21.5 73.5t66.5 30.5q18 0 31.5 -6t24.5 -13t22 -13t23 -6q28 0 30 38h62q1 -48 -22.5 -76.5t-63.5 -28.5q-18 0 -31.5 6t-25.5 13t-23 13.5t-23 6.5q-30 -2 -30 -38h-62zM588 644q69 -48 108 -124.5t39 -172.5q0 -77 -26 -143t-73 -114t-112.5 -75.5
t-143.5 -27.5t-143.5 26.5t-112 74.5t-72.5 114t-26 144t26.5 144t73.5 114t112 75t141 27q55 0 106 -14q23 0 41.5 2t31.5 10t21.5 24.5t12.5 44.5h72q-10 -96 -76 -129zM380 78q57 0 103.5 20t79.5 55.5t51 85t18 107.5q0 59 -18.5 108t-51.5 85t-79.5 56t-102.5 20
q-57 0 -103 -20t-79 -56t-51 -85t-18 -108t18.5 -108t51.5 -84.5t79.5 -55.5t101.5 -20z" />
    <glyph glyph-name="uni1EE1" unicode="&#x1ee1;" horiz-adv-x="600" 
d="M160 597q-2 44 21.5 73.5t66.5 30.5q18 0 31.5 -6t24.5 -13t22 -13t23 -6q28 0 30 38h62q1 -48 -22.5 -76.5t-63.5 -28.5q-18 0 -31.5 6t-25.5 13t-23 13.5t-23 6.5q-30 -2 -30 -38h-62zM477 485q47 -37 73 -92.5t26 -124.5q0 -60 -21 -111t-58 -87.5t-88 -57.5t-110 -21
q-60 0 -110.5 20t-87 56.5t-57 87.5t-20.5 112t21 112t58 87.5t87.5 57t109.5 20.5q41 0 75 -9q24 0 43 1.5t33 10t22.5 25t12.5 44.5h72q-6 -51 -25.5 -82.5t-55.5 -48.5zM300 77q40 0 73 14t57 39.5t37 60t13 76.5q0 41 -13.5 76t-37.5 60.5t-57 40t-72 14.5
q-40 0 -73 -14t-57 -39.5t-37 -60.5t-13 -77t13.5 -76.5t37.5 -60t57 -39.5t72 -14z" />
    <glyph glyph-name="uni1EE2" unicode="&#x1ee2;" horiz-adv-x="761" 
d="M588 644q69 -48 108 -124.5t39 -172.5q0 -77 -26 -143t-73 -114t-112.5 -75.5t-143.5 -27.5t-143.5 26.5t-112 74.5t-72.5 114t-26 144t26.5 144t73.5 114t112 75t141 27q55 0 106 -14q23 0 41.5 2t31.5 10t21.5 24.5t12.5 44.5h72q-10 -96 -76 -129zM380 78
q57 0 103.5 20t79.5 55.5t51 85t18 107.5q0 59 -18.5 108t-51.5 85t-79.5 56t-102.5 20q-57 0 -103 -20t-79 -56t-51 -85t-18 -108t18.5 -108t51.5 -84.5t79.5 -55.5t101.5 -20zM382 -41q26 0 44 -17.5t18 -43.5t-17.5 -43.5t-43.5 -17.5t-44 17.5t-18 43.5t17.5 43.5
t43.5 17.5z" />
    <glyph glyph-name="uni1EE3" unicode="&#x1ee3;" horiz-adv-x="600" 
d="M477 485q47 -37 73 -92.5t26 -124.5q0 -60 -21 -111t-58 -87.5t-88 -57.5t-110 -21q-60 0 -110.5 20t-87 56.5t-57 87.5t-20.5 112t21 112t58 87.5t87.5 57t109.5 20.5q41 0 75 -9q24 0 43 1.5t33 10t22.5 25t12.5 44.5h72q-6 -51 -25.5 -82.5t-55.5 -48.5zM300 77
q40 0 73 14t57 39.5t37 60t13 76.5q0 41 -13.5 76t-37.5 60.5t-57 40t-72 14.5q-40 0 -73 -14t-57 -39.5t-37 -60.5t-13 -77t13.5 -76.5t37.5 -60t57 -39.5t72 -14zM301 -41q26 0 44 -17.5t18 -43.5t-17.5 -43.5t-43.5 -17.5t-44 17.5t-18 43.5t17.5 43.5t43.5 17.5z" />
    <glyph glyph-name="uni1EE4" unicode="&#x1ee4;" horiz-adv-x="624" 
d="M312 -13q-67 0 -116 19.5t-81.5 55.5t-48.5 86.5t-16 112.5v431h98v-431q0 -82 39.5 -132.5t125.5 -50.5q81 0 122.5 51.5t41.5 132.5v430h97v-431q0 -60 -17.5 -110t-50.5 -86.5t-82 -57t-112 -20.5zM314 -163q-26 0 -44 17.5t-18 43.5t17.5 43.5t43.5 17.5t44 -17.5
t18 -43.5t-17.5 -43.5t-43.5 -17.5z" />
    <glyph glyph-name="uni1EE5" unicode="&#x1ee5;" horiz-adv-x="475" 
d="M141 193q0 -54 22.5 -83.5t70.5 -29.5t72.5 31.5t24.5 84.5v339h96v-535h-95v49q-12 -19 -41 -37t-79 -18q-45 0 -76.5 14.5t-51.5 40t-29 59.5t-9 74v353h95v-342zM240 -163q-26 0 -44 17.5t-18 43.5t17.5 43.5t43.5 17.5t44 -17.5t18 -43.5t-17.5 -43.5t-43.5 -17.5z
" />
    <glyph glyph-name="uni1EE6" unicode="&#x1ee6;" horiz-adv-x="624" 
d="M286 764q8 19 17.5 31.5t18 22.5t14 18t5.5 18q0 12 -6.5 19t-16.5 7q-15 0 -25 -8.5t-27 -31.5l-53 27q24 44 46.5 60.5t58.5 16.5q38 0 63 -23t25 -58q0 -22 -7 -36.5t-16.5 -26t-20 -23t-17.5 -26.5zM312 -13q-67 0 -116 19.5t-81.5 55.5t-48.5 86.5t-16 112.5v431h98
v-431q0 -82 39.5 -132.5t125.5 -50.5q81 0 122.5 51.5t41.5 132.5v430h97v-431q0 -60 -17.5 -110t-50.5 -86.5t-82 -57t-112 -20.5z" />
    <glyph glyph-name="uni1EE7" unicode="&#x1ee7;" horiz-adv-x="475" 
d="M212 607q8 19 17.5 31.5t18 22.5t14 18t5.5 18q0 12 -6.5 19t-16.5 7q-15 0 -25 -8.5t-27 -31.5l-53 27q24 44 46.5 60.5t58.5 16.5q38 0 63 -23t25 -58q0 -22 -7 -36.5t-16.5 -26t-20 -23t-17.5 -26.5zM141 193q0 -54 22.5 -83.5t70.5 -29.5t72.5 31.5t24.5 84.5v339h96
v-535h-95v49q-12 -19 -41 -37t-79 -18q-45 0 -76.5 14.5t-51.5 40t-29 59.5t-9 74v353h95v-342z" />
    <glyph glyph-name="uni1EE8" unicode="&#x1ee8;" horiz-adv-x="624" 
d="M356 744h-83l67 112h86zM698 773q-8 -64 -37.5 -98.5t-86.5 -45.5v-368q0 -60 -17.5 -110t-50.5 -86.5t-82 -57t-112 -20.5q-67 0 -116 19.5t-81.5 55.5t-48.5 86.5t-16 112.5v431h98v-431q0 -82 39.5 -132.5t125.5 -50.5q81 0 122.5 51.5t41.5 132.5v430h58
q39 1 61.5 15.5t29.5 65.5h72z" />
    <glyph glyph-name="uni1EE9" unicode="&#x1ee9;" horiz-adv-x="475" 
d="M282 587h-83l67 112h86zM549 616q-8 -63 -37 -98t-85 -46v-472h-95v49q-12 -19 -41 -37t-79 -18q-45 0 -76.5 14.5t-51.5 40t-29 59.5t-9 74v353h95v-342q0 -54 22.5 -83.5t70.5 -29.5t72.5 31.5t24.5 84.5v339h55q39 1 61.5 15.5t29.5 65.5h72z" />
    <glyph glyph-name="uni1EEA" unicode="&#x1eea;" horiz-adv-x="624" 
d="M268 734l-70 112h85l66 -112h-81zM698 773q-8 -64 -37.5 -98.5t-86.5 -45.5v-368q0 -60 -17.5 -110t-50.5 -86.5t-82 -57t-112 -20.5q-67 0 -116 19.5t-81.5 55.5t-48.5 86.5t-16 112.5v431h98v-431q0 -82 39.5 -132.5t125.5 -50.5q81 0 122.5 51.5t41.5 132.5v430h58
q39 1 61.5 15.5t29.5 65.5h72z" />
    <glyph glyph-name="uni1EEB" unicode="&#x1eeb;" horiz-adv-x="475" 
d="M194 577l-70 112h85l66 -112h-81zM549 616q-8 -63 -37 -98t-85 -46v-472h-95v49q-12 -19 -41 -37t-79 -18q-45 0 -76.5 14.5t-51.5 40t-29 59.5t-9 74v353h95v-342q0 -54 22.5 -83.5t70.5 -29.5t72.5 31.5t24.5 84.5v339h55q39 1 61.5 15.5t29.5 65.5h72z" />
    <glyph glyph-name="uni1EEC" unicode="&#x1eec;" horiz-adv-x="624" 
d="M318 880q-15 0 -25 -8.5t-27 -31.5l-53 27q24 44 46.5 60.5t58.5 16.5q38 0 63 -23t25 -58q0 -22 -7 -36.5t-16.5 -26t-20 -23t-17.5 -26.5l-59 13q8 19 17.5 31.5t18 22.5t14 18t5.5 18q0 12 -6.5 19t-16.5 7zM698 773q-8 -64 -37.5 -98.5t-86.5 -45.5v-368
q0 -60 -17.5 -110t-50.5 -86.5t-82 -57t-112 -20.5q-67 0 -116 19.5t-81.5 55.5t-48.5 86.5t-16 112.5v431h98v-431q0 -82 39.5 -132.5t125.5 -50.5q81 0 122.5 51.5t41.5 132.5v430h58q39 1 61.5 15.5t29.5 65.5h72z" />
    <glyph glyph-name="uni1EED" unicode="&#x1eed;" horiz-adv-x="475" 
d="M244 723q-15 0 -25 -8.5t-27 -31.5l-53 27q24 44 46.5 60.5t58.5 16.5q38 0 63 -23t25 -58q0 -22 -7 -36.5t-16.5 -26t-20 -23t-17.5 -26.5l-59 13q8 19 17.5 31.5t18 22.5t14 18t5.5 18q0 12 -6.5 19t-16.5 7zM549 616q-8 -63 -37 -98t-85 -46v-472h-95v49
q-12 -19 -41 -37t-79 -18q-45 0 -76.5 14.5t-51.5 40t-29 59.5t-9 74v353h95v-342q0 -54 22.5 -83.5t70.5 -29.5t72.5 31.5t24.5 84.5v339h55q39 1 61.5 15.5t29.5 65.5h72z" />
    <glyph glyph-name="uni1EEE" unicode="&#x1eee;" horiz-adv-x="624" 
d="M172 754q-2 44 21.5 73.5t66.5 30.5q18 0 31.5 -6t24.5 -13t22 -13t23 -6q28 0 30 38h62q1 -48 -22.5 -76.5t-63.5 -28.5q-18 0 -31.5 6t-25.5 13t-23 13.5t-23 6.5q-30 -2 -30 -38h-62zM698 773q-8 -64 -37.5 -98.5t-86.5 -45.5v-368q0 -60 -17.5 -110t-50.5 -86.5
t-82 -57t-112 -20.5q-67 0 -116 19.5t-81.5 55.5t-48.5 86.5t-16 112.5v431h98v-431q0 -82 39.5 -132.5t125.5 -50.5q81 0 122.5 51.5t41.5 132.5v430h58q39 1 61.5 15.5t29.5 65.5h72z" />
    <glyph glyph-name="uni1EEF" unicode="&#x1eef;" horiz-adv-x="475" 
d="M98 597q-2 44 21.5 73.5t66.5 30.5q18 0 31.5 -6t24.5 -13t22 -13t23 -6q28 0 30 38h62q1 -48 -22.5 -76.5t-63.5 -28.5q-18 0 -31.5 6t-25.5 13t-23 13.5t-23 6.5q-30 -2 -30 -38h-62zM549 616q-8 -63 -37 -98t-85 -46v-472h-95v49q-12 -19 -41 -37t-79 -18
q-45 0 -76.5 14.5t-51.5 40t-29 59.5t-9 74v353h95v-342q0 -54 22.5 -83.5t70.5 -29.5t72.5 31.5t24.5 84.5v339h55q39 1 61.5 15.5t29.5 65.5h72z" />
    <glyph glyph-name="uni1EF0" unicode="&#x1ef0;" horiz-adv-x="624" 
d="M698 773q-8 -64 -37.5 -98.5t-86.5 -45.5v-368q0 -60 -17.5 -110t-50.5 -86.5t-82 -57t-112 -20.5q-67 0 -116 19.5t-81.5 55.5t-48.5 86.5t-16 112.5v431h98v-431q0 -82 39.5 -132.5t125.5 -50.5q81 0 122.5 51.5t41.5 132.5v430h58q39 1 61.5 15.5t29.5 65.5h72z
M313 -41q26 0 44 -17.5t18 -43.5t-17.5 -43.5t-43.5 -17.5t-44 17.5t-18 43.5t17.5 43.5t43.5 17.5z" />
    <glyph glyph-name="uni1EF1" unicode="&#x1ef1;" horiz-adv-x="475" 
d="M549 616q-8 -63 -37 -98t-85 -46v-472h-95v49q-12 -19 -41 -37t-79 -18q-45 0 -76.5 14.5t-51.5 40t-29 59.5t-9 74v353h95v-342q0 -54 22.5 -83.5t70.5 -29.5t72.5 31.5t24.5 84.5v339h55q39 1 61.5 15.5t29.5 65.5h72zM239 -41q26 0 44 -17.5t18 -43.5t-17.5 -43.5
t-43.5 -17.5t-44 17.5t-18 43.5t17.5 43.5t43.5 17.5z" />
    <glyph glyph-name="Ygrave" unicode="&#x1ef2;" horiz-adv-x="481" 
d="M278 734h-81l-70 112h85zM106 692l137 -241l137 241h105l-196 -336v-356h-98v355l-195 337h110z" />
    <glyph glyph-name="ygrave" unicode="&#x1ef3;" horiz-adv-x="512" 
d="M293 577h-81l-70 112h85zM214 10l-216 525h105l160 -398l152 398h99l-278 -710h-93z" />
    <glyph glyph-name="uni1EF4" unicode="&#x1ef4;" horiz-adv-x="481" 
d="M106 692l137 -241l137 241h105l-196 -336v-356h-98v355l-195 337h110zM243 -163q-26 0 -44 17.5t-18 43.5t17.5 43.5t43.5 17.5t44 -17.5t18 -43.5t-17.5 -43.5t-43.5 -17.5z" />
    <glyph glyph-name="uni1EF5" unicode="&#x1ef5;" horiz-adv-x="512" 
d="M214 10l-216 525h105l160 -398l152 398h99l-278 -710h-93zM398 -163q-26 0 -44 17.5t-18 43.5t17.5 43.5t43.5 17.5t44 -17.5t18 -43.5t-17.5 -43.5t-43.5 -17.5z" />
    <glyph glyph-name="uni1EF6" unicode="&#x1ef6;" horiz-adv-x="481" 
d="M215 764q8 19 17.5 31.5t18 22.5t14 18t5.5 18q0 12 -6.5 19t-16.5 7q-15 0 -25 -8.5t-27 -31.5l-53 27q24 44 46.5 60.5t58.5 16.5q38 0 63 -23t25 -58q0 -22 -7 -36.5t-16.5 -26t-20 -23t-17.5 -26.5zM106 692l137 -241l137 241h105l-196 -336v-356h-98v355l-195 337
h110z" />
    <glyph glyph-name="uni1EF7" unicode="&#x1ef7;" horiz-adv-x="512" 
d="M230 607q8 19 17.5 31.5t18 22.5t14 18t5.5 18q0 12 -6.5 19t-16.5 7q-15 0 -25 -8.5t-27 -31.5l-53 27q24 44 46.5 60.5t58.5 16.5q38 0 63 -23t25 -58q0 -22 -7 -36.5t-16.5 -26t-20 -23t-17.5 -26.5zM214 10l-216 525h105l160 -398l152 398h99l-278 -710h-93z" />
    <glyph glyph-name="uni1EF8" unicode="&#x1ef8;" horiz-adv-x="481" 
d="M296 753q-18 0 -31.5 6t-25.5 13t-23 13.5t-23 6.5q-30 -2 -30 -38h-62q-2 44 21.5 73.5t66.5 30.5q18 0 31.5 -6t24.5 -13t22 -13t23 -6q28 0 30 38h62q1 -48 -22.5 -76.5t-63.5 -28.5zM106 692l137 -241l137 241h105l-196 -336v-356h-98v355l-195 337h110z" />
    <glyph glyph-name="uni1EF9" unicode="&#x1ef9;" horiz-adv-x="512" 
d="M311 596q-18 0 -31.5 6t-25.5 13t-23 13.5t-23 6.5q-30 -2 -30 -38h-62q-2 44 21.5 73.5t66.5 30.5q18 0 31.5 -6t24.5 -13t22 -13t23 -6q28 0 30 38h62q1 -48 -22.5 -76.5t-63.5 -28.5zM214 10l-216 525h105l160 -398l152 398h99l-278 -710h-93z" />
    <glyph glyph-name="uni2009" unicode="&#x2009;" horiz-adv-x="15" 
 />
    <glyph glyph-name="endash" unicode="&#x2013;" horiz-adv-x="605" 
d="M36 324h533v-80h-533v80z" />
    <glyph glyph-name="emdash" unicode="&#x2014;" horiz-adv-x="937" 
d="M36 324h865v-80h-865v80z" />
    <glyph glyph-name="quoteleft" unicode="&#x2018;" horiz-adv-x="179" 
d="M107 589q22 -6 35 -22t13 -39q0 -29 -18 -47.5t-47 -18.5t-47.5 18.5t-18.5 47.5q0 17 5 31.5t13 34.5l43 98h67z" />
    <glyph glyph-name="quoteright" unicode="&#x2019;" horiz-adv-x="179" 
d="M72 573q-22 6 -35.5 21.5t-13.5 38.5q0 29 18.5 47.5t47.5 18.5t47.5 -18.5t18.5 -47.5q0 -17 -5 -31.5t-14 -34.5l-42 -98h-67z" />
    <glyph glyph-name="quotesinglbase" unicode="&#x201a;" horiz-adv-x="179" 
d="M72 4q-22 6 -35.5 21.5t-13.5 38.5q0 29 18.5 47.5t47.5 18.5t47.5 -18.5t18.5 -47.5q0 -17 -5 -31.5t-14 -34.5l-42 -98h-67z" />
    <glyph glyph-name="quotedblleft" unicode="&#x201c;" horiz-adv-x="342" 
d="M107 589q22 -6 35 -22t13 -39q0 -29 -18 -47.5t-47 -18.5t-47.5 18.5t-18.5 47.5q0 17 5 31.5t13 34.5l43 98h67zM270 589q22 -6 35 -22t13 -39q0 -29 -18 -47.5t-47 -18.5t-47.5 18.5t-18.5 47.5q0 17 5 31.5t13 34.5l43 98h67z" />
    <glyph glyph-name="quotedblright" unicode="&#x201d;" horiz-adv-x="342" 
d="M72 573q-22 6 -35.5 21.5t-13.5 38.5q0 29 18.5 47.5t47.5 18.5t47.5 -18.5t18.5 -47.5q0 -17 -5 -31.5t-14 -34.5l-42 -98h-67zM235 573q-22 6 -35.5 21.5t-13.5 38.5q0 29 18.5 47.5t47.5 18.5t47.5 -18.5t18.5 -47.5q0 -17 -5 -31.5t-14 -34.5l-42 -98h-67z" />
    <glyph glyph-name="quotedblbase" unicode="&#x201e;" horiz-adv-x="344" 
d="M72 4q-22 6 -35.5 21.5t-13.5 38.5q0 29 18.5 47.5t47.5 18.5t47.5 -18.5t18.5 -47.5q0 -17 -5 -31.5t-14 -34.5l-42 -98h-67zM237 4q-22 6 -35.5 21.5t-13.5 38.5q0 29 18.5 47.5t47.5 18.5t47.5 -18.5t18.5 -47.5q0 -17 -5 -31.5t-14 -34.5l-42 -98h-67z" />
    <glyph glyph-name="dagger" unicode="&#x2020;" horiz-adv-x="364" 
d="M229 0h-94v459h-113v87h113v146h94v-146h112v-87h-112v-459z" />
    <glyph glyph-name="daggerdbl" unicode="&#x2021;" horiz-adv-x="371" 
d="M139 459h-113v87h113v146h94v-146h112v-87h-112v-218h112v-86h-112v-155h-94v155h-113v86h113v218z" />
    <glyph glyph-name="bullet" unicode="&#x2022;" horiz-adv-x="286" 
d="M25 297q0 25 9 46.5t25 37.5t37 25t46 9t47 -9t38 -25t25 -37.5t9 -46.5t-9 -46t-25 -37t-38 -25t-47 -9t-46 9t-37 25t-25 37t-9 46z" />
    <glyph glyph-name="ellipsis" unicode="&#x2026;" horiz-adv-x="570" 
d="M91 -9q-28 0 -47 19t-19 48t18.5 48t47.5 19t48 -19t19 -48t-19 -48t-48 -19zM284 -9q-28 0 -47 19t-19 48t18.5 48t47.5 19t48 -19t19 -48t-19 -48t-48 -19zM478 -9q-28 0 -47 19t-19 48t18.5 48t47.5 19t48 -19t19 -48t-19 -48t-48 -19z" />
    <glyph glyph-name="perthousand" unicode="&#x2030;" horiz-adv-x="1159" 
d="M24 532q0 35 12.5 65.5t34.5 53t52.5 35.5t67.5 13q39 0 71 -13t54.5 -35.5t34.5 -53t12 -65.5q0 -34 -12 -64.5t-34.5 -52.5t-54 -35t-69.5 -13q-37 0 -68.5 12.5t-53.5 34.5t-34.5 52.5t-12.5 65.5zM87 0l525 691h86l-525 -691h-86zM103 533q0 -41 24.5 -68t66.5 -27
q45 0 68 27.5t23 67.5q0 41 -24.5 67.5t-68.5 26.5q-42 0 -65.5 -27t-23.5 -67zM417 160q0 35 12 65t34 52.5t53 35.5t68 13q39 0 71 -12.5t54.5 -35t34.5 -53t12 -65.5t-12.5 -65t-35 -52.5t-53.5 -35.5t-69 -13t-69 12.5t-53.5 35t-34.5 53t-12 65.5zM796 160q0 35 12 65
t34 52.5t53 35.5t68 13q39 0 71 -12.5t54.5 -35t34.5 -53t12 -65.5t-12.5 -65t-35 -52.5t-53.5 -35.5t-69 -13t-69 12.5t-53.5 35t-34.5 53t-12 65.5zM496 160q0 -40 24.5 -67t66.5 -27q44 0 67 27t23 67q0 41 -24.5 68t-67.5 27q-42 0 -65.5 -27.5t-23.5 -67.5zM874 160
q0 -40 24.5 -67t66.5 -27q45 0 68 27t23 67q0 41 -24.5 68t-68.5 27q-42 0 -65.5 -27.5t-23.5 -67.5z" />
    <glyph glyph-name="guilsinglleft" unicode="&#x2039;" horiz-adv-x="200" 
d="M16 268l83 164h85l-84 -164l83 -163h-84z" />
    <glyph glyph-name="guilsinglright" unicode="&#x203a;" horiz-adv-x="200" 
d="M184 269l-84 -164h-84l84 164l-84 163h84z" />
    <glyph glyph-name="fraction" unicode="&#x2044;" horiz-adv-x="653" 
d="M25 0l516 692h82l-516 -692h-82z" />
    <glyph glyph-name="Euro" unicode="&#x20ac;" horiz-adv-x="653" 
d="M81 466q17 53 47.5 97t73.5 75t96.5 48t114.5 17q136 0 220 -78l-59 -70q-30 27 -71 43t-92 16q-62 0 -111.5 -23.5t-81.5 -67.5q-18 -27 -30 -57h243v-75h-262q-1 -11 -1.5 -22.5t-0.5 -22.5v-20.5t2 -19.5h262v-75h-243q8 -20 18.5 -38t23.5 -34q32 -39 80 -59.5
t106 -20.5q59 0 99.5 21t67.5 45l57 -65q-34 -34 -89.5 -62t-135.5 -28q-63 0 -117.5 17.5t-97.5 49t-74 76t-47 98.5h-62v75h49q-1 10 -1.5 19.5t-0.5 20.5t0.5 22.5t1.5 22.5h-49v75h64z" />
    <glyph glyph-name="trademark" unicode="&#x2122;" horiz-adv-x="607" 
d="M146 632v-222h-66v222h-56v60h178v-60h-56zM443 410h-66l-79 196v-196h-60v282h93l81 -205l80 205h91v-282h-63v197z" />
    <glyph glyph-name="uni2153" unicode="&#x2153;" horiz-adv-x="691" 
d="M5 0l516 692h82l-516 -692h-82zM96 335v288l-41 -17v65l47 21h70v-357h-76zM548 293h-129v65h217v-63l-77 -77q17 -2 34 -9t30.5 -19.5t21.5 -31.5t8 -45q0 -52 -35 -85t-94 -33q-33 0 -56.5 9.5t-38.5 25.5t-22.5 37.5t-7.5 45.5h75q0 -25 13.5 -39.5t37.5 -14.5
q23 0 37 14t14 38q0 26 -15.5 38.5t-42.5 12.5h-46v53z" />
    <glyph glyph-name="uni2154" unicode="&#x2154;" horiz-adv-x="781" 
d="M32 394l125 118q20 19 30.5 34.5t10.5 35.5t-11.5 33t-33.5 13q-28 0 -37 -16.5t-8 -32.5h-74q-1 19 4.5 40t19 38.5t37 29t58.5 11.5q60 0 91.5 -31.5t31.5 -80.5q0 -35 -15 -59t-42 -48l-77 -77h138v-67h-248v59zM95 0l516 692h82l-516 -692h-82zM639 292h-129v66h216
v-63l-76 -77q17 -2 33.5 -9t30 -19.5t21.5 -30.5t8 -43q0 -54 -36 -87.5t-93 -33.5q-33 0 -56.5 9.5t-38.5 25.5t-22 37.5t-7 45.5h73q0 -25 13.5 -39.5t38.5 -14.5q23 0 37 14t14 38q0 26 -15.5 38.5t-42.5 12.5h-46v52z" />
    <glyph glyph-name="oneeighth" unicode="&#x215b;" horiz-adv-x="683" 
d="M5 0l516 692h82l-516 -692h-82zM96 335v288l-41 -17v65l47 21h70v-357h-76zM396 264q0 41 29 71.5t89 30.5t90 -30t30 -72q0 -27 -11 -47t-31 -30q49 -23 49 -84q0 -45 -32 -76.5t-95 -31.5t-94 31t-31 76q0 59 47 85q-18 11 -29 29.5t-11 47.5zM469 260q0 -20 12.5 -33
t32.5 -13t33 13t13 33t-13 33.5t-33 13.5t-32.5 -13.5t-12.5 -33.5zM465 105q0 -23 13.5 -37t35.5 -14t36.5 14t14.5 37t-14.5 36.5t-36.5 13.5q-23 0 -36 -13.5t-13 -36.5z" />
    <glyph glyph-name="threeeighths" unicode="&#x215c;" horiz-adv-x="760" 
d="M185 627h-130v65h218v-63l-77 -77q17 -1 34 -8t30 -20t21 -31.5t8 -44.5q0 -53 -35 -86t-93 -33q-33 0 -56.5 9.5t-39 25.5t-23 37.5t-7.5 45.5h75q0 -25 13.5 -39t38.5 -14q23 0 36.5 13.5t13.5 38.5t-15 37.5t-42 12.5h-46v53zM81 0l516 692h82l-516 -692h-82zM473 264
q0 41 29.5 71.5t89.5 30.5t90 -30t30 -72q0 -56 -43 -77q49 -23 49 -84q0 -45 -32 -76.5t-95 -31.5t-94 31t-31 76q0 60 48 85q-18 11 -29.5 29.5t-11.5 47.5zM547 260q0 -20 12.5 -33t32.5 -13t33 13t13 33t-13 33.5t-33 13.5q-21 0 -33 -13.5t-12 -33.5zM542 105
q0 -23 13.5 -37t36.5 -14q22 0 36.5 14t14.5 37t-14.5 36.5t-36.5 13.5q-23 0 -36.5 -13.5t-13.5 -36.5z" />
    <glyph glyph-name="fiveeighths" unicode="&#x215d;" horiz-adv-x="763" 
d="M119 445q1 -23 12 -36.5t37 -13.5q24 0 36 14.5t12 37.5v11q0 51 -48 51q-18 0 -28 -7t-15 -15h-71v205h218v-65h-145v-72q8 7 23.5 12.5t36.5 5.5q52 0 79 -29.5t27 -81.5v-12q0 -54 -34 -87.5t-91 -33.5q-36 0 -60 10t-38 26.5t-20 37t-6 42.5h75zM83 0l516 692h82
l-516 -692h-82zM476 264q0 41 29 71.5t89 30.5t90 -30t30 -72q0 -27 -11 -47t-31 -30q49 -23 49 -84q0 -45 -32 -76.5t-95 -31.5t-94 31t-31 76q0 60 48 85q-18 11 -29.5 29.5t-11.5 47.5zM549 260q0 -20 12.5 -33t32.5 -13q21 0 34 13t13 33t-13.5 33.5t-33.5 13.5
t-32.5 -13.5t-12.5 -33.5zM545 105q0 -23 13.5 -37t35.5 -14q23 0 37 14t14 37t-14 36.5t-37 13.5q-22 0 -35.5 -13.5t-13.5 -36.5z" />
    <glyph glyph-name="seveneighths" unicode="&#x215e;" horiz-adv-x="694" 
d="M16 0l516 692h82l-516 -692h-82zM72 335l131 288h-155v69h247v-55l-138 -302h-85zM407 264q0 41 29.5 71.5t89.5 30.5t90 -30t30 -72q0 -27 -11 -47t-31 -30q24 -11 36 -33t12 -51q0 -45 -31.5 -76.5t-94.5 -31.5q-64 0 -95 31t-31 76q0 59 48 85q-18 11 -29.5 29.5
t-11.5 47.5zM481 260q0 -20 12.5 -33t32.5 -13t33 13t13 33t-13 33.5t-33 13.5t-32.5 -13.5t-12.5 -33.5zM477 105q0 -23 13.5 -37t35.5 -14t36.5 14t14.5 37t-14.5 36.5t-36.5 13.5q-23 0 -36 -13.5t-13 -36.5z" />
    <glyph glyph-name="minus" unicode="&#x2212;" horiz-adv-x="462" 
d="M439 377v-80h-415v80h415z" />
    <glyph glyph-name="uni24C5" unicode="&#x24c5;" horiz-adv-x="778" 
d="M26 346q0 75 26.5 141t73.5 114.5t113.5 76.5t145.5 28q84 0 152 -27.5t116 -75.5t73.5 -113t25.5 -141t-25.5 -142t-72.5 -115t-114 -77t-150 -28t-150 27.5t-114.5 76t-73.5 114t-26 141.5zM97 346q0 -63 20.5 -117.5t58.5 -94t92 -62.5t122 -23t122 22.5t91.5 62
t57.5 94.5t20 120t-20 119t-58.5 93.5t-93.5 61.5t-124 22q-65 0 -118 -22.5t-91 -62.5t-58.5 -94.5t-20.5 -118.5zM532 424q0 -54 -33 -86.5t-89 -32.5h-44v-148h-75v381h118q61 0 92 -31.5t31 -82.5zM366 370h30q58 0 58 52q0 51 -58 51h-30v-103z" />
    <glyph glyph-name="f_i" unicode="&#xfb01;" horiz-adv-x="451" 
d="M245 535v-81h-85v-454h-95v454h-54v81h54v34q0 37 8 67t26 51t47.5 32.5t72.5 11.5h28v-81h-19q-43 0 -55.5 -23.5t-12.5 -57.5v-34h85zM354 587q-26 0 -44.5 18.5t-18.5 44.5q0 27 18.5 45t44.5 18t44.5 -18t18.5 -45q0 -26 -18.5 -44.5t-44.5 -18.5zM307 0v535h96v-535
h-96z" />
    <glyph glyph-name="f_l" unicode="&#xfb02;" horiz-adv-x="451" 
d="M245 535v-81h-85v-454h-95v454h-54v81h54v34q0 37 8 67t26 51t47.5 32.5t72.5 11.5h28v-81h-19q-43 0 -55.5 -23.5t-12.5 -57.5v-34h85zM307 0v731h96v-731h-96z" />
    <glyph glyph-name="Cacute.pl" horiz-adv-x="624" 
d="M412 729h-84l42 126h86zM611 78q-17 -17 -40 -33.5t-51.5 -29t-63 -20.5t-73.5 -8q-80 0 -146 27t-113 74.5t-72.5 113.5t-25.5 144t26 144t73 114t112 75t144 27q68 0 124.5 -21t98.5 -59l-58 -72q-30 26 -72 43.5t-93 17.5q-58 0 -104.5 -20t-79.5 -56t-50.5 -85
t-17.5 -108q0 -58 19 -107.5t52.5 -85t80.5 -55.5t103 -20q60 0 101.5 22t68.5 46z" />
    <glyph glyph-name="Nacute.pl" horiz-adv-x="657" 
d="M373 729h-84l42 126h86zM150 0h-96v692h101l352 -531v531h96v-692h-99l-354 525v-525z" />
    <glyph glyph-name="Oacute.pl" horiz-adv-x="761" 
d="M425 729h-84l42 126h86zM26 346q0 78 26.5 144t73.5 114t112 75t141 27q79 0 144.5 -27t112.5 -75t73 -114t26 -143t-26 -143t-73 -114t-112.5 -75.5t-143.5 -27.5t-143.5 26.5t-112 74.5t-72.5 114t-26 144zM129 346q0 -59 18.5 -108t51.5 -84.5t79.5 -55.5t101.5 -20
q57 0 103.5 20t80 55.5t51.5 85t18 107.5q0 59 -18.5 108t-52 85t-80 56t-102.5 20q-57 0 -103 -20t-79 -56t-51 -85t-18 -108z" />
    <glyph glyph-name="Sacute.pl" horiz-adv-x="482" 
d="M284 729h-84l42 126h86zM141 527q0 -35 17.5 -57.5t49.5 -38.5q31 -14 63 -26.5t65 -29.5q56 -27 87 -71t31 -113q0 -45 -15.5 -82.5t-43 -64t-67 -41.5t-87.5 -15q-60 0 -101.5 18t-66.5 48.5t-35.5 70t-9.5 82.5h95q0 -28 6.5 -52.5t20.5 -42.5t36.5 -28.5t54.5 -10.5
q49 0 81 27.5t32 81.5q0 42 -20 66.5t-54 41.5q-34 18 -68.5 30.5t-69.5 31.5q-47 26 -72.5 68t-25.5 104q0 38 13.5 71t39 57.5t61.5 38.5t81 14q55 0 92.5 -16.5t60.5 -43.5t32.5 -62t8.5 -73h-90q-2 48 -27.5 79.5t-76.5 31.5q-48 0 -73 -26.5t-25 -67.5z" />
    <glyph glyph-name="Zacute.pl" horiz-adv-x="588" 
d="M326 729h-84l42 126h86zM28 73l396 529h-390v90h525v-73l-400 -529h401v-90h-532v73z" />
    <glyph glyph-name="a.alt" 
d="M482 79q-9 -13 -25 -28.5t-39 -29t-53.5 -22t-67.5 -8.5q-60 0 -110.5 20t-86.5 56t-56 87t-20 113q0 60 20 110.5t56.5 87.5t86.5 58t110 21t109 -23.5t75 -58.5v73h91v-535h-90v79zM120 267q0 -42 13 -77t37 -60.5t57.5 -39.5t73.5 -14t73 14t57 39.5t37 60.5t13 77
t-13.5 77t-37.5 60.5t-57 40t-73 14.5t-73 -14.5t-57 -40t-37 -60.5t-13 -77z" />
    <glyph glyph-name="aacute.alt" 
d="M339 579h-92l78 135h94zM482 79q-9 -13 -25 -28.5t-39 -29t-53.5 -22t-67.5 -8.5q-60 0 -110.5 20t-86.5 56t-56 87t-20 113q0 60 20 110.5t56.5 87.5t86.5 58t110 21t109 -23.5t75 -58.5v73h91v-535h-90v79zM120 267q0 -42 13 -77t37 -60.5t57.5 -39.5t73.5 -14t73 14
t57 39.5t37 60.5t13 77t-13.5 77t-37.5 60.5t-57 40t-73 14.5t-73 -14.5t-57 -40t-37 -60.5t-13 -77z" />
    <glyph glyph-name="abreve.alt" 
d="M302 571q-39 0 -65.5 13t-42.5 33t-23 43.5t-7 43.5h74q0 -10 3.5 -21.5t10.5 -21.5t19.5 -16t30.5 -6t30 6t19.5 16t11 21.5t3.5 21.5h72q0 -21 -7 -44t-23 -43t-42 -33t-64 -13zM482 79q-9 -13 -25 -28.5t-39 -29t-53.5 -22t-67.5 -8.5q-60 0 -110.5 20t-86.5 56
t-56 87t-20 113q0 60 20 110.5t56.5 87.5t86.5 58t110 21t109 -23.5t75 -58.5v73h91v-535h-90v79zM120 267q0 -42 13 -77t37 -60.5t57.5 -39.5t73.5 -14t73 14t57 39.5t37 60.5t13 77t-13.5 77t-37.5 60.5t-57 40t-73 14.5t-73 -14.5t-57 -40t-37 -60.5t-13 -77z" />
    <glyph glyph-name="acircumflex.alt" 
d="M453 575h-87l-62 79l-62 -79h-87l101 140h95zM482 79q-9 -13 -25 -28.5t-39 -29t-53.5 -22t-67.5 -8.5q-60 0 -110.5 20t-86.5 56t-56 87t-20 113q0 60 20 110.5t56.5 87.5t86.5 58t110 21t109 -23.5t75 -58.5v73h91v-535h-90v79zM120 267q0 -42 13 -77t37 -60.5
t57.5 -39.5t73.5 -14t73 14t57 39.5t37 60.5t13 77t-13.5 77t-37.5 60.5t-57 40t-73 14.5t-73 -14.5t-57 -40t-37 -60.5t-13 -77z" />
    <glyph glyph-name="acute.pl" horiz-adv-x="476" 
d="M282 579h-83l43 135h84z" />
    <glyph glyph-name="acute.uc" horiz-adv-x="476" 
d="M290 617h-83l67 112h86z" />
    <glyph glyph-name="acute.ucpl" horiz-adv-x="476" 
d="M292 729h-84l42 126h86z" />
    <glyph glyph-name="adieresis.alt" 
d="M215 590q-25 0 -42 17t-17 42t17 42t42 17q26 0 43.5 -17t17.5 -42t-18 -42t-43 -17zM386 590q-26 0 -43 17t-17 42t17 42t43 17q25 0 42.5 -17t17.5 -42t-18 -42t-42 -17zM482 79q-9 -13 -25 -28.5t-39 -29t-53.5 -22t-67.5 -8.5q-60 0 -110.5 20t-86.5 56t-56 87
t-20 113q0 60 20 110.5t56.5 87.5t86.5 58t110 21t109 -23.5t75 -58.5v73h91v-535h-90v79zM120 267q0 -42 13 -77t37 -60.5t57.5 -39.5t73.5 -14t73 14t57 39.5t37 60.5t13 77t-13.5 77t-37.5 60.5t-57 40t-73 14.5t-73 -14.5t-57 -40t-37 -60.5t-13 -77z" />
    <glyph glyph-name="agrave.alt" 
d="M356 579h-91l-79 135h94zM482 79q-9 -13 -25 -28.5t-39 -29t-53.5 -22t-67.5 -8.5q-60 0 -110.5 20t-86.5 56t-56 87t-20 113q0 60 20 110.5t56.5 87.5t86.5 58t110 21t109 -23.5t75 -58.5v73h91v-535h-90v79zM120 267q0 -42 13 -77t37 -60.5t57.5 -39.5t73.5 -14t73 14
t57 39.5t37 60.5t13 77t-13.5 77t-37.5 60.5t-57 40t-73 14.5t-73 -14.5t-57 -40t-37 -60.5t-13 -77z" />
    <glyph glyph-name="amacron.alt" 
d="M417 670v-73h-230v73h230zM482 79q-9 -13 -25 -28.5t-39 -29t-53.5 -22t-67.5 -8.5q-60 0 -110.5 20t-86.5 56t-56 87t-20 113q0 60 20 110.5t56.5 87.5t86.5 58t110 21t109 -23.5t75 -58.5v73h91v-535h-90v79zM120 267q0 -42 13 -77t37 -60.5t57.5 -39.5t73.5 -14t73 14
t57 39.5t37 60.5t13 77t-13.5 77t-37.5 60.5t-57 40t-73 14.5t-73 -14.5t-57 -40t-37 -60.5t-13 -77z" />
    <glyph glyph-name="aogonek.alt" 
d="M427 -81q0 53 55 85v75q-9 -13 -25 -28.5t-39 -29t-53.5 -22t-67.5 -8.5q-60 0 -110.5 20t-86.5 56t-56 87t-20 113q0 60 20 110.5t56.5 87.5t86.5 58t110 21t109 -23.5t75 -58.5v73h91v-538q-31 -10 -43.5 -25.5t-12.5 -33.5q0 -23 16 -33t40 -11v-69
q-74 -3 -109.5 24.5t-35.5 69.5zM120 267q0 -42 13 -77t37 -60.5t57.5 -39.5t73.5 -14t73 14t57 39.5t37 60.5t13 77t-13.5 77t-37.5 60.5t-57 40t-73 14.5t-73 -14.5t-57 -40t-37 -60.5t-13 -77z" />
    <glyph glyph-name="aring.alt" 
d="M196 662q0 44 28.5 72.5t73.5 28.5q49 0 77 -28.5t28 -70.5q0 -45 -28 -73.5t-76 -28.5q-46 0 -74.5 28.5t-28.5 71.5zM250 662q0 -21 13.5 -35t35.5 -14q24 0 37 14t13 37q0 20 -13 34.5t-37 14.5q-23 0 -36 -14.5t-13 -36.5zM482 79q-9 -13 -25 -28.5t-39 -29
t-53.5 -22t-67.5 -8.5q-60 0 -110.5 20t-86.5 56t-56 87t-20 113q0 60 20 110.5t56.5 87.5t86.5 58t110 21t109 -23.5t75 -58.5v73h91v-535h-90v79zM120 267q0 -42 13 -77t37 -60.5t57.5 -39.5t73.5 -14t73 14t57 39.5t37 60.5t13 77t-13.5 77t-37.5 60.5t-57 40t-73 14.5
t-73 -14.5t-57 -40t-37 -60.5t-13 -77z" />
    <glyph glyph-name="aringacute.alt" 
d="M346 789h-92l75 129h96zM198 662q0 44 28.5 72.5t73.5 28.5q49 0 77 -28.5t28 -70.5q0 -45 -28 -73.5t-76 -28.5q-46 0 -74.5 28.5t-28.5 71.5zM252 662q0 -21 13.5 -35t35.5 -14q24 0 37 14t13 37q0 20 -13 34.5t-37 14.5q-23 0 -36 -14.5t-13 -36.5zM482 79
q-9 -13 -25 -28.5t-39 -29t-53.5 -22t-67.5 -8.5q-60 0 -110.5 20t-86.5 56t-56 87t-20 113q0 60 20 110.5t56.5 87.5t86.5 58t110 21t109 -23.5t75 -58.5v73h91v-535h-90v79zM120 267q0 -42 13 -77t37 -60.5t57.5 -39.5t73.5 -14t73 14t57 39.5t37 60.5t13 77t-13.5 77
t-37.5 60.5t-57 40t-73 14.5t-73 -14.5t-57 -40t-37 -60.5t-13 -77z" />
    <glyph glyph-name="at.uc" horiz-adv-x="955" 
d="M622 174q-18 -26 -58 -49.5t-97 -23.5q-48 0 -87 16t-67 44t-43.5 67t-15.5 85q0 45 15.5 84t43.5 67.5t66.5 45t83.5 16.5q46 0 81.5 -15.5t52.5 -37.5v47h87v-267q0 -35 14 -55t49 -20q42 0 70 50t28 138q0 75 -25.5 135.5t-72 103t-113 65t-149.5 22.5q-87 0 -156 -30
t-117 -81.5t-73 -119.5t-25 -145q0 -85 28.5 -154t80.5 -117.5t125 -75t161 -26.5q83 0 148.5 27t113.5 69l46 -55q-22 -23 -53.5 -43.5t-71.5 -37t-86.5 -26t-98.5 -9.5q-113 0 -202.5 34t-151.5 94.5t-94.5 142t-32.5 175.5q0 98 34 181t95 143.5t146 94.5t187 34
q105 0 187 -31t138.5 -84.5t86 -126t29.5 -156.5q0 -64 -14.5 -114t-40 -84t-60.5 -51.5t-76 -17.5q-51 0 -78.5 21.5t-37.5 50.5zM345 314q0 -58 34 -94t89 -36t92 34.5t37 95.5q0 60 -37.5 95t-92.5 35t-88.5 -36.5t-33.5 -93.5z" />
    <glyph glyph-name="atilde.alt" 
d="M361 582q-20 0 -34.5 6.5t-27.5 15t-25 15t-26 6.5q-16 0 -23 -11t-8 -31h-70q-1 49 24 82.5t73 33.5q20 0 35 -6.5t27.5 -15t24 -15t25.5 -6.5q30 0 30 43h70q1 -53 -24.5 -85t-70.5 -32zM482 79q-9 -13 -25 -28.5t-39 -29t-53.5 -22t-67.5 -8.5q-60 0 -110.5 20
t-86.5 56t-56 87t-20 113q0 60 20 110.5t56.5 87.5t86.5 58t110 21t109 -23.5t75 -58.5v73h91v-535h-90v79zM120 267q0 -42 13 -77t37 -60.5t57.5 -39.5t73.5 -14t73 14t57 39.5t37 60.5t13 77t-13.5 77t-37.5 60.5t-57 40t-73 14.5t-73 -14.5t-57 -40t-37 -60.5t-13 -77z
" />
    <glyph glyph-name="backslash.uc" horiz-adv-x="453" 
d="M93 731l308 -786h-88l-309 786h89z" />
    <glyph glyph-name="bar.uc" horiz-adv-x="225" 
d="M71 -55v786h83v-786h-83z" />
    <glyph glyph-name="braceleft.uc" horiz-adv-x="279" 
d="M172 -8q0 -38 13.5 -61t61.5 -23h18v-83h-21q-85 0 -123.5 40.5t-38.5 124.5v201q0 32 -9.5 49.5t-47.5 17.5h-4v86h4q38 0 47.5 17.5t9.5 49.5v199q0 84 38.5 124.5t123.5 40.5h21v-83h-18q-48 0 -61.5 -23t-13.5 -61v-204q0 -52 -15 -74t-40 -29q25 -7 40 -28.5
t15 -75.5v-205z" />
    <glyph glyph-name="braceright.uc" horiz-adv-x="279" 
d="M106 197q0 54 15.5 75.5t40.5 28.5q-26 7 -41 29t-15 74v204q0 38 -13.5 61t-60.5 23h-18v83h21q85 0 123.5 -40.5t38.5 -124.5v-199q0 -32 9.5 -49.5t47.5 -17.5h4v-86h-4q-38 0 -47.5 -17.5t-9.5 -49.5v-201q0 -84 -38.5 -124.5t-123.5 -40.5h-21v83h18q47 0 60.5 23
t13.5 61v205z" />
    <glyph glyph-name="bracketleft.uc" horiz-adv-x="248" 
d="M234 775v-83h-93v-784h92v-83h-182v950h183z" />
    <glyph glyph-name="bracketright.uc" horiz-adv-x="248" 
d="M14 -175v83h92v784h-92v83h183v-950h-183z" />
    <glyph glyph-name="cacute.pl" horiz-adv-x="504" 
d="M324 579h-83l43 135h84zM298 77q27 0 48.5 6t38.5 15t30.5 19.5t23.5 20.5l56 -59q-12 -14 -30 -29.5t-42.5 -28.5t-56 -21.5t-69.5 -8.5q-62 0 -112.5 21t-86.5 58t-55.5 87.5t-19.5 109.5t20.5 109.5t57 88t86.5 58.5t109 21q39 0 71 -8t56.5 -20.5t42.5 -28t29 -29.5
l-59 -60q-21 23 -54.5 41.5t-84.5 18.5q-40 0 -72.5 -14.5t-55.5 -40t-36 -60.5t-13 -76q0 -43 14 -78t38 -60t56.5 -38.5t69.5 -13.5z" />
    <glyph glyph-name="caron.alt" horiz-adv-x="476" 
d="M334 577h-78l14 154h80z" />
    <glyph glyph-name="caron.uc" horiz-adv-x="400" 
d="M43 855h92l65 -70l65 70h91l-108 -126h-98z" />
    <glyph glyph-name="dieresis.uc" horiz-adv-x="476" 
d="M141 736q-25 0 -42 16.5t-17 42.5q0 25 17 42t42 17q26 0 43.5 -17t17.5 -42q0 -26 -18 -42.5t-43 -16.5zM328 736q-25 0 -42 16.5t-17 42.5q0 25 17 42t42 17q26 0 43.5 -17t17.5 -42q0 -26 -18 -42.5t-43 -16.5z" />
    <glyph glyph-name="dotaccent.uc" horiz-adv-x="400" 
d="M202 741q-26 0 -44 17.5t-18 43.5t17.5 43.5t43.5 17.5t44 -17.5t18 -43.5t-17.5 -43.5t-43.5 -17.5z" />
    <glyph glyph-name="eight.den" horiz-adv-x="298" 
d="M30 264q0 41 29 71.5t89 30.5t90 -30t30 -72q0 -28 -11 -48t-31 -31q49 -23 49 -84q0 -45 -32 -77t-95 -33q-63 1 -94 32.5t-31 76.5q0 28 12 50t36 35q-18 11 -29.5 30.5t-11.5 48.5zM103 259q0 -20 13 -33.5t33 -13.5t33 13.5t13 33.5q0 21 -13 34.5t-33 13.5
q-21 0 -33.5 -13.5t-12.5 -34.5zM98 103q0 -23 14 -38t37 -15q22 0 36.5 14.5t14.5 38.5q0 23 -14.5 37t-36.5 14q-23 0 -37 -14t-14 -37z" />
    <glyph glyph-name="eight.num" horiz-adv-x="298" 
d="M30 599q0 41 29 71.5t89 30.5t90 -30t30 -72q0 -28 -11 -48t-31 -31q49 -23 49 -84q0 -45 -32 -77t-95 -33q-63 1 -94 32.5t-31 76.5q0 28 12 50t36 35q-18 11 -29.5 30.5t-11.5 48.5zM103 594q0 -20 13 -33.5t33 -13.5t33 13.5t13 33.5q0 21 -13 34.5t-33 13.5
q-21 0 -33.5 -13.5t-12.5 -34.5zM98 438q0 -23 14 -38t37 -15q22 0 36.5 14.5t14.5 38.5q0 23 -14.5 37t-36.5 14q-23 0 -37 -14t-14 -37z" />
    <glyph glyph-name="emdash.uc" horiz-adv-x="937" 
d="M36 361h865v-80h-865v80z" />
    <glyph glyph-name="endash.uc" horiz-adv-x="605" 
d="M36 361h533v-80h-533v80z" />
    <glyph glyph-name="exclamdown.uc" horiz-adv-x="207" 
d="M103 702q28 0 47.5 -19.5t19.5 -47.5t-19.5 -47t-47.5 -19q-27 0 -46.5 19t-19.5 47t19.5 47.5t46.5 19.5zM56 0v523h96v-523h-96z" />
    <glyph glyph-name="f.short" horiz-adv-x="259" 
d="M245 535v-81h-85v-454h-95v454h-54v81h54v34q0 37 8 67t26 51t47.5 32.5t72.5 11.5h28v-81h-19q-43 0 -55.5 -23.5t-12.5 -57.5v-34h85z" />
    <glyph glyph-name="f_f.short" horiz-adv-x="495" 
d="M301 535v34q0 37 8 67t26 51t47 32.5t72 11.5h29v-81h-19q-22 0 -35 -6.5t-20.5 -17.5t-10 -25.5t-2.5 -31.5v-34h85v-81h-85v-454h-95v454h-141v-454h-95v454h-54v81h54v34q0 37 8 67t26 51t47.5 32.5t72.5 11.5h35v-81h-26q-43 0 -55.5 -23.5t-12.5 -57.5v-34h141z" />
    <glyph glyph-name="five.den" horiz-adv-x="292" 
d="M99 107q0 -23 11.5 -37t37.5 -14q23 0 35 15t12 38v15q0 50 -48 50q-18 0 -28 -7t-15 -15h-71v205h219v-64h-146v-75q7 7 22 13t38 6q52 0 78.5 -29.5t26.5 -82.5v-14q0 -53 -33 -86.5t-90 -33.5q-36 0 -59.5 10t-37.5 26.5t-20 37t-6 42.5h74z" />
    <glyph glyph-name="five.num" horiz-adv-x="292" 
d="M99 442q0 -23 11.5 -37t37.5 -14q23 0 35 15t12 38v15q0 50 -48 50q-18 0 -28 -7t-15 -15h-71v205h219v-64h-147v-75q7 7 22 13t38 6q53 0 79.5 -29.5t26.5 -82.5v-14q0 -53 -33 -86.5t-90 -33.5q-36 0 -59.5 10t-37.5 26.5t-20 37t-6 42.5h74z" />
    <glyph glyph-name="four.den" horiz-adv-x="307" 
d="M253 -1h-73v93h-163v63l162 202h74v-199h41v-66h-41v-93zM180 158v111l-88 -111h88z" />
    <glyph glyph-name="four.num" horiz-adv-x="307" 
d="M253 334h-73v93h-163v63l162 202h74v-199h41v-66h-41v-93zM180 493v111l-88 -111h88z" />
    <glyph glyph-name="guillemotleft.uc" horiz-adv-x="348" 
d="M16 268l83 164h85l-84 -164l83 -163h-84zM164 268l83 164h85l-84 -164l83 -163h-84z" />
    <glyph glyph-name="guillemotright.uc" horiz-adv-x="348" 
d="M184 269l-84 -164h-84l84 164l-84 163h84zM332 269l-84 -164h-84l84 164l-84 163h84z" />
    <glyph glyph-name="guilsinglleft.uc" horiz-adv-x="200" 
d="M16 268l83 164h85l-84 -164l83 -163h-84z" />
    <glyph glyph-name="guilsinglright.uc" horiz-adv-x="200" 
d="M184 269l-84 -164h-84l84 164l-84 163h84z" />
    <glyph glyph-name="hungarumlaut.uc" horiz-adv-x="400" 
d="M135 729h-90l61 126h92zM285 729h-89l62 126h91z" />
    <glyph glyph-name="hyphen.uc" horiz-adv-x="282" 
d="M247 368v-90h-211v90h211z" />
    <glyph glyph-name="i.loclTRK" horiz-adv-x="193" 
d="M96 587q-26 0 -44.5 18.5t-18.5 44.5q0 27 18.5 45t44.5 18t45 -18t19 -45q0 -26 -19 -44.5t-45 -18.5zM49 0v535h95v-535h-95z" />
    <glyph glyph-name="k.alt" horiz-adv-x="462" 
d="M339 0l-194 215v-215h-95v731h95v-232q13 14 41 28.5t71 14.5q41 0 74.5 -13t56.5 -36.5t35.5 -55.5t12.5 -71q0 -37 -12 -67t-33 -52.5t-49.5 -35.5t-61.5 -16l171 -195h-112zM344 361q0 44 -27 73t-73 29q-45 0 -73.5 -28.5t-28.5 -73.5t28.5 -73t73.5 -28t72.5 29
t27.5 72z" />
    <glyph glyph-name="kcommaaccent.alt" horiz-adv-x="462" 
d="M339 0l-194 215v-215h-95v731h95v-232q13 14 41 28.5t71 14.5q41 0 74.5 -13t56.5 -36.5t35.5 -55.5t12.5 -71q0 -37 -12 -67t-33 -52.5t-49.5 -35.5t-61.5 -16l171 -195h-112zM344 361q0 44 -27 73t-73 29q-45 0 -73.5 -28.5t-28.5 -73.5t28.5 -73t73.5 -28t72.5 29
t27.5 72zM225 -156q-21 5 -34 20.5t-13 38.5q0 26 17.5 43t45.5 17q29 0 45.5 -18t16.5 -44q0 -18 -6 -33t-13 -29l-39 -81h-59z" />
    <glyph glyph-name="macron.uc" horiz-adv-x="476" 
d="M366 818v-73h-240v73h240z" />
    <glyph glyph-name="nacute.pl" horiz-adv-x="479" 
d="M285 579h-83l43 135h84zM337 343q0 54 -23 83.5t-72 29.5q-48 0 -73 -31.5t-25 -84.5v-340h-95v535h95v-48q11 17 40.5 35.5t80.5 18.5q46 0 77.5 -14.5t51.5 -40t29 -60t9 -73.5v-353h-95v343z" />
    <glyph glyph-name="nine.den" horiz-adv-x="297" 
d="M86 86q7 -9 20.5 -19.5t35.5 -10.5q28 0 40.5 16.5t12.5 42.5v23q-8 -8 -23.5 -14.5t-35.5 -6.5q-55 0 -85.5 30.5t-30.5 83.5v15q0 52 32 86t92 34q33 0 56.5 -10t39 -26.5t22.5 -39t7 -48.5v-123q0 -26 -7.5 -49.5t-23 -41t-39.5 -27.5t-57 -10q-45 0 -70.5 16.5
t-36.5 33.5zM195 246q0 23 -12.5 39t-38.5 16q-24 0 -37.5 -15t-13.5 -40v-15q0 -23 13 -38t37 -15q26 0 39 15.5t13 35.5v17z" />
    <glyph glyph-name="nine.num" horiz-adv-x="297" 
d="M86 421q7 -9 20.5 -19.5t35.5 -10.5q28 0 40.5 16.5t12.5 42.5v23q-8 -8 -23.5 -14.5t-35.5 -6.5q-55 0 -85.5 30.5t-30.5 83.5v15q0 52 32 86t92 34q33 0 56.5 -10t39 -26.5t22.5 -39t7 -48.5v-123q0 -26 -7.5 -49.5t-23 -41t-39.5 -27.5t-57 -10q-45 0 -70.5 16.5
t-36.5 33.5zM195 581q0 23 -12.5 39t-38.5 16q-24 0 -37.5 -15t-13.5 -40v-15q0 -23 13 -38t37 -15q26 0 39 15.5t13 35.5v17z" />
    <glyph glyph-name="oacute.pl" horiz-adv-x="600" 
d="M341 579h-83l43 135h84zM24 267q0 61 21 112t58 87.5t87.5 57t109.5 20.5q60 0 111 -20.5t87.5 -57.5t57 -87.5t20.5 -110.5t-21 -111t-58 -87.5t-88 -57.5t-110 -21q-60 0 -110.5 20t-87 56.5t-57 87.5t-20.5 112zM120 267q0 -42 13.5 -76.5t37.5 -60t57 -39.5t72 -14
q40 0 73 14t57 39.5t37 60t13 76.5q0 41 -13.5 76t-37.5 60.5t-57 40t-72 14.5q-40 0 -73 -14t-57 -39.5t-37 -60.5t-13 -77z" />
    <glyph glyph-name="one.den" horiz-adv-x="162" 
d="M50 0v289l-41 -17v64l47 21h69v-357h-75z" />
    <glyph glyph-name="one.num" horiz-adv-x="162" 
d="M50 335v289l-41 -17v64l47 21h69v-357h-75z" />
    <glyph glyph-name="parenleft.uc" horiz-adv-x="248" 
d="M51 610q0 84 38.5 124.5t123.5 40.5h21v-82h-18q-24 0 -38.5 -6t-23 -17.5t-11 -27t-2.5 -34.5v-616q0 -19 2.5 -34.5t11 -27t23 -17.5t38.5 -6h18v-82h-21q-85 0 -123.5 40.5t-38.5 124.5v620z" />
    <glyph glyph-name="parenright.uc" horiz-adv-x="248" 
d="M197 -10q0 -84 -38.5 -124.5t-123.5 -40.5h-21v82h18q24 0 38.5 6t22.5 17.5t10.5 27t2.5 34.5v616q0 19 -2.5 34.5t-10.5 27t-22.5 17.5t-38.5 6h-18v82h21q85 0 123.5 -40.5t38.5 -124.5v-620z" />
    <glyph glyph-name="questiondown.uc" horiz-adv-x="462" 
d="M245 701q27 0 46.5 -19t19.5 -47q0 -29 -19.5 -48t-46.5 -19q-28 0 -47.5 19t-19.5 48q0 28 19.5 47t47.5 19zM292 522v-228h-53q-51 0 -84.5 -26.5t-33.5 -82.5q0 -51 30 -82.5t81 -31.5q35 0 57 13t34 32.5t16 41t4 39.5h95q1 -25 -6 -61t-29.5 -69t-63.5 -56t-107 -23
q-51 0 -90 15t-65.5 41.5t-40 62t-13.5 76.5q0 38 12.5 70.5t35.5 56.5t55 38.5t71 17.5v156h95z" />
    <glyph glyph-name="ring.uc" horiz-adv-x="473" 
d="M133 817q0 45 28.5 73.5t73.5 28.5q49 0 77 -28.5t28 -71.5q0 -44 -28 -72.5t-76 -28.5q-46 0 -74.5 28.5t-28.5 70.5zM189 818q0 -21 12.5 -34.5t34.5 -13.5q23 0 35.5 13.5t12.5 35.5q0 21 -12.5 34.5t-35.5 13.5q-22 0 -34.5 -13.5t-12.5 -35.5z" />
    <glyph glyph-name="sacute.pl" horiz-adv-x="398" 
d="M241 579h-83l43 135h84zM123 401q0 -48 54 -68q21 -8 42 -13t43 -13q56 -20 86 -54.5t30 -99.5q0 -39 -14.5 -69t-39 -50t-57.5 -30t-70 -10q-51 0 -85.5 14.5t-55.5 38.5t-30 55.5t-8 65.5h92q0 -19 4.5 -37t15 -31t27.5 -21t42 -8q35 -1 60.5 18t25.5 55q0 33 -16 50
t-46 28q-23 8 -46 14t-49 17q-53 23 -75 58.5t-22 83.5q0 33 12.5 60t35 46t53 29.5t67.5 10.5q85 0 125 -44.5t41 -117.5h-88q-2 41 -21.5 64.5t-58.5 23.5q-34 0 -54 -17.5t-20 -48.5z" />
    <glyph glyph-name="seven.den" horiz-adv-x="248" 
d="M48 0l101 289h-138v68h223v-55l-105 -302h-81z" />
    <glyph glyph-name="seven.num" horiz-adv-x="248" 
d="M48 335l101 289h-138v68h223v-55l-105 -302h-81z" />
    <glyph glyph-name="six.den" horiz-adv-x="297" 
d="M211 271q-7 10 -20 20t-36 10q-28 0 -40 -16.5t-12 -42.5v-23q8 8 24 14.5t38 6.5q54 0 83.5 -30.5t29.5 -82.5v-15q0 -52 -32.5 -86.5t-91.5 -34.5q-33 0 -57 10t-39 27t-22.5 39.5t-7.5 47.5v123q0 26 7.5 49t23.5 40.5t39.5 28t56.5 10.5q46 0 71 -16t36 -34zM103 111
q0 -23 12 -39t38 -16q24 0 37.5 15t13.5 40v15q0 23 -12.5 38t-37.5 15q-26 0 -38.5 -15.5t-12.5 -35.5v-17z" />
    <glyph glyph-name="six.num" horiz-adv-x="297" 
d="M211 606q-7 10 -20 20t-36 10q-28 0 -40 -16.5t-12 -42.5v-23q8 8 24 14.5t38 6.5q54 0 83.5 -30.5t29.5 -82.5v-15q0 -52 -32.5 -86.5t-91.5 -34.5q-33 0 -57 10t-39 27t-22.5 39.5t-7.5 47.5v123q0 26 7.5 49t23.5 40.5t39.5 28t56.5 10.5q46 0 71 -16t36 -34zM103 446
q0 -23 12 -39t38 -16q24 0 37.5 15t13.5 40v15q0 23 -12.5 38t-37.5 15q-26 0 -38.5 -15.5t-12.5 -35.5v-17z" />
    <glyph glyph-name="slash.uc" horiz-adv-x="453" 
d="M51 -55l309 786h89l-309 -786h-89z" />
    <glyph glyph-name="three.den" horiz-adv-x="288" 
d="M165 293h-131v64h216v-62l-76 -79q17 -1 34 -8t30.5 -20t21.5 -32t8 -45q0 -54 -34.5 -86.5t-93.5 -32.5q-33 0 -56.5 9.5t-39 25.5t-23 37t-7.5 45h74q0 -25 13.5 -39.5t39.5 -14.5q23 0 37 14.5t14 39.5q0 26 -15.5 39t-43.5 13h-46v51z" />
    <glyph glyph-name="three.num" horiz-adv-x="288" 
d="M165 628h-131v64h216v-62l-76 -79q17 -1 34 -8t30.5 -20t21.5 -32t8 -45q0 -54 -34.5 -87t-93.5 -33q-65 0 -95.5 35t-30.5 83h74q0 -25 13.5 -40t39.5 -15q23 0 37 15t14 40q0 26 -15.5 39t-43.5 13h-46v51z" />
    <glyph glyph-name="two.den" horiz-adv-x="281" 
d="M18 58l126 119q20 19 30 35t10 36t-12 34t-34 14q-29 0 -38 -17t-8 -34h-73q-1 20 4.5 41t19.5 38.5t37.5 29t57.5 11.5q60 0 91.5 -32t31.5 -81q0 -35 -15 -59.5t-42 -48.5l-78 -78h139v-66h-247v58z" />
    <glyph glyph-name="two.num" horiz-adv-x="281" 
d="M18 393l126 120q20 19 30 35t10 36t-12 34t-34 14q-29 0 -38 -17t-8 -34h-73q-1 19 4.5 40t19.5 39t37.5 29.5t57.5 11.5q60 0 91.5 -32t31.5 -81q0 -35 -15 -59t-42 -50l-78 -78h139v-66h-247v58z" />
    <glyph glyph-name="u.alt" horiz-adv-x="470" 
d="M423 193q0 -43 -12 -79.5t-36 -63t-59 -41.5t-81 -15q-51 0 -86.5 15t-58 41.5t-33 63t-10.5 79.5v342h95v-339q0 -53 23 -83t70 -30t70 30t23 83v339h95v-342z" />
    <glyph glyph-name="uacute.alt" horiz-adv-x="470" 
d="M276 579h-92l78 135h94zM423 193q0 -43 -12 -79.5t-36 -63t-59 -41.5t-81 -15q-51 0 -86.5 15t-58 41.5t-33 63t-10.5 79.5v342h95v-339q0 -53 23 -83t70 -30t70 30t23 83v339h95v-342z" />
    <glyph glyph-name="ubreve.alt" horiz-adv-x="470" 
d="M235 571q-39 0 -65.5 13t-42.5 33t-23 43.5t-7 43.5h74q0 -10 3.5 -21.5t10.5 -21.5t19.5 -16t30.5 -6t30 6t19.5 16t11 21.5t3.5 21.5h72q0 -21 -7 -44t-23 -43t-42 -33t-64 -13zM423 193q0 -43 -12 -79.5t-36 -63t-59 -41.5t-81 -15q-51 0 -86.5 15t-58 41.5t-33 63
t-10.5 79.5v342h95v-339q0 -53 23 -83t70 -30t70 30t23 83v339h95v-342z" />
    <glyph glyph-name="ucircumflex.alt" horiz-adv-x="470" 
d="M383 575h-87l-62 79l-62 -79h-87l101 140h95zM423 193q0 -43 -12 -79.5t-36 -63t-59 -41.5t-81 -15q-51 0 -86.5 15t-58 41.5t-33 63t-10.5 79.5v342h95v-339q0 -53 23 -83t70 -30t70 30t23 83v339h95v-342z" />
    <glyph glyph-name="udieresis.alt" horiz-adv-x="470" 
d="M149 590q-25 0 -42 17t-17 42t17 42t42 17q26 0 43.5 -17t17.5 -42t-18 -42t-43 -17zM320 590q-26 0 -43 17t-17 42t17 42t43 17q25 0 42.5 -17t17.5 -42t-18 -42t-42 -17zM423 193q0 -43 -12 -79.5t-36 -63t-59 -41.5t-81 -15q-51 0 -86.5 15t-58 41.5t-33 63
t-10.5 79.5v342h95v-339q0 -53 23 -83t70 -30t70 30t23 83v339h95v-342z" />
    <glyph glyph-name="ugrave.alt" horiz-adv-x="470" 
d="M292 579h-91l-79 135h94zM423 193q0 -43 -12 -79.5t-36 -63t-59 -41.5t-81 -15q-51 0 -86.5 15t-58 41.5t-33 63t-10.5 79.5v342h95v-339q0 -53 23 -83t70 -30t70 30t23 83v339h95v-342z" />
    <glyph glyph-name="uhungarumlaut.alt" horiz-adv-x="470" 
d="M199 579h-89l62 135h92zM348 579h-88l64 135h91zM423 193q0 -43 -12 -79.5t-36 -63t-59 -41.5t-81 -15q-51 0 -86.5 15t-58 41.5t-33 63t-10.5 79.5v342h95v-339q0 -53 23 -83t70 -30t70 30t23 83v339h95v-342z" />
    <glyph glyph-name="umacron.alt" horiz-adv-x="470" 
d="M349 670v-73h-230v73h230zM423 193q0 -43 -12 -79.5t-36 -63t-59 -41.5t-81 -15q-51 0 -86.5 15t-58 41.5t-33 63t-10.5 79.5v342h95v-339q0 -53 23 -83t70 -30t70 30t23 83v339h95v-342z" />
    <glyph glyph-name="uni00200326" horiz-adv-x="400" 
d="M198 -156q-21 5 -34 20.5t-13 38.5q0 26 17.5 43t45.5 17q29 0 45.5 -18t16.5 -44q0 -18 -6 -33t-13 -29l-39 -81h-59z" />
    <glyph glyph-name="uni00200326.alt" horiz-adv-x="400" 
d="M220 692q21 -5 34 -19.5t13 -37.5q0 -26 -17 -43.5t-46 -17.5t-45.5 18t-16.5 43q0 19 6 33.5t13 28.5l39 82h59z" />
    <glyph glyph-name="uni03020300" horiz-adv-x="0" 
d="M-190 681h-81l-70 112h85zM-261 602h-82l-58 61l-57 -61h-83l96 112h88z" />
    <glyph glyph-name="uni03020301" horiz-adv-x="0" 
d="M-203 673h-83l67 112h86zM-261 602h-82l-58 61l-57 -61h-83l96 112h88z" />
    <glyph glyph-name="uni03020303" horiz-adv-x="0" 
d="M-346 741q-18 0 -31.5 6t-25.5 13t-23 13.5t-23 6.5q-30 -2 -30 -38h-62q-2 44 21.5 73.5t66.5 30.5q18 0 31.5 -6t24.5 -13t22 -13t23 -6q28 0 30 38h62q1 -48 -22.5 -76.5t-63.5 -28.5zM-261 602h-82l-58 61l-57 -61h-83l96 112h88z" />
    <glyph glyph-name="uni03020309" horiz-adv-x="0" 
d="M-270 673q8 19 17.5 31.5t18 22.5t14 18t5.5 18q0 12 -6.5 19t-16.5 7q-15 0 -25 -8.5t-27 -31.5l-53 27q24 44 46.5 60.5t58.5 16.5q38 0 63 -23t25 -58q0 -22 -7 -36.5t-17 -26l-20 -23t-17 -26.5zM-261 602h-82l-58 61l-57 -61h-83l96 112h88z" />
    <glyph glyph-name="uni03060300" horiz-adv-x="0" 
d="M-361 751h-81l-70 112h85zM-398 609q-35 0 -58.5 11t-38 28t-21 37t-6.5 38h68q1 -16 12.5 -33.5t43.5 -17.5t43.5 17.5t12.5 33.5h66q0 -18 -6.5 -38t-21 -37t-38 -28t-56.5 -11z" />
    <glyph glyph-name="uni03060301" horiz-adv-x="0" 
d="M-353 755h-83l67 112h86zM-398 609q-35 0 -58.5 11t-38 28t-21 37t-6.5 38h68q1 -16 12.5 -33.5t43.5 -17.5t43.5 17.5t12.5 33.5h66q0 -18 -6.5 -38t-21 -37t-38 -28t-56.5 -11z" />
    <glyph glyph-name="uni03060303" horiz-adv-x="0" 
d="M-327 753q-18 0 -31.5 6t-25.5 13t-23 13.5t-23 6.5q-30 -2 -30 -38h-62q-2 44 21.5 73.5t66.5 30.5q18 0 31.5 -6t24.5 -13t22 -13t23 -6q28 0 30 38h62q1 -48 -22.5 -76.5t-63.5 -28.5zM-398 609q-35 0 -58.5 11t-38 28t-21 37t-6.5 38h68q1 -16 12.5 -33.5t43.5 -17.5
t43.5 17.5t12.5 33.5h66q0 -18 -6.5 -38t-21 -37t-38 -28t-56.5 -11z" />
    <glyph glyph-name="uni03060309" horiz-adv-x="0" 
d="M-425 738q8 19 17.5 31.5t18 22.5t14 18t5.5 18q0 12 -6.5 19t-16.5 7q-15 0 -25 -8.5t-27 -31.5l-53 27q24 44 46.5 60.5t58.5 16.5q38 0 63 -23t25 -58q0 -22 -7 -36.5t-17 -26l-20 -23t-17 -26.5zM-398 609q-35 0 -58.5 11t-38 28t-21 37t-6.5 38h68q1 -16 12.5 -33.5
t43.5 -17.5t43.5 17.5t12.5 33.5h66q0 -18 -6.5 -38t-21 -37t-38 -28t-56.5 -11z" />
    <glyph glyph-name="uogonek.alt" horiz-adv-x="470" 
d="M423 193q0 -62 -24 -109t-72 -70q-46 -30 -46 -71q0 -24 16.5 -36t40.5 -13v-69q-74 -3 -109.5 26t-35.5 73q0 18 5.5 36t19.5 35q-46 2 -79 17.5t-53 42t-29.5 61.5t-9.5 77v342h95v-339q0 -53 23 -83t70 -30t70 30t23 83v339h95v-342z" />
    <glyph glyph-name="uring.alt" horiz-adv-x="470" 
d="M131 662q0 44 28.5 72.5t73.5 28.5q49 0 77 -28.5t28 -70.5q0 -45 -28 -73.5t-76 -28.5q-46 0 -74.5 28.5t-28.5 71.5zM185 662q0 -21 13.5 -35t35.5 -14q24 0 37 14t13 37q0 20 -13 34.5t-37 14.5q-23 0 -36 -14.5t-13 -36.5zM423 193q0 -43 -12 -79.5t-36 -63
t-59 -41.5t-81 -15q-51 0 -86.5 15t-58 41.5t-33 63t-10.5 79.5v342h95v-339q0 -53 23 -83t70 -30t70 30t23 83v339h95v-342z" />
    <glyph glyph-name="utilde.alt" horiz-adv-x="470" 
d="M292 582q-20 0 -34.5 6.5t-27.5 15t-25 15t-26 6.5q-16 0 -23 -11t-8 -31h-70q-1 49 24 82.5t73 33.5q20 0 35 -6.5t27.5 -15t24 -15t25.5 -6.5q30 0 30 43h70q1 -53 -24.5 -85t-70.5 -32zM423 193q0 -43 -12 -79.5t-36 -63t-59 -41.5t-81 -15q-51 0 -86.5 15t-58 41.5
t-33 63t-10.5 79.5v342h95v-339q0 -53 23 -83t70 -30t70 30t23 83v339h95v-342z" />
    <glyph glyph-name="w.alt" horiz-adv-x="751" 
d="M704 190q0 -43 -12 -79t-35.5 -62t-58.5 -40.5t-81 -14.5q-102 0 -143 66q-48 -66 -140 -66q-51 0 -86.5 14.5t-58 40.5t-32.5 62t-10 79v345h95v-339q0 -53 23 -83t70 -30q46 0 69 29t24 81v342h95v-342q1 -52 24 -81t69 -29q47 0 70 30t23 83v339h95v-345z" />
    <glyph glyph-name="wacute.alt" horiz-adv-x="751" 
d="M421 579h-92l78 135h94zM704 190q0 -43 -12 -79t-35.5 -62t-58.5 -40.5t-81 -14.5q-102 0 -143 66q-48 -66 -140 -66q-51 0 -86.5 14.5t-58 40.5t-32.5 62t-10 79v345h95v-339q0 -53 23 -83t70 -30q46 0 69 29t24 81v342h95v-342q1 -52 24 -81t69 -29q47 0 70 30t23 83
v339h95v-345z" />
    <glyph glyph-name="wcircumflex.alt" horiz-adv-x="751" 
d="M524 575h-87l-62 79l-62 -79h-87l101 140h95zM704 190q0 -43 -12 -79t-35.5 -62t-58.5 -40.5t-81 -14.5q-102 0 -143 66q-48 -66 -140 -66q-51 0 -86.5 14.5t-58 40.5t-32.5 62t-10 79v345h95v-339q0 -53 23 -83t70 -30q46 0 69 29t24 81v342h95v-342q1 -52 24 -81
t69 -29q47 0 70 30t23 83v339h95v-345z" />
    <glyph glyph-name="wdieresis.alt" horiz-adv-x="751" 
d="M289 590q-25 0 -42 17t-17 42t17 42t42 17q26 0 43.5 -17t17.5 -42t-18 -42t-43 -17zM460 590q-26 0 -43 17t-17 42t17 42t43 17q25 0 42.5 -17t17.5 -42t-18 -42t-42 -17zM704 190q0 -43 -12 -79t-35.5 -62t-58.5 -40.5t-81 -14.5q-102 0 -143 66q-48 -66 -140 -66
q-51 0 -86.5 14.5t-58 40.5t-32.5 62t-10 79v345h95v-339q0 -53 23 -83t70 -30q46 0 69 29t24 81v342h95v-342q1 -52 24 -81t69 -29q47 0 70 30t23 83v339h95v-345z" />
    <glyph glyph-name="wgrave.alt" horiz-adv-x="751" 
d="M420 579h-91l-79 135h94zM704 190q0 -43 -12 -79t-35.5 -62t-58.5 -40.5t-81 -14.5q-102 0 -143 66q-48 -66 -140 -66q-51 0 -86.5 14.5t-58 40.5t-32.5 62t-10 79v345h95v-339q0 -53 23 -83t70 -30q46 0 69 29t24 81v342h95v-342q1 -52 24 -81t69 -29q47 0 70 30t23 83
v339h95v-345z" />
    <glyph glyph-name="y.alt" horiz-adv-x="476" 
d="M91 -65q17 -9 50 -21.5t81 -12.5q54 0 83.5 26.5t29.5 72.5v45q-12 -19 -40 -35.5t-76 -16.5q-47 0 -80 15t-53.5 40.5t-29.5 60t-9 73.5v353h95v-342q0 -54 22 -83.5t70 -29.5t73 31.5t25 84.5v339h95v-525q0 -86 -51.5 -139.5t-152.5 -53.5q-58 0 -98.5 13t-63.5 26z
" />
    <glyph glyph-name="yacute.alt" horiz-adv-x="476" 
d="M280 579h-92l78 135h94zM91 -65q17 -9 50 -21.5t81 -12.5q54 0 83.5 26.5t29.5 72.5v45q-12 -19 -40 -35.5t-76 -16.5q-47 0 -80 15t-53.5 40.5t-29.5 60t-9 73.5v353h95v-342q0 -54 22 -83.5t70 -29.5t73 31.5t25 84.5v339h95v-525q0 -86 -51.5 -139.5t-152.5 -53.5
q-58 0 -98.5 13t-63.5 26z" />
    <glyph glyph-name="ycircumflex.alt" horiz-adv-x="476" 
d="M387 575h-87l-62 79l-62 -79h-87l101 140h95zM91 -65q17 -9 50 -21.5t81 -12.5q54 0 83.5 26.5t29.5 72.5v45q-12 -19 -40 -35.5t-76 -16.5q-47 0 -80 15t-53.5 40.5t-29.5 60t-9 73.5v353h95v-342q0 -54 22 -83.5t70 -29.5t73 31.5t25 84.5v339h95v-525
q0 -86 -51.5 -139.5t-152.5 -53.5q-58 0 -98.5 13t-63.5 26z" />
    <glyph glyph-name="ydieresis.alt" horiz-adv-x="476" 
d="M150 590q-25 0 -42 17t-17 42t17 42t42 17q26 0 43.5 -17t17.5 -42t-18 -42t-43 -17zM321 590q-26 0 -43 17t-17 42t17 42t43 17q25 0 42.5 -17t17.5 -42t-18 -42t-42 -17zM91 -65q17 -9 50 -21.5t81 -12.5q54 0 83.5 26.5t29.5 72.5v45q-12 -19 -40 -35.5t-76 -16.5
q-47 0 -80 15t-53.5 40.5t-29.5 60t-9 73.5v353h95v-342q0 -54 22 -83.5t70 -29.5t73 31.5t25 84.5v339h95v-525q0 -86 -51.5 -139.5t-152.5 -53.5q-58 0 -98.5 13t-63.5 26z" />
    <glyph glyph-name="ygrave.alt" horiz-adv-x="476" 
d="M294 579h-91l-79 135h94zM91 -65q17 -9 50 -21.5t81 -12.5q54 0 83.5 26.5t29.5 72.5v45q-12 -19 -40 -35.5t-76 -16.5q-47 0 -80 15t-53.5 40.5t-29.5 60t-9 73.5v353h95v-342q0 -54 22 -83.5t70 -29.5t73 31.5t25 84.5v339h95v-525q0 -86 -51.5 -139.5t-152.5 -53.5
q-58 0 -98.5 13t-63.5 26z" />
    <glyph glyph-name="zacute.pl" horiz-adv-x="441" 
d="M257 579h-83l43 135h84zM418 80v-80h-395v73l279 382h-273v80h389v-73l-285 -382h285z" />
    <glyph glyph-name="zero.den" horiz-adv-x="307" 
d="M278 119q0 -55 -32 -91.5t-93 -36.5q-64 0 -94.5 35.5t-30.5 92.5v118q0 56 31 92.5t94 36.5t94 -36.5t31 -92.5v-118zM202 239q0 25 -12.5 40t-36.5 15t-36 -14.5t-12 -40.5v-122q0 -25 12 -39.5t36 -14.5t36.5 14.5t12.5 39.5v122z" />
    <glyph glyph-name="zero.num" horiz-adv-x="307" 
d="M278 454q0 -55 -32 -91.5t-93 -36.5q-64 0 -94.5 35.5t-30.5 92.5v118q0 56 31 92.5t94 36.5t94 -36.5t31 -92.5v-118zM202 574q0 25 -12.5 40t-36.5 15t-36 -14.5t-12 -40.5v-122q0 -25 12 -39.5t36 -14.5t36.5 14.5t12.5 39.5v122z" />
    </font>
</defs>
</svg>
